<svg xmlns="http://www.w3.org/2000/svg" width="1200" height="780" viewBox="0 0 1200 780" font-family="Segoe UI, Arial, sans-serif"><rect x="0" y="0" width="1200" height="780" rx="0" fill="#f4f4f7"/><rect x="0" y="0" width="1200" height="54" rx="0" fill="#4c1d95"/><text x="20" y="33" font-size="17" fill="#fff" font-weight="bold" text-anchor="start">🧶 BIG TRICOT</text><rect x="176" y="16" width="128" height="22" rx="11" fill="#ffffff22"/><text x="188" y="31" font-size="12" fill="#fff" font-weight="normal" text-anchor="start">Rolagem de Fase</text><text x="1176" y="33" font-size="13" fill="#fff" font-weight="normal" text-anchor="end">João (Supervisor) ▾</text><rect x="0" y="54" width="220" height="800" rx="0" fill="#1b1530"/><text x="20" y="90" font-size="14" fill="#fff" font-weight="bold" text-anchor="start">🧶 Big Tricot</text><text x="20" y="120" font-size="13" fill="#cfc8e6" font-weight="normal" text-anchor="start">📊 Início</text><rect x="0" y="132" width="220" height="34" rx="0" fill="#8b5cf633"/><rect x="0" y="132" width="3" height="34" rx="0" fill="#8b5cf6"/><text x="20" y="154" font-size="13" fill="#fff" font-weight="normal" text-anchor="start">📦 Pedidos</text><text x="20" y="188" font-size="13" fill="#cfc8e6" font-weight="normal" text-anchor="start">🏭 Ordens de Produção</text><text x="20" y="222" font-size="13" fill="#cfc8e6" font-weight="normal" text-anchor="start">📋 Romaneios</text><text x="20" y="256" font-size="13" fill="#cfc8e6" font-weight="normal" text-anchor="start">🧵 Costureiras</text><text x="20" y="290" font-size="13" fill="#cfc8e6" font-weight="normal" text-anchor="start">🗃️ Almoxarifado</text><text x="20" y="324" font-size="13" fill="#cfc8e6" font-weight="normal" text-anchor="start">🚚 Motoristas</text><text x="20" y="358" font-size="13" fill="#cfc8e6" font-weight="normal" text-anchor="start">📈 Relatórios</text><text x="20" y="392" font-size="13" fill="#cfc8e6" font-weight="normal" text-anchor="start">⚙️ Configurações</text><text x="244" y="92" font-size="20" fill="#1f2430" font-weight="bold" text-anchor="start">Importar Pedido (PDF do ERP)</text><rect x="244" y="120" width="700" height="200" rx="14" fill="#fff" stroke="#c7c2d8" stroke-width="2"/><text x="594" y="210" font-size="18" fill="#7a8194" font-weight="normal" text-anchor="middle">📄  Arraste o PDF do ERP aqui</text><rect x="514" y="236" width="160" height="40" rx="9" fill="#6d28d9"/><text x="594" y="262" font-size="13" fill="#fff" font-weight="bold" text-anchor="middle">Selecionar arquivo</text><rect x="244" y="340" width="700" height="160" rx="12" fill="#fff" stroke="#e6e6ee" stroke-width="1"/><text x="264" y="372" font-size="14" fill="#1f2430" font-weight="bold" text-anchor="start">Arquivos enviados</text><text x="264" y="408" font-size="13" fill="#1f2430" font-weight="normal" text-anchor="start">pedido_1001.pdf</text><rect x="700" y="396" width="58.800000000000004" height="20" rx="10.0" fill="#dcfce7"/><text x="709" y="410.0" font-size="11" fill="#15803d" font-weight="normal" text-anchor="start">● Enviado</text><text x="264" y="444" font-size="13" fill="#1f2430" font-weight="normal" text-anchor="start">pedido_1002.pdf</text><rect x="700" y="432" width="116.4" height="20" rx="10.0" fill="#fef3c7"/><text x="709" y="446.0" font-size="11" fill="#b45309" font-weight="normal" text-anchor="start">● Processando OCR…</text><text x="264" y="480" font-size="13" fill="#1f2430" font-weight="normal" text-anchor="start">pedido_1003.pdf</text><rect x="700" y="468" width="58.800000000000004" height="20" rx="10.0" fill="#dcfce7"/><text x="709" y="482.0" font-size="11" fill="#15803d" font-weight="normal" text-anchor="start">● Enviado</text><text x="244" y="540" font-size="12" fill="#7a8194" font-weight="normal" text-anchor="start">Os PDFs originais ficam preservados no sistema.</text><rect x="784" y="520" width="160" height="40" rx="9" fill="#6d28d9"/><text x="864" y="546" font-size="14" fill="#fff" font-weight="bold" text-anchor="middle">Processar</text></svg>