<svg xmlns="http://www.w3.org/2000/svg" width="1200" height="780" viewBox="0 0 1200 780" font-family="Segoe UI, Arial, sans-serif"><rect x="0" y="0" width="1200" height="780" rx="0" fill="#f4f4f7"/><rect x="0" y="0" width="1200" height="54" rx="0" fill="#4c1d95"/><text x="20" y="33" font-size="17" fill="#fff" font-weight="bold" text-anchor="start">🧶 BIG TRICOT</text><rect x="176" y="16" width="128" height="22" rx="11" fill="#ffffff22"/><text x="188" y="31" font-size="12" fill="#fff" font-weight="normal" text-anchor="start">Rolagem de Fase</text><text x="1176" y="33" font-size="13" fill="#fff" font-weight="normal" text-anchor="end">João (Supervisor) ▾</text><rect x="0" y="54" width="220" height="800" rx="0" fill="#1b1530"/><text x="20" y="90" font-size="14" fill="#fff" font-weight="bold" text-anchor="start">🧶 Big Tricot</text><text x="20" y="120" font-size="13" fill="#cfc8e6" font-weight="normal" text-anchor="start">📊 Início</text><text x="20" y="154" font-size="13" fill="#cfc8e6" font-weight="normal" text-anchor="start">📦 Pedidos</text><rect x="0" y="166" width="220" height="34" rx="0" fill="#8b5cf633"/><rect x="0" y="166" width="3" height="34" rx="0" fill="#8b5cf6"/><text x="20" y="188" font-size="13" fill="#fff" font-weight="normal" text-anchor="start">🏭 Ordens de Produção</text><text x="20" y="222" font-size="13" fill="#cfc8e6" font-weight="normal" text-anchor="start">📋 Romaneios</text><text x="20" y="256" font-size="13" fill="#cfc8e6" font-weight="normal" text-anchor="start">🧵 Costureiras</text><text x="20" y="290" font-size="13" fill="#cfc8e6" font-weight="normal" text-anchor="start">🗃️ Almoxarifado</text><text x="20" y="324" font-size="13" fill="#cfc8e6" font-weight="normal" text-anchor="start">🚚 Motoristas</text><text x="20" y="358" font-size="13" fill="#cfc8e6" font-weight="normal" text-anchor="start">📈 Relatórios</text><text x="20" y="392" font-size="13" fill="#cfc8e6" font-weight="normal" text-anchor="start">⚙️ Configurações</text><text x="244" y="92" font-size="20" fill="#1f2430" font-weight="bold" text-anchor="start">OP G-046</text><rect x="370" y="72" width="250" height="22" rx="8" fill="#f3effe"/><text x="380" y="88" font-size="12" fill="#5b21b6" font-weight="normal" text-anchor="start">Pedidos: #1001, #1002, #1003</text><rect x="1020" y="72" width="150" height="20" rx="10.0" fill="#fef3c7"/><text x="1029" y="86.0" font-size="11" fill="#b45309" font-weight="normal" text-anchor="start">● Em execução</text><rect x="244" y="104" width="932" height="36" rx="10" fill="#fff" stroke="#e6e6ee" stroke-width="1"/><text x="262" y="127" font-size="13" fill="#1f2430" font-weight="normal" text-anchor="start">Cliente: Loja A    ·    Tipo: Agrupamento    ·    Entrega: 22/06 🔴</text><rect x="244" y="156" width="560" height="580" rx="12" fill="#fff" stroke="#e6e6ee" stroke-width="1"/><text x="264" y="186" font-size="14" fill="#1f2430" font-weight="bold" text-anchor="start">Linha do tempo (rastreabilidade)</text><circle cx="280" cy="222" r="11" fill="#16a34a"/><text x="280" y="226" font-size="11" fill="#fff" font-weight="normal" text-anchor="middle">✓</text><text x="304" y="220" font-size="13" fill="#1f2430" font-weight="bold" text-anchor="start">Criação · Ana</text><text x="304" y="238" font-size="11" fill="#7a8194" font-weight="normal" text-anchor="start">18/06 09:12</text><line x1="280" y1="233" x2="280" y2="261" stroke="#cbd5e1" stroke-width="1"/><circle cx="280" cy="272" r="11" fill="#16a34a"/><text x="280" y="276" font-size="11" fill="#fff" font-weight="normal" text-anchor="middle">✓</text><text x="304" y="270" font-size="13" fill="#1f2430" font-weight="bold" text-anchor="start">Tecelagem · Pedro</text><text x="304" y="288" font-size="11" fill="#7a8194" font-weight="normal" text-anchor="start">18/06 14:30 → 19/06 08:00 (17h30)</text><line x1="280" y1="283" x2="280" y2="311" stroke="#cbd5e1" stroke-width="1"/><circle cx="280" cy="322" r="11" fill="#16a34a"/><text x="280" y="326" font-size="11" fill="#fff" font-weight="normal" text-anchor="middle">✓</text><text x="304" y="320" font-size="13" fill="#1f2430" font-weight="bold" text-anchor="start">Passadoria · Carla</text><text x="304" y="338" font-size="11" fill="#7a8194" font-weight="normal" text-anchor="start">19/06 08:10 → 10:00 (1h50)</text><line x1="280" y1="333" x2="280" y2="361" stroke="#cbd5e1" stroke-width="1"/><circle cx="280" cy="372" r="11" fill="#16a34a"/><text x="280" y="376" font-size="11" fill="#fff" font-weight="normal" text-anchor="middle">✓</text><text x="304" y="370" font-size="13" fill="#1f2430" font-weight="bold" text-anchor="start">Corte · José</text><text x="304" y="388" font-size="11" fill="#7a8194" font-weight="normal" text-anchor="start">19/06 10:15 → 12:00 (1h45)</text><line x1="280" y1="383" x2="280" y2="411" stroke="#cbd5e1" stroke-width="1"/><circle cx="280" cy="422" r="11" fill="#d97706"/><text x="280" y="426" font-size="11" fill="#fff" font-weight="normal" text-anchor="middle">●</text><text x="304" y="420" font-size="13" fill="#b45309" font-weight="bold" text-anchor="start">Costura · Maria — Romaneio R-220</text><text x="304" y="438" font-size="11" fill="#7a8194" font-weight="normal" text-anchor="start">19/06 13:00 → … (parado 1d 4h)</text><line x1="280" y1="433" x2="280" y2="461" stroke="#cbd5e1" stroke-width="1"/><circle cx="280" cy="472" r="11" fill="#cbd5e1"/><text x="304" y="470" font-size="13" fill="#94a3b8" font-weight="bold" text-anchor="start">Revisão</text><text x="304" y="488" font-size="11" fill="#7a8194" font-weight="normal" text-anchor="start">aguardando</text><line x1="280" y1="483" x2="280" y2="511" stroke="#cbd5e1" stroke-width="1"/><circle cx="280" cy="522" r="11" fill="#cbd5e1"/><text x="304" y="520" font-size="13" fill="#94a3b8" font-weight="bold" text-anchor="start">Expedição · Fiscal · Transporte</text><text x="304" y="538" font-size="11" fill="#7a8194" font-weight="normal" text-anchor="start">—</text><rect x="820" y="156" width="356" height="150" rx="12" fill="#fff" stroke="#e6e6ee" stroke-width="1"/><text x="840" y="186" font-size="14" fill="#1f2430" font-weight="bold" text-anchor="start">Documentos</text><text x="840" y="216" font-size="13" fill="#1f2430" font-weight="normal" text-anchor="start">📄 PDF original</text><text x="840" y="242" font-size="13" fill="#1f2430" font-weight="normal" text-anchor="start">📄 PDF padronizado</text><text x="840" y="268" font-size="13" fill="#1f2430" font-weight="normal" text-anchor="start">📄 PDF agrupado</text><text x="840" y="294" font-size="13" fill="#1f2430" font-weight="normal" text-anchor="start">📋 Romaneio R-220</text><rect x="820" y="322" width="356" height="250" rx="12" fill="#fff" stroke="#e6e6ee" stroke-width="1"/><text x="840" y="352" font-size="14" fill="#1f2430" font-weight="bold" text-anchor="start">Rolar fase</text><text x="840" y="382" font-size="11" fill="#7a8194" font-weight="normal" text-anchor="start">Próxima fase</text><rect x="840" y="390" width="316" height="34" rx="8" fill="#f7f5ff" stroke="#e6e6ee" stroke-width="1"/><text x="854" y="412" font-size="13" fill="#1f2430" font-weight="normal" text-anchor="start">Revisão ▶</text><text x="840" y="448" font-size="11" fill="#7a8194" font-weight="normal" text-anchor="start">Setor</text><rect x="840" y="456" width="316" height="34" rx="8" fill="#fff" stroke="#e6e6ee" stroke-width="1"/><text x="854" y="478" font-size="13" fill="#1f2430" font-weight="normal" text-anchor="start">Qualidade</text><rect x="840" y="510" width="316" height="44" rx="9" fill="#6d28d9"/><text x="998" y="538" font-size="14" fill="#fff" font-weight="bold" text-anchor="middle">🔒 Rolar Fase</text></svg>