<svg xmlns="http://www.w3.org/2000/svg" width="1200" height="780" viewBox="0 0 1200 780" font-family="Segoe UI, Arial, sans-serif"><rect x="0" y="0" width="1200" height="780" rx="0" fill="#f4f4f7"/><rect x="0" y="0" width="1200" height="54" rx="0" fill="#4c1d95"/><text x="20" y="33" font-size="17" fill="#fff" font-weight="bold" text-anchor="start">🧶 BIG TRICOT</text><rect x="176" y="16" width="128" height="22" rx="11" fill="#ffffff22"/><text x="188" y="31" font-size="12" fill="#fff" font-weight="normal" text-anchor="start">Rolagem de Fase</text><text x="1176" y="33" font-size="13" fill="#fff" font-weight="normal" text-anchor="end">João (Supervisor) ▾</text><rect x="0" y="54" width="220" height="800" rx="0" fill="#1b1530"/><text x="20" y="90" font-size="14" fill="#fff" font-weight="bold" text-anchor="start">🧶 Big Tricot</text><text x="20" y="120" font-size="13" fill="#cfc8e6" font-weight="normal" text-anchor="start">📊 Início</text><text x="20" y="154" font-size="13" fill="#cfc8e6" font-weight="normal" text-anchor="start">📦 Pedidos</text><text x="20" y="188" font-size="13" fill="#cfc8e6" font-weight="normal" text-anchor="start">🏭 Ordens de Produção</text><text x="20" y="222" font-size="13" fill="#cfc8e6" font-weight="normal" text-anchor="start">📋 Romaneios</text><text x="20" y="256" font-size="13" fill="#cfc8e6" font-weight="normal" text-anchor="start">🧵 Costureiras</text><rect x="0" y="268" width="220" height="34" rx="0" fill="#8b5cf633"/><rect x="0" y="268" width="3" height="34" rx="0" fill="#8b5cf6"/><text x="20" y="290" font-size="13" fill="#fff" font-weight="normal" text-anchor="start">🗃️ Almoxarifado</text><text x="20" y="324" font-size="13" fill="#cfc8e6" font-weight="normal" text-anchor="start">🚚 Motoristas</text><text x="20" y="358" font-size="13" fill="#cfc8e6" font-weight="normal" text-anchor="start">📈 Relatórios</text><text x="20" y="392" font-size="13" fill="#cfc8e6" font-weight="normal" text-anchor="start">⚙️ Configurações</text><text x="244" y="92" font-size="20" fill="#1f2430" font-weight="bold" text-anchor="start">Almoxarifado</text><rect x="900" y="0" width="0" height="0" rx="0" fill="#fff"/><rect x="900" y="0" width="0" height="0" rx="0" fill="#fff"/><rect x="900" y="0" width="0" height="0" rx="0" fill="#fff"/><rect x="860" y="68" width="76" height="34" rx="9" fill="#fff" stroke="#6d28d9" stroke-width="1"/><text x="898.0" y="90" font-size="12.5" fill="#6d28d9" font-weight="bold" text-anchor="middle">Entrada</text><rect x="944" y="68" width="60" height="34" rx="9" fill="#fff" stroke="#6d28d9" stroke-width="1"/><text x="974.0" y="90" font-size="12.5" fill="#6d28d9" font-weight="bold" text-anchor="middle">Saída</text><rect x="1012" y="68" width="84" height="34" rx="9" fill="#fff" stroke="#6d28d9" stroke-width="1"/><text x="1054.0" y="90" font-size="12.5" fill="#6d28d9" font-weight="bold" text-anchor="middle">🔒 Ajuste</text><rect x="244" y="120" width="932" height="400" rx="12" fill="#fff" stroke="#e6e6ee" stroke-width="1"/><text x="262" y="154" font-size="11" fill="#7a8194" font-weight="bold" text-anchor="start">MATERIAL</text><text x="462" y="154" font-size="11" fill="#7a8194" font-weight="bold" text-anchor="start">CATEGORIA</text><text x="622" y="154" font-size="11" fill="#7a8194" font-weight="bold" text-anchor="start">ESTOQUE</text><text x="732" y="154" font-size="11" fill="#7a8194" font-weight="bold" text-anchor="start">MÍNIMO</text><text x="842" y="154" font-size="11" fill="#7a8194" font-weight="bold" text-anchor="start">STATUS</text><line x1="260" y1="164" x2="1160" y2="164" stroke="#e6e6ee" stroke-width="1"/><text x="262" y="198.0" font-size="13" fill="#1f2430" font-weight="normal" text-anchor="start">Fio Algodão</text><text x="462" y="198.0" font-size="13" fill="#1f2430" font-weight="normal" text-anchor="start">Matéria-prima</text><text x="622" y="198.0" font-size="13" fill="#1f2430" font-weight="normal" text-anchor="start">45 kg</text><text x="732" y="198.0" font-size="13" fill="#1f2430" font-weight="normal" text-anchor="start">50 kg</text><rect x="842" y="183.0" width="116.4" height="20" rx="10.0" fill="#fee2e2"/><text x="851" y="197.0" font-size="11" fill="#b91c1c" font-weight="normal" text-anchor="start">● Abaixo do mínimo</text><line x1="260" y1="222" x2="1160" y2="222" stroke="#f0f0f5" stroke-width="1"/><text x="262" y="256.0" font-size="13" fill="#1f2430" font-weight="normal" text-anchor="start">Linha Preta</text><text x="462" y="256.0" font-size="13" fill="#1f2430" font-weight="normal" text-anchor="start">Aviamento</text><text x="622" y="256.0" font-size="13" fill="#1f2430" font-weight="normal" text-anchor="start">320 un</text><text x="732" y="256.0" font-size="13" fill="#1f2430" font-weight="normal" text-anchor="start">100 un</text><rect x="842" y="241.0" width="26.8" height="20" rx="10.0" fill="#dcfce7"/><text x="851" y="255.0" font-size="11" fill="#15803d" font-weight="normal" text-anchor="start">● OK</text><line x1="260" y1="280" x2="1160" y2="280" stroke="#f0f0f5" stroke-width="1"/><text x="262" y="314.0" font-size="13" fill="#1f2430" font-weight="normal" text-anchor="start">Etiqueta BT</text><text x="462" y="314.0" font-size="13" fill="#1f2430" font-weight="normal" text-anchor="start">Embalagem</text><text x="622" y="314.0" font-size="13" fill="#1f2430" font-weight="normal" text-anchor="start">1.200 un</text><text x="732" y="314.0" font-size="13" fill="#1f2430" font-weight="normal" text-anchor="start">500 un</text><rect x="842" y="299.0" width="26.8" height="20" rx="10.0" fill="#dcfce7"/><text x="851" y="313.0" font-size="11" fill="#15803d" font-weight="normal" text-anchor="start">● OK</text><line x1="260" y1="338" x2="1160" y2="338" stroke="#f0f0f5" stroke-width="1"/><text x="262" y="372.0" font-size="13" fill="#1f2430" font-weight="normal" text-anchor="start">Botão Madrepérola</text><text x="462" y="372.0" font-size="13" fill="#1f2430" font-weight="normal" text-anchor="start">Aviamento</text><text x="622" y="372.0" font-size="13" fill="#1f2430" font-weight="normal" text-anchor="start">80 un</text><text x="732" y="372.0" font-size="13" fill="#1f2430" font-weight="normal" text-anchor="start">200 un</text><rect x="842" y="357.0" width="116.4" height="20" rx="10.0" fill="#fee2e2"/><text x="851" y="371.0" font-size="11" fill="#b91c1c" font-weight="normal" text-anchor="start">● Abaixo do mínimo</text><line x1="260" y1="396" x2="1160" y2="396" stroke="#f0f0f5" stroke-width="1"/><text x="262" y="430.0" font-size="13" fill="#1f2430" font-weight="normal" text-anchor="start">Fio Lã Merino</text><text x="462" y="430.0" font-size="13" fill="#1f2430" font-weight="normal" text-anchor="start">Matéria-prima</text><text x="622" y="430.0" font-size="13" fill="#1f2430" font-weight="normal" text-anchor="start">130 kg</text><text x="732" y="430.0" font-size="13" fill="#1f2430" font-weight="normal" text-anchor="start">60 kg</text><rect x="842" y="415.0" width="26.8" height="20" rx="10.0" fill="#dcfce7"/><text x="851" y="429.0" font-size="11" fill="#15803d" font-weight="normal" text-anchor="start">● OK</text><line x1="260" y1="454" x2="1160" y2="454" stroke="#f0f0f5" stroke-width="1"/><text x="262" y="488.0" font-size="13" fill="#1f2430" font-weight="normal" text-anchor="start">Zíper 20cm</text><text x="462" y="488.0" font-size="13" fill="#1f2430" font-weight="normal" text-anchor="start">Aviamento</text><text x="622" y="488.0" font-size="13" fill="#1f2430" font-weight="normal" text-anchor="start">210 un</text><text x="732" y="488.0" font-size="13" fill="#1f2430" font-weight="normal" text-anchor="start">150 un</text><rect x="842" y="473.0" width="58.800000000000004" height="20" rx="10.0" fill="#fef3c7"/><text x="851" y="487.0" font-size="11" fill="#b45309" font-weight="normal" text-anchor="start">● Atenção</text><line x1="260" y1="512" x2="1160" y2="512" stroke="#f0f0f5" stroke-width="1"/><text x="244" y="560" font-size="12" fill="#7a8194" font-weight="normal" text-anchor="start">Toda entrada/saída/ajuste é registrada na auditoria. Materiais abaixo do mínimo geram alerta automático.</text></svg>