<svg xmlns="http://www.w3.org/2000/svg" width="2240" height="960" viewBox="0 0 2240 960" font-family="Inter, Segoe UI, Helvetica, Arial, sans-serif"><defs><linearGradient id="g_p1" x1="0" y1="0" x2="1" y2="0"><stop offset="0" stop-color="#4338ca"/><stop offset="1" stop-color="#6366f1"/></linearGradient><linearGradient id="g_p2" x1="0" y1="0" x2="1" y2="0"><stop offset="0" stop-color="#7c3aed"/><stop offset="1" stop-color="#c026d3"/></linearGradient><linearGradient id="g_kit" x1="0" y1="0" x2="1" y2="0"><stop offset="0" stop-color="#0891b2"/><stop offset="1" stop-color="#06b6d4"/></linearGradient><linearGradient id="g_uni" x1="0" y1="0" x2="1" y2="0"><stop offset="0" stop-color="#475569"/><stop offset="1" stop-color="#64748b"/></linearGradient><linearGradient id="g_brand" x1="0" y1="0" x2="1" y2="0"><stop offset="0" stop-color="#4f46e5"/><stop offset="1" stop-color="#7c3aed"/></linearGradient><filter id="cardShadow" x="-30%" y="-30%" width="160%" height="160%"><feDropShadow dx="0" dy="2" stdDeviation="5" flood-color="#0f172a" flood-opacity="0.10"/></filter></defs><rect x="0" y="0" width="2240" height="960" rx="0" fill="#f6f7f9"/><rect x="0" y="0" width="2240" height="60" rx="0" fill="url(#g_brand)"/><text x="28" y="38" font-size="18" fill="#fff" font-weight="bold" text-anchor="start" letter-spacing="0.5">BIG TRICOT</text><circle cx="150" cy="30" r="3" fill="#c7d2fe"/><text x="168" y="38" font-size="13" fill="#e0e7ff" font-weight="normal" text-anchor="start">Rolagem de Fase</text><rect x="1770" y="16" width="250" height="28" rx="14" fill="#ffffff26"/><text x="1788" y="34" font-size="12" fill="#e0e7ff" font-weight="normal" text-anchor="start">🔎  Buscar OP, cliente, kit…</text><text x="2040" y="38" font-size="13" fill="#fff" font-weight="normal" text-anchor="end">Pedro Lima</text><circle cx="2064" cy="30" r="15" fill="#a78bfa"/><text x="2064" y="35.25" font-size="12.0" fill="#fff" font-weight="bold" text-anchor="middle">PL</text><rect x="0" y="60" width="230" height="900" rx="0" fill="#0f1629"/><text x="26" y="98" font-size="15" fill="#fff" font-weight="bold" text-anchor="start">Big Tricot</text><text x="26" y="118" font-size="10.5" fill="#5b6478" font-weight="normal" text-anchor="start" letter-spacing="1">Produção</text><text x="34" y="153" font-size="13" fill="#7b8499" font-weight="normal" text-anchor="start">◧</text><text x="58" y="153" font-size="13.5" fill="#aeb6c7" font-weight="normal" text-anchor="start">Visão geral</text><rect x="14" y="172" width="202" height="38" rx="10" fill="#6366f11f"/><rect x="14" y="172" width="3" height="38" rx="2" fill="#818cf8"/><text x="34" y="197" font-size="13" fill="#c7d2fe" font-weight="normal" text-anchor="start">🧶</text><text x="58" y="197" font-size="13.5" fill="#fff" font-weight="bold" text-anchor="start">Tecelagem</text><text x="34" y="241" font-size="13" fill="#7b8499" font-weight="normal" text-anchor="start">📥</text><text x="58" y="241" font-size="13.5" fill="#aeb6c7" font-weight="normal" text-anchor="start">Fila de entrada</text><text x="34" y="285" font-size="13" fill="#7b8499" font-weight="normal" text-anchor="start">✅</text><text x="58" y="285" font-size="13.5" fill="#aeb6c7" font-weight="normal" text-anchor="start">Tecidos</text><text x="34" y="329" font-size="13" fill="#7b8499" font-weight="normal" text-anchor="start">🧵</text><text x="58" y="329" font-size="13.5" fill="#aeb6c7" font-weight="normal" text-anchor="start">Máquinas</text><text x="34" y="373" font-size="13" fill="#7b8499" font-weight="normal" text-anchor="start">📊</text><text x="58" y="373" font-size="13.5" fill="#aeb6c7" font-weight="normal" text-anchor="start">Desempenho</text><text x="34" y="417" font-size="13" fill="#7b8499" font-weight="normal" text-anchor="start">⚙</text><text x="58" y="417" font-size="13.5" fill="#aeb6c7" font-weight="normal" text-anchor="start">Configurações</text><text x="26" y="810" font-size="10" fill="#5b6478" font-weight="bold" text-anchor="start" letter-spacing="1">TIPOS</text><rect x="26" y="821" width="16" height="16" rx="4" fill="url(#g_p1)"/><text x="50" y="833" font-size="12" fill="#aeb6c7" font-weight="normal" text-anchor="start">Parte 1</text><rect x="26" y="847" width="16" height="16" rx="4" fill="url(#g_p2)"/><text x="50" y="859" font-size="12" fill="#aeb6c7" font-weight="normal" text-anchor="start">Parte 2</text><rect x="26" y="873" width="16" height="16" rx="4" fill="url(#g_kit)"/><text x="50" y="885" font-size="12" fill="#aeb6c7" font-weight="normal" text-anchor="start">Kit</text><rect x="26" y="899" width="16" height="16" rx="4" fill="url(#g_uni)"/><text x="50" y="911" font-size="12" fill="#aeb6c7" font-weight="normal" text-anchor="start">Único</text><text x="258" y="96" font-size="24" fill="#0f172a" font-weight="bold" text-anchor="start">Tecelagem</text><text x="258" y="118" font-size="12" fill="#94a3b8" font-weight="normal" text-anchor="start">Produção  ›  Tecelagem</text><rect x="1868" y="80" width="150" height="34" rx="9" fill="#fff" stroke="#e5e7eb" stroke-width="1" filter="url(#cardShadow)"/><rect x="1872" y="84" width="72" height="26" rx="7" fill="url(#g_brand)"/><text x="1908" y="101" font-size="12" fill="#fff" font-weight="bold" text-anchor="middle">▦ Quadro</text><text x="1982" y="101" font-size="12" fill="#6b7280" font-weight="normal" text-anchor="middle">☰ Lista</text><rect x="2032" y="80" width="120" height="34" rx="9" fill="#fff" stroke="#e5e7eb" stroke-width="1" filter="url(#cardShadow)"/><text x="2092" y="101" font-size="12.5" fill="#374151" font-weight="bold" text-anchor="middle">⚙  Filtros</text><rect x="258" y="138" width="210" height="62" rx="14" fill="#fff" stroke="#eef0f4" stroke-width="1" filter="url(#cardShadow)"/><rect x="258" y="152" width="4" height="34" rx="2" fill="#f59e0b"/><text x="278" y="170" font-size="22" fill="#0f172a" font-weight="bold" text-anchor="start">7</text><text x="278" y="189" font-size="11.5" fill="#64748b" font-weight="normal" text-anchor="start">Aguardando</text><rect x="480" y="138" width="210" height="62" rx="14" fill="#fff" stroke="#eef0f4" stroke-width="1" filter="url(#cardShadow)"/><rect x="480" y="152" width="4" height="34" rx="2" fill="#10b981"/><text x="500" y="170" font-size="22" fill="#0f172a" font-weight="bold" text-anchor="start">3</text><text x="500" y="189" font-size="11.5" fill="#64748b" font-weight="normal" text-anchor="start">Tecendo</text><rect x="702" y="138" width="210" height="62" rx="14" fill="#fff" stroke="#eef0f4" stroke-width="1" filter="url(#cardShadow)"/><rect x="702" y="152" width="4" height="34" rx="2" fill="#3b82f6"/><text x="722" y="170" font-size="22" fill="#0f172a" font-weight="bold" text-anchor="start">2</text><text x="722" y="189" font-size="11.5" fill="#64748b" font-weight="normal" text-anchor="start">Tecidos hoje</text><rect x="924" y="138" width="210" height="62" rx="14" fill="#fff" stroke="#eef0f4" stroke-width="1" filter="url(#cardShadow)"/><rect x="924" y="152" width="4" height="34" rx="2" fill="#6366f1"/><text x="944" y="170" font-size="22" fill="#0f172a" font-weight="bold" text-anchor="start">90%</text><text x="944" y="189" font-size="11.5" fill="#64748b" font-weight="normal" text-anchor="start">No prazo</text><rect x="1146" y="138" width="210" height="62" rx="14" fill="#fff" stroke="#eef0f4" stroke-width="1" filter="url(#cardShadow)"/><rect x="1146" y="152" width="4" height="34" rx="2" fill="#8b5cf6"/><text x="1166" y="170" font-size="22" fill="#0f172a" font-weight="bold" text-anchor="start">6 / 8</text><text x="1166" y="189" font-size="11.5" fill="#64748b" font-weight="normal" text-anchor="start">Máquinas ativas</text><rect x="258" y="212" width="1958" height="70" rx="14" fill="#fff" stroke="#eef0f4" stroke-width="1" filter="url(#cardShadow)"/><text x="276" y="236" font-size="10" fill="#94a3b8" font-weight="bold" text-anchor="start" letter-spacing="0.8">MÁQUINAS</text><rect x="276" y="250" width="222" height="20" rx="8" fill="#f5f6fa"/><circle cx="288" cy="260" r="5" fill="#cbd5e1"/><text x="300" y="264" font-size="10.5" fill="#334155" font-weight="normal" text-anchor="start">Máq 1 · livre</text><rect x="500" y="250" width="222" height="20" rx="8" fill="#f5f6fa"/><circle cx="512" cy="260" r="5" fill="#22c55e"/><text x="524" y="264" font-size="10.5" fill="#334155" font-weight="normal" text-anchor="start">Máq 2 · OP-1015</text><rect x="724" y="250" width="222" height="20" rx="8" fill="#eef0ff"/><circle cx="736" cy="260" r="5" fill="#6366f1"/><text x="748" y="264" font-size="10.5" fill="#334155" font-weight="bold" text-anchor="start">Máq 3 · Parte 1 · OP-1010</text><rect x="948" y="250" width="222" height="20" rx="8" fill="#f5f6fa"/><circle cx="960" cy="260" r="5" fill="#ef4444"/><text x="972" y="264" font-size="10.5" fill="#334155" font-weight="normal" text-anchor="start">Máq 4 · manutenção</text><rect x="1172" y="250" width="222" height="20" rx="8" fill="#f5f6fa"/><circle cx="1184" cy="260" r="5" fill="#22c55e"/><text x="1196" y="264" font-size="10.5" fill="#334155" font-weight="normal" text-anchor="start">Máq 5 · KIT-1009</text><rect x="1396" y="250" width="222" height="20" rx="8" fill="#f5f6fa"/><circle cx="1408" cy="260" r="5" fill="#22c55e"/><text x="1420" y="264" font-size="10.5" fill="#334155" font-weight="normal" text-anchor="start">Máq 6 · OP-1040</text><rect x="1620" y="250" width="222" height="20" rx="8" fill="#eef0ff"/><circle cx="1632" cy="260" r="5" fill="#a855f7"/><text x="1644" y="264" font-size="10.5" fill="#334155" font-weight="bold" text-anchor="start">Máq 7 · Parte 2 · OP-1015</text><rect x="1844" y="250" width="222" height="20" rx="8" fill="#f5f6fa"/><circle cx="1856" cy="260" r="5" fill="#f59e0b"/><text x="1868" y="264" font-size="10.5" fill="#334155" font-weight="normal" text-anchor="start">Máq 8 · setup</text><rect x="258" y="298" width="304" height="632" rx="16" fill="#f1f3f7"/><rect x="258" y="298" width="304" height="52" rx="16" fill="#fff8ee"/><rect x="258" y="334" width="304" height="16" rx="0" fill="#fff8ee"/><circle cx="278" cy="324" r="5" fill="#f59e0b"/><text x="292" y="322" font-size="12.5" fill="#b45309" font-weight="bold" text-anchor="start">Aguardando</text><text x="292" y="338" font-size="11" fill="#b45309" font-weight="bold" text-anchor="start">Máquina 3</text><rect x="522" y="313" width="26" height="22" rx="11" fill="#ffffffcc"/><text x="535" y="328" font-size="12" fill="#b45309" font-weight="bold" text-anchor="middle">2</text><rect x="270" y="364" width="280" height="184" rx="16" fill="#ffffff" stroke="#eef0f4" stroke-width="1" filter="url(#cardShadow)"/><rect x="270" y="364" width="280" height="40" rx="16" fill="url(#g_p1)"/><rect x="270" y="388" width="280" height="16" rx="0" fill="url(#g_p1)"/><text x="286" y="389" font-size="13" fill="#fff" font-weight="bold" text-anchor="start" letter-spacing="0.4">OP-1042</text><rect x="473.8" y="375" width="60.199999999999996" height="18" rx="9" fill="#ffffff33"/><text x="503.9" y="388" font-size="10" fill="#fff" font-weight="bold" text-anchor="middle" letter-spacing="0.5">PARTE 1</text><text x="286" y="432" font-size="15.5" fill="#0f172a" font-weight="bold" text-anchor="start">Loja K</text><rect x="450.0" y="418" width="84.0" height="20" rx="10" fill="#fff8ee"/><circle cx="462.0" cy="428" r="3" fill="#f59e0b"/><text x="471.0" y="431.5" font-size="10" fill="#b45309" font-weight="bold" text-anchor="start">Aguardando</text><text x="286" y="451" font-size="11.5" fill="#64748b" font-weight="normal" text-anchor="start">Blusa · BT12 · 150 pç</text><rect x="286" y="462" width="119.0" height="42" rx="10" fill="#f5f3ff" stroke="#e9e3ff" stroke-width="1"/><text x="298" y="478" font-size="8" fill="#7c3aed" font-weight="bold" text-anchor="start" letter-spacing="0.6">PEDIDO</text><text x="298" y="495" font-size="13" fill="#4c1d95" font-weight="bold" text-anchor="start">14/06</text><rect x="415.0" y="462" width="119.0" height="42" rx="10" fill="#fff1f2" stroke="#fde0e3" stroke-width="1"/><text x="427.0" y="478" font-size="8" fill="#e11d48" font-weight="bold" text-anchor="start" letter-spacing="0.6">ENTREGA</text><text x="427.0" y="495" font-size="13" fill="#be123c" font-weight="bold" text-anchor="start">22/06</text><text x="286" y="536" font-size="10" fill="#94a3b8" font-weight="normal" text-anchor="start">toque p/ detalhes</text><rect x="472.0" y="520" width="62.0" height="24" rx="8" fill="#10b981"/><text x="503.0" y="536" font-size="11.5" fill="#fff" font-weight="bold" text-anchor="middle">Tecer</text><rect x="270" y="562" width="280" height="184" rx="16" fill="#ffffff" stroke="#eef0f4" stroke-width="1" filter="url(#cardShadow)"/><rect x="270" y="562" width="280" height="40" rx="16" fill="url(#g_p1)"/><rect x="270" y="586" width="280" height="16" rx="0" fill="url(#g_p1)"/><text x="286" y="587" font-size="13" fill="#fff" font-weight="bold" text-anchor="start" letter-spacing="0.4">OP-1050</text><rect x="473.8" y="573" width="60.199999999999996" height="18" rx="9" fill="#ffffff33"/><text x="503.9" y="586" font-size="10" fill="#fff" font-weight="bold" text-anchor="middle" letter-spacing="0.5">PARTE 1</text><text x="286" y="630" font-size="15.5" fill="#0f172a" font-weight="bold" text-anchor="start">Loja T</text><rect x="450.0" y="616" width="84.0" height="20" rx="10" fill="#fff8ee"/><circle cx="462.0" cy="626" r="3" fill="#f59e0b"/><text x="471.0" y="629.5" font-size="10" fill="#b45309" font-weight="bold" text-anchor="start">Aguardando</text><text x="286" y="649" font-size="11.5" fill="#64748b" font-weight="normal" text-anchor="start">Gola · GL02 · 80 pç</text><rect x="286" y="660" width="119.0" height="42" rx="10" fill="#f5f3ff" stroke="#e9e3ff" stroke-width="1"/><text x="298" y="676" font-size="8" fill="#7c3aed" font-weight="bold" text-anchor="start" letter-spacing="0.6">PEDIDO</text><text x="298" y="693" font-size="13" fill="#4c1d95" font-weight="bold" text-anchor="start">18/06</text><rect x="415.0" y="660" width="119.0" height="42" rx="10" fill="#fff1f2" stroke="#fde0e3" stroke-width="1"/><text x="427.0" y="676" font-size="8" fill="#e11d48" font-weight="bold" text-anchor="start" letter-spacing="0.6">ENTREGA</text><text x="427.0" y="693" font-size="13" fill="#be123c" font-weight="bold" text-anchor="start">26/06</text><text x="286" y="734" font-size="10" fill="#94a3b8" font-weight="normal" text-anchor="start">toque p/ detalhes</text><rect x="472.0" y="718" width="62.0" height="24" rx="8" fill="#10b981"/><text x="503.0" y="734" font-size="11.5" fill="#fff" font-weight="bold" text-anchor="middle">Tecer</text><rect x="578" y="298" width="304" height="632" rx="16" fill="#f1f3f7"/><rect x="578" y="298" width="304" height="52" rx="16" fill="#fff3ea"/><rect x="578" y="334" width="304" height="16" rx="0" fill="#fff3ea"/><circle cx="598" cy="324" r="5" fill="#f97316"/><text x="612" y="322" font-size="12.5" fill="#c2410c" font-weight="bold" text-anchor="start">Aguardando</text><text x="612" y="338" font-size="11" fill="#c2410c" font-weight="bold" text-anchor="start">Máquina 7</text><rect x="842" y="313" width="26" height="22" rx="11" fill="#ffffffcc"/><text x="855" y="328" font-size="12" fill="#c2410c" font-weight="bold" text-anchor="middle">2</text><rect x="590" y="364" width="280" height="184" rx="16" fill="#ffffff" stroke="#eef0f4" stroke-width="1" filter="url(#cardShadow)"/><rect x="590" y="364" width="280" height="40" rx="16" fill="url(#g_p2)"/><rect x="590" y="388" width="280" height="16" rx="0" fill="url(#g_p2)"/><text x="606" y="389" font-size="13" fill="#fff" font-weight="bold" text-anchor="start" letter-spacing="0.4">OP-1042</text><rect x="793.8" y="375" width="60.199999999999996" height="18" rx="9" fill="#ffffff33"/><text x="823.9" y="388" font-size="10" fill="#fff" font-weight="bold" text-anchor="middle" letter-spacing="0.5">PARTE 2</text><text x="606" y="432" font-size="15.5" fill="#0f172a" font-weight="bold" text-anchor="start">Loja K</text><rect x="770.0" y="418" width="84.0" height="20" rx="10" fill="#fff3ea"/><circle cx="782.0" cy="428" r="3" fill="#f97316"/><text x="791.0" y="431.5" font-size="10" fill="#c2410c" font-weight="bold" text-anchor="start">Aguardando</text><text x="606" y="451" font-size="11.5" fill="#64748b" font-weight="normal" text-anchor="start">Blusa · BT12 · 150 pç</text><rect x="606" y="462" width="119.0" height="42" rx="10" fill="#f5f3ff" stroke="#e9e3ff" stroke-width="1"/><text x="618" y="478" font-size="8" fill="#7c3aed" font-weight="bold" text-anchor="start" letter-spacing="0.6">PEDIDO</text><text x="618" y="495" font-size="13" fill="#4c1d95" font-weight="bold" text-anchor="start">14/06</text><rect x="735.0" y="462" width="119.0" height="42" rx="10" fill="#fff1f2" stroke="#fde0e3" stroke-width="1"/><text x="747.0" y="478" font-size="8" fill="#e11d48" font-weight="bold" text-anchor="start" letter-spacing="0.6">ENTREGA</text><text x="747.0" y="495" font-size="13" fill="#be123c" font-weight="bold" text-anchor="start">22/06</text><text x="606" y="536" font-size="10" fill="#94a3b8" font-weight="normal" text-anchor="start">toque p/ detalhes</text><rect x="792.0" y="520" width="62.0" height="24" rx="8" fill="#10b981"/><text x="823.0" y="536" font-size="11.5" fill="#fff" font-weight="bold" text-anchor="middle">Tecer</text><rect x="590" y="562" width="280" height="184" rx="16" fill="#ffffff" stroke="#eef0f4" stroke-width="1" filter="url(#cardShadow)"/><rect x="590" y="562" width="280" height="40" rx="16" fill="url(#g_p2)"/><rect x="590" y="586" width="280" height="16" rx="0" fill="url(#g_p2)"/><text x="606" y="587" font-size="13" fill="#fff" font-weight="bold" text-anchor="start" letter-spacing="0.4">OP-1033</text><rect x="793.8" y="573" width="60.199999999999996" height="18" rx="9" fill="#ffffff33"/><text x="823.9" y="586" font-size="10" fill="#fff" font-weight="bold" text-anchor="middle" letter-spacing="0.5">PARTE 2</text><text x="606" y="630" font-size="15.5" fill="#0f172a" font-weight="bold" text-anchor="start">Loja G</text><rect x="770.0" y="616" width="84.0" height="20" rx="10" fill="#fff3ea"/><circle cx="782.0" cy="626" r="3" fill="#f97316"/><text x="791.0" y="629.5" font-size="10" fill="#c2410c" font-weight="bold" text-anchor="start">Aguardando</text><text x="606" y="649" font-size="11.5" fill="#64748b" font-weight="normal" text-anchor="start">Colete · CV03 · 60 pç</text><rect x="606" y="660" width="119.0" height="42" rx="10" fill="#f5f3ff" stroke="#e9e3ff" stroke-width="1"/><text x="618" y="676" font-size="8" fill="#7c3aed" font-weight="bold" text-anchor="start" letter-spacing="0.6">PEDIDO</text><text x="618" y="693" font-size="13" fill="#4c1d95" font-weight="bold" text-anchor="start">18/06</text><rect x="735.0" y="660" width="119.0" height="42" rx="10" fill="#fff1f2" stroke="#fde0e3" stroke-width="1"/><text x="747.0" y="676" font-size="8" fill="#e11d48" font-weight="bold" text-anchor="start" letter-spacing="0.6">ENTREGA</text><text x="747.0" y="693" font-size="13" fill="#be123c" font-weight="bold" text-anchor="start">26/06</text><text x="606" y="734" font-size="10" fill="#94a3b8" font-weight="normal" text-anchor="start">toque p/ detalhes</text><rect x="792.0" y="718" width="62.0" height="24" rx="8" fill="#10b981"/><text x="823.0" y="734" font-size="11.5" fill="#fff" font-weight="bold" text-anchor="middle">Tecer</text><rect x="898" y="298" width="304" height="632" rx="16" fill="#f1f3f7"/><rect x="898" y="298" width="304" height="52" rx="16" fill="#fff8ee"/><rect x="898" y="334" width="304" height="16" rx="0" fill="#fff8ee"/><circle cx="918" cy="324" r="5" fill="#f59e0b"/><text x="932" y="322" font-size="12.5" fill="#b45309" font-weight="bold" text-anchor="start">Aguardando</text><text x="932" y="338" font-size="11" fill="#b45309" font-weight="bold" text-anchor="start">Fila de kits</text><rect x="1162" y="313" width="26" height="22" rx="11" fill="#ffffffcc"/><text x="1175" y="328" font-size="12" fill="#b45309" font-weight="bold" text-anchor="middle">2</text><rect x="910" y="364" width="280" height="184" rx="16" fill="#ffffff" stroke="#eef0f4" stroke-width="1" filter="url(#cardShadow)"/><rect x="910" y="364" width="280" height="40" rx="16" fill="url(#g_kit)"/><rect x="910" y="388" width="280" height="16" rx="0" fill="url(#g_kit)"/><text x="926" y="389" font-size="13" fill="#fff" font-weight="bold" text-anchor="start" letter-spacing="0.4">KIT-1031</text><rect x="1140.2" y="375" width="33.8" height="18" rx="9" fill="#ffffff33"/><text x="1157.1" y="388" font-size="10" fill="#fff" font-weight="bold" text-anchor="middle" letter-spacing="0.5">KIT</text><text x="926" y="432" font-size="15.5" fill="#0f172a" font-weight="bold" text-anchor="start">Malharia F</text><rect x="1090.0" y="418" width="84.0" height="20" rx="10" fill="#fff8ee"/><circle cx="1102.0" cy="428" r="3" fill="#f59e0b"/><text x="1111.0" y="431.5" font-size="10" fill="#b45309" font-weight="bold" text-anchor="start">Aguardando</text><text x="926" y="451" font-size="11.5" fill="#64748b" font-weight="normal" text-anchor="start">Casaco · CA09 · 80 pç</text><rect x="926" y="462" width="119.0" height="42" rx="10" fill="#f5f3ff" stroke="#e9e3ff" stroke-width="1"/><text x="938" y="478" font-size="8" fill="#7c3aed" font-weight="bold" text-anchor="start" letter-spacing="0.6">PEDIDO</text><text x="938" y="495" font-size="13" fill="#4c1d95" font-weight="bold" text-anchor="start">16/06</text><rect x="1055.0" y="462" width="119.0" height="42" rx="10" fill="#fff1f2" stroke="#fde0e3" stroke-width="1"/><text x="1067.0" y="478" font-size="8" fill="#e11d48" font-weight="bold" text-anchor="start" letter-spacing="0.6">ENTREGA</text><text x="1067.0" y="495" font-size="13" fill="#be123c" font-weight="bold" text-anchor="start">23/06</text><text x="926" y="536" font-size="10" fill="#94a3b8" font-weight="normal" text-anchor="start">toque p/ detalhes</text><rect x="1112.0" y="520" width="62.0" height="24" rx="8" fill="#10b981"/><text x="1143.0" y="536" font-size="11.5" fill="#fff" font-weight="bold" text-anchor="middle">Tecer</text><rect x="910" y="562" width="280" height="184" rx="16" fill="#ffffff" stroke="#eef0f4" stroke-width="1" filter="url(#cardShadow)"/><rect x="910" y="562" width="280" height="40" rx="16" fill="url(#g_kit)"/><rect x="910" y="586" width="280" height="16" rx="0" fill="url(#g_kit)"/><text x="926" y="587" font-size="13" fill="#fff" font-weight="bold" text-anchor="start" letter-spacing="0.4">KIT-1027</text><rect x="1140.2" y="573" width="33.8" height="18" rx="9" fill="#ffffff33"/><text x="1157.1" y="586" font-size="10" fill="#fff" font-weight="bold" text-anchor="middle" letter-spacing="0.5">KIT</text><text x="926" y="630" font-size="15.5" fill="#0f172a" font-weight="bold" text-anchor="start">Loja M</text><rect x="1090.0" y="616" width="84.0" height="20" rx="10" fill="#fff8ee"/><circle cx="1102.0" cy="626" r="3" fill="#f59e0b"/><text x="1111.0" y="629.5" font-size="10" fill="#b45309" font-weight="bold" text-anchor="start">Aguardando</text><text x="926" y="649" font-size="11.5" fill="#64748b" font-weight="normal" text-anchor="start">Blusa · BT12 · 150 pç</text><rect x="926" y="660" width="119.0" height="42" rx="10" fill="#f5f3ff" stroke="#e9e3ff" stroke-width="1"/><text x="938" y="676" font-size="8" fill="#7c3aed" font-weight="bold" text-anchor="start" letter-spacing="0.6">PEDIDO</text><text x="938" y="693" font-size="13" fill="#4c1d95" font-weight="bold" text-anchor="start">17/06</text><rect x="1055.0" y="660" width="119.0" height="42" rx="10" fill="#fff1f2" stroke="#fde0e3" stroke-width="1"/><text x="1067.0" y="676" font-size="8" fill="#e11d48" font-weight="bold" text-anchor="start" letter-spacing="0.6">ENTREGA</text><text x="1067.0" y="693" font-size="13" fill="#be123c" font-weight="bold" text-anchor="start">24/06</text><text x="926" y="734" font-size="10" fill="#94a3b8" font-weight="normal" text-anchor="start">toque p/ detalhes</text><rect x="1112.0" y="718" width="62.0" height="24" rx="8" fill="#10b981"/><text x="1143.0" y="734" font-size="11.5" fill="#fff" font-weight="bold" text-anchor="middle">Tecer</text><rect x="1218" y="298" width="304" height="632" rx="16" fill="#f1f3f7"/><rect x="1218" y="298" width="304" height="52" rx="16" fill="#edfcf4"/><rect x="1218" y="334" width="304" height="16" rx="0" fill="#edfcf4"/><circle cx="1238" cy="324" r="5" fill="#10b981"/><text x="1252" y="322" font-size="12.5" fill="#047857" font-weight="bold" text-anchor="start">Tecendo</text><text x="1252" y="338" font-size="11" fill="#047857" font-weight="bold" text-anchor="start">Em produção</text><rect x="1482" y="313" width="26" height="22" rx="11" fill="#ffffffcc"/><text x="1495" y="328" font-size="12" fill="#047857" font-weight="bold" text-anchor="middle">3</text><rect x="1230" y="364" width="280" height="184" rx="16" fill="#ffffff" stroke="#eef0f4" stroke-width="1" filter="url(#cardShadow)"/><rect x="1230" y="364" width="280" height="40" rx="16" fill="url(#g_p1)"/><rect x="1230" y="388" width="280" height="16" rx="0" fill="url(#g_p1)"/><text x="1246" y="389" font-size="13" fill="#fff" font-weight="bold" text-anchor="start" letter-spacing="0.4">OP-1010</text><rect x="1433.8" y="375" width="60.199999999999996" height="18" rx="9" fill="#ffffff33"/><text x="1463.9" y="388" font-size="10" fill="#fff" font-weight="bold" text-anchor="middle" letter-spacing="0.5">PARTE 1</text><text x="1246" y="432" font-size="15.5" fill="#0f172a" font-weight="bold" text-anchor="start">Cliente B</text><rect x="1428.0" y="418" width="66.0" height="20" rx="10" fill="#edfcf4"/><circle cx="1440.0" cy="428" r="3" fill="#10b981"/><text x="1449.0" y="431.5" font-size="10" fill="#047857" font-weight="bold" text-anchor="start">Tecendo</text><text x="1246" y="451" font-size="11.5" fill="#64748b" font-weight="normal" text-anchor="start">Suéter · SU11 · 120 pç</text><rect x="1246" y="462" width="119.0" height="42" rx="10" fill="#f5f3ff" stroke="#e9e3ff" stroke-width="1"/><text x="1258" y="478" font-size="8" fill="#7c3aed" font-weight="bold" text-anchor="start" letter-spacing="0.6">PEDIDO</text><text x="1258" y="495" font-size="13" fill="#4c1d95" font-weight="bold" text-anchor="start">13/06</text><rect x="1375.0" y="462" width="119.0" height="42" rx="10" fill="#fff1f2" stroke="#fde0e3" stroke-width="1"/><text x="1387.0" y="478" font-size="8" fill="#e11d48" font-weight="bold" text-anchor="start" letter-spacing="0.6">ENTREGA</text><text x="1387.0" y="495" font-size="13" fill="#be123c" font-weight="bold" text-anchor="start">25/06</text><text x="1246" y="536" font-size="10" fill="#94a3b8" font-weight="normal" text-anchor="start">Máq 3 · Pedro · ⏱ 3h</text><rect x="1403.2" y="520" width="90.8" height="24" rx="8" fill="#3b82f6"/><text x="1448.6" y="536" font-size="11.5" fill="#fff" font-weight="bold" text-anchor="middle">Finalizar</text><rect x="1230" y="562" width="280" height="184" rx="16" fill="#ffffff" stroke="#eef0f4" stroke-width="1" filter="url(#cardShadow)"/><rect x="1230" y="562" width="280" height="40" rx="16" fill="url(#g_p2)"/><rect x="1230" y="586" width="280" height="16" rx="0" fill="url(#g_p2)"/><text x="1246" y="587" font-size="13" fill="#fff" font-weight="bold" text-anchor="start" letter-spacing="0.4">OP-1015</text><rect x="1433.8" y="573" width="60.199999999999996" height="18" rx="9" fill="#ffffff33"/><text x="1463.9" y="586" font-size="10" fill="#fff" font-weight="bold" text-anchor="middle" letter-spacing="0.5">PARTE 2</text><text x="1246" y="630" font-size="15.5" fill="#0f172a" font-weight="bold" text-anchor="start">Loja W</text><rect x="1428.0" y="616" width="66.0" height="20" rx="10" fill="#edfcf4"/><circle cx="1440.0" cy="626" r="3" fill="#10b981"/><text x="1449.0" y="629.5" font-size="10" fill="#047857" font-weight="bold" text-anchor="start">Tecendo</text><text x="1246" y="649" font-size="11.5" fill="#64748b" font-weight="normal" text-anchor="start">Cardigã · CG04 · 100 pç</text><rect x="1246" y="660" width="119.0" height="42" rx="10" fill="#f5f3ff" stroke="#e9e3ff" stroke-width="1"/><text x="1258" y="676" font-size="8" fill="#7c3aed" font-weight="bold" text-anchor="start" letter-spacing="0.6">PEDIDO</text><text x="1258" y="693" font-size="13" fill="#4c1d95" font-weight="bold" text-anchor="start">15/06</text><rect x="1375.0" y="660" width="119.0" height="42" rx="10" fill="#fff1f2" stroke="#fde0e3" stroke-width="1"/><text x="1387.0" y="676" font-size="8" fill="#e11d48" font-weight="bold" text-anchor="start" letter-spacing="0.6">ENTREGA</text><text x="1387.0" y="693" font-size="13" fill="#be123c" font-weight="bold" text-anchor="start">27/06</text><text x="1246" y="734" font-size="10" fill="#94a3b8" font-weight="normal" text-anchor="start">Máq 7 · Ana · ⏱ 1h</text><rect x="1403.2" y="718" width="90.8" height="24" rx="8" fill="#3b82f6"/><text x="1448.6" y="734" font-size="11.5" fill="#fff" font-weight="bold" text-anchor="middle">Finalizar</text><rect x="1230" y="760" width="280" height="184" rx="16" fill="#ffffff" stroke="#eef0f4" stroke-width="1" filter="url(#cardShadow)"/><rect x="1230" y="760" width="280" height="40" rx="16" fill="url(#g_kit)"/><rect x="1230" y="784" width="280" height="16" rx="0" fill="url(#g_kit)"/><text x="1246" y="785" font-size="13" fill="#fff" font-weight="bold" text-anchor="start" letter-spacing="0.4">KIT-1009</text><rect x="1460.2" y="771" width="33.8" height="18" rx="9" fill="#ffffff33"/><text x="1477.1" y="784" font-size="10" fill="#fff" font-weight="bold" text-anchor="middle" letter-spacing="0.5">KIT</text><text x="1246" y="828" font-size="15.5" fill="#0f172a" font-weight="bold" text-anchor="start">Loja V</text><rect x="1428.0" y="814" width="66.0" height="20" rx="10" fill="#edfcf4"/><circle cx="1440.0" cy="824" r="3" fill="#10b981"/><text x="1449.0" y="827.5" font-size="10" fill="#047857" font-weight="bold" text-anchor="start">Tecendo</text><text x="1246" y="847" font-size="11.5" fill="#64748b" font-weight="normal" text-anchor="start">Touca · TC01 · 90 pç</text><rect x="1246" y="858" width="119.0" height="42" rx="10" fill="#f5f3ff" stroke="#e9e3ff" stroke-width="1"/><text x="1258" y="874" font-size="8" fill="#7c3aed" font-weight="bold" text-anchor="start" letter-spacing="0.6">PEDIDO</text><text x="1258" y="891" font-size="13" fill="#4c1d95" font-weight="bold" text-anchor="start">12/06</text><rect x="1375.0" y="858" width="119.0" height="42" rx="10" fill="#fff1f2" stroke="#fde0e3" stroke-width="1"/><text x="1387.0" y="874" font-size="8" fill="#e11d48" font-weight="bold" text-anchor="start" letter-spacing="0.6">ENTREGA</text><text x="1387.0" y="891" font-size="13" fill="#be123c" font-weight="bold" text-anchor="start">21/06</text><text x="1246" y="932" font-size="10" fill="#94a3b8" font-weight="normal" text-anchor="start">Máq 5 · Rita · ⏱ 2h</text><rect x="1403.2" y="916" width="90.8" height="24" rx="8" fill="#3b82f6"/><text x="1448.6" y="932" font-size="11.5" fill="#fff" font-weight="bold" text-anchor="middle">Finalizar</text><rect x="1538" y="298" width="304" height="632" rx="16" fill="#f1f3f7"/><rect x="1538" y="298" width="304" height="52" rx="16" fill="#eef4ff"/><rect x="1538" y="334" width="304" height="16" rx="0" fill="#eef4ff"/><circle cx="1558" cy="324" r="5" fill="#3b82f6"/><text x="1572" y="322" font-size="12.5" fill="#1d4ed8" font-weight="bold" text-anchor="start">Tecidos</text><text x="1572" y="338" font-size="11" fill="#1d4ed8" font-weight="bold" text-anchor="start">Partes prontas</text><rect x="1802" y="313" width="26" height="22" rx="11" fill="#ffffffcc"/><text x="1815" y="328" font-size="12" fill="#1d4ed8" font-weight="bold" text-anchor="middle">1</text><rect x="1550" y="364" width="280" height="184" rx="16" fill="#ffffff" stroke="#eef0f4" stroke-width="1" filter="url(#cardShadow)"/><rect x="1550" y="364" width="280" height="40" rx="16" fill="url(#g_p1)"/><rect x="1550" y="388" width="280" height="16" rx="0" fill="url(#g_p1)"/><text x="1566" y="389" font-size="13" fill="#fff" font-weight="bold" text-anchor="start" letter-spacing="0.4">OP-1002</text><rect x="1753.8" y="375" width="60.199999999999996" height="18" rx="9" fill="#ffffff33"/><text x="1783.9" y="388" font-size="10" fill="#fff" font-weight="bold" text-anchor="middle" letter-spacing="0.5">PARTE 1</text><text x="1566" y="432" font-size="15.5" fill="#0f172a" font-weight="bold" text-anchor="start">Loja A</text><rect x="1754.0" y="418" width="60.0" height="20" rx="10" fill="#eef4ff"/><circle cx="1766.0" cy="428" r="3" fill="#3b82f6"/><text x="1775.0" y="431.5" font-size="10" fill="#1d4ed8" font-weight="bold" text-anchor="start">Pronto</text><text x="1566" y="451" font-size="11.5" fill="#64748b" font-weight="normal" text-anchor="start">Blusa · BT12 · 60 pç</text><rect x="1566" y="462" width="119.0" height="42" rx="10" fill="#f5f3ff" stroke="#e9e3ff" stroke-width="1"/><text x="1578" y="478" font-size="8" fill="#7c3aed" font-weight="bold" text-anchor="start" letter-spacing="0.6">PEDIDO</text><text x="1578" y="495" font-size="13" fill="#4c1d95" font-weight="bold" text-anchor="start">11/06</text><rect x="1695.0" y="462" width="119.0" height="42" rx="10" fill="#fff1f2" stroke="#fde0e3" stroke-width="1"/><text x="1707.0" y="478" font-size="8" fill="#e11d48" font-weight="bold" text-anchor="start" letter-spacing="0.6">ENTREGA</text><text x="1707.0" y="495" font-size="13" fill="#be123c" font-weight="bold" text-anchor="start">22/06</text><text x="1566" y="536" font-size="10" fill="#94a3b8" font-weight="normal" text-anchor="start">pronto p/ Passadoria</text><rect x="1730.4" y="520" width="83.6" height="24" rx="8" fill="#6d28d9"/><text x="1772.2" y="536" font-size="11.5" fill="#fff" font-weight="bold" text-anchor="middle">Enviar ▶</text><rect x="1858" y="298" width="304" height="632" rx="16" fill="#f1f3f7"/><rect x="1858" y="298" width="304" height="52" rx="16" fill="#eef4ff"/><rect x="1858" y="334" width="304" height="16" rx="0" fill="#eef4ff"/><circle cx="1878" cy="324" r="5" fill="#3b82f6"/><text x="1892" y="322" font-size="12.5" fill="#1d4ed8" font-weight="bold" text-anchor="start">Tecidos</text><text x="1892" y="338" font-size="11" fill="#1d4ed8" font-weight="bold" text-anchor="start">Kits prontos</text><rect x="2122" y="313" width="26" height="22" rx="11" fill="#ffffffcc"/><text x="2135" y="328" font-size="12" fill="#1d4ed8" font-weight="bold" text-anchor="middle">1</text><rect x="1870" y="364" width="280" height="184" rx="16" fill="#ffffff" stroke="#eef0f4" stroke-width="1" filter="url(#cardShadow)"/><rect x="1870" y="364" width="280" height="40" rx="16" fill="url(#g_kit)"/><rect x="1870" y="388" width="280" height="16" rx="0" fill="url(#g_kit)"/><text x="1886" y="389" font-size="13" fill="#fff" font-weight="bold" text-anchor="start" letter-spacing="0.4">KIT-0995</text><rect x="2100.2" y="375" width="33.8" height="18" rx="9" fill="#ffffff33"/><text x="2117.1" y="388" font-size="10" fill="#fff" font-weight="bold" text-anchor="middle" letter-spacing="0.5">KIT</text><text x="1886" y="432" font-size="15.5" fill="#0f172a" font-weight="bold" text-anchor="start">Cliente B</text><rect x="2074.0" y="418" width="60.0" height="20" rx="10" fill="#eef4ff"/><circle cx="2086.0" cy="428" r="3" fill="#3b82f6"/><text x="2095.0" y="431.5" font-size="10" fill="#1d4ed8" font-weight="bold" text-anchor="start">Pronto</text><text x="1886" y="451" font-size="11.5" fill="#64748b" font-weight="normal" text-anchor="start">Cachecol · CC07 · 120 pç</text><rect x="1886" y="462" width="119.0" height="42" rx="10" fill="#f5f3ff" stroke="#e9e3ff" stroke-width="1"/><text x="1898" y="478" font-size="8" fill="#7c3aed" font-weight="bold" text-anchor="start" letter-spacing="0.6">PEDIDO</text><text x="1898" y="495" font-size="13" fill="#4c1d95" font-weight="bold" text-anchor="start">15/06</text><rect x="2015.0" y="462" width="119.0" height="42" rx="10" fill="#fff1f2" stroke="#fde0e3" stroke-width="1"/><text x="2027.0" y="478" font-size="8" fill="#e11d48" font-weight="bold" text-anchor="start" letter-spacing="0.6">ENTREGA</text><text x="2027.0" y="495" font-size="13" fill="#be123c" font-weight="bold" text-anchor="start">25/06</text><text x="1886" y="536" font-size="10" fill="#94a3b8" font-weight="normal" text-anchor="start">pronto p/ Passadoria</text><rect x="2050.4" y="520" width="83.6" height="24" rx="8" fill="#6d28d9"/><text x="2092.2" y="536" font-size="11.5" fill="#fff" font-weight="bold" text-anchor="middle">Enviar ▶</text><text x="258" y="948" font-size="11.5" fill="#94a3b8" font-weight="normal" text-anchor="start">Parte 1 (Máq 3) e Parte 2 (Máq 7) seguem separadas até o Corte · Kits separados. Clique no card p/ detalhes.</text></svg>