<svg xmlns="http://www.w3.org/2000/svg" width="2240" height="960" viewBox="0 0 2240 960" font-family="Inter, Segoe UI, Helvetica, Arial, sans-serif"><defs><linearGradient id="g_p1" x1="0" y1="0" x2="1" y2="0"><stop offset="0" stop-color="#4338ca"/><stop offset="1" stop-color="#6366f1"/></linearGradient><linearGradient id="g_p2" x1="0" y1="0" x2="1" y2="0"><stop offset="0" stop-color="#7c3aed"/><stop offset="1" stop-color="#c026d3"/></linearGradient><linearGradient id="g_kit" x1="0" y1="0" x2="1" y2="0"><stop offset="0" stop-color="#0891b2"/><stop offset="1" stop-color="#06b6d4"/></linearGradient><linearGradient id="g_uni" x1="0" y1="0" x2="1" y2="0"><stop offset="0" stop-color="#475569"/><stop offset="1" stop-color="#64748b"/></linearGradient><linearGradient id="g_brand" x1="0" y1="0" x2="1" y2="0"><stop offset="0" stop-color="#4f46e5"/><stop offset="1" stop-color="#7c3aed"/></linearGradient><filter id="cardShadow" x="-30%" y="-30%" width="160%" height="160%"><feDropShadow dx="0" dy="2" stdDeviation="5" flood-color="#0f172a" flood-opacity="0.10"/></filter></defs><rect x="0" y="0" width="2240" height="960" rx="0" fill="#f6f7f9"/><rect x="0" y="0" width="2240" height="60" rx="0" fill="url(#g_brand)"/><text x="28" y="38" font-size="18" fill="#fff" font-weight="bold" text-anchor="start" letter-spacing="0.5">BIG TRICOT</text><circle cx="150" cy="30" r="3" fill="#c7d2fe"/><text x="168" y="38" font-size="13" fill="#e0e7ff" font-weight="normal" text-anchor="start">Rolagem de Fase</text><rect x="1770" y="16" width="250" height="28" rx="14" fill="#ffffff26"/><text x="1788" y="34" font-size="12" fill="#e0e7ff" font-weight="normal" text-anchor="start">🔎  Buscar OP, cliente, kit…</text><text x="2040" y="38" font-size="13" fill="#fff" font-weight="normal" text-anchor="end">Carla Mendes</text><circle cx="2064" cy="30" r="15" fill="#a78bfa"/><text x="2064" y="35.25" font-size="12.0" fill="#fff" font-weight="bold" text-anchor="middle">CM</text><rect x="0" y="60" width="230" height="900" rx="0" fill="#0f1629"/><text x="26" y="98" font-size="15" fill="#fff" font-weight="bold" text-anchor="start">Big Tricot</text><text x="26" y="118" font-size="10.5" fill="#5b6478" font-weight="normal" text-anchor="start" letter-spacing="1">Produção</text><text x="34" y="153" font-size="13" fill="#7b8499" font-weight="normal" text-anchor="start">◧</text><text x="58" y="153" font-size="13.5" fill="#aeb6c7" font-weight="normal" text-anchor="start">Visão geral</text><rect x="14" y="172" width="202" height="38" rx="10" fill="#6366f11f"/><rect x="14" y="172" width="3" height="38" rx="2" fill="#818cf8"/><text x="34" y="197" font-size="13" fill="#c7d2fe" font-weight="normal" text-anchor="start">🔥</text><text x="58" y="197" font-size="13.5" fill="#fff" font-weight="bold" text-anchor="start">Passadoria</text><text x="34" y="241" font-size="13" fill="#7b8499" font-weight="normal" text-anchor="start">📥</text><text x="58" y="241" font-size="13.5" fill="#aeb6c7" font-weight="normal" text-anchor="start">Fila de entrada</text><text x="34" y="285" font-size="13" fill="#7b8499" font-weight="normal" text-anchor="start">✅</text><text x="58" y="285" font-size="13.5" fill="#aeb6c7" font-weight="normal" text-anchor="start">Finalizados</text><text x="34" y="329" font-size="13" fill="#7b8499" font-weight="normal" text-anchor="start">👥</text><text x="58" y="329" font-size="13.5" fill="#aeb6c7" font-weight="normal" text-anchor="start">Passadeiras</text><text x="34" y="373" font-size="13" fill="#7b8499" font-weight="normal" text-anchor="start">📊</text><text x="58" y="373" font-size="13.5" fill="#aeb6c7" font-weight="normal" text-anchor="start">Desempenho</text><text x="34" y="417" font-size="13" fill="#7b8499" font-weight="normal" text-anchor="start">⚙</text><text x="58" y="417" font-size="13.5" fill="#aeb6c7" font-weight="normal" text-anchor="start">Configurações</text><text x="26" y="810" font-size="10" fill="#5b6478" font-weight="bold" text-anchor="start" letter-spacing="1">TIPOS</text><rect x="26" y="821" width="16" height="16" rx="4" fill="url(#g_p1)"/><text x="50" y="833" font-size="12" fill="#aeb6c7" font-weight="normal" text-anchor="start">Parte 1</text><rect x="26" y="847" width="16" height="16" rx="4" fill="url(#g_p2)"/><text x="50" y="859" font-size="12" fill="#aeb6c7" font-weight="normal" text-anchor="start">Parte 2</text><rect x="26" y="873" width="16" height="16" rx="4" fill="url(#g_kit)"/><text x="50" y="885" font-size="12" fill="#aeb6c7" font-weight="normal" text-anchor="start">Kit</text><rect x="26" y="899" width="16" height="16" rx="4" fill="url(#g_uni)"/><text x="50" y="911" font-size="12" fill="#aeb6c7" font-weight="normal" text-anchor="start">Único</text><text x="258" y="96" font-size="24" fill="#0f172a" font-weight="bold" text-anchor="start">Passadoria</text><text x="258" y="118" font-size="12" fill="#94a3b8" font-weight="normal" text-anchor="start">Produção  ›  Passadoria</text><rect x="1868" y="80" width="150" height="34" rx="9" fill="#ffffff" stroke="#e5e7eb" stroke-width="1" filter="url(#cardShadow)"/><rect x="1872" y="84" width="72" height="26" rx="7" fill="url(#g_brand)"/><text x="1908" y="101" font-size="12" fill="#fff" font-weight="bold" text-anchor="middle">▦ Quadro</text><text x="1982" y="101" font-size="12" fill="#6b7280" font-weight="normal" text-anchor="middle">☰ Lista</text><rect x="2032" y="80" width="120" height="34" rx="9" fill="#ffffff" stroke="#e5e7eb" stroke-width="1" filter="url(#cardShadow)"/><text x="2092" y="101" font-size="12.5" fill="#374151" font-weight="bold" text-anchor="middle">⚙  Filtros</text><rect x="258" y="138" width="210" height="62" rx="14" fill="#ffffff" stroke="#eef0f4" stroke-width="1" filter="url(#cardShadow)"/><rect x="258" y="152" width="4" height="34" rx="2" fill="#f59e0b"/><text x="278" y="170" font-size="22" fill="#0f172a" font-weight="bold" text-anchor="start">6</text><text x="278" y="189" font-size="11.5" fill="#64748b" font-weight="normal" text-anchor="start">Em fila</text><rect x="480" y="138" width="210" height="62" rx="14" fill="#ffffff" stroke="#eef0f4" stroke-width="1" filter="url(#cardShadow)"/><rect x="480" y="152" width="4" height="34" rx="2" fill="#10b981"/><text x="500" y="170" font-size="22" fill="#0f172a" font-weight="bold" text-anchor="start">3</text><text x="500" y="189" font-size="11.5" fill="#64748b" font-weight="normal" text-anchor="start">Passando</text><rect x="702" y="138" width="210" height="62" rx="14" fill="#ffffff" stroke="#eef0f4" stroke-width="1" filter="url(#cardShadow)"/><rect x="702" y="152" width="4" height="34" rx="2" fill="#3b82f6"/><text x="722" y="170" font-size="22" fill="#0f172a" font-weight="bold" text-anchor="start">4</text><text x="722" y="189" font-size="11.5" fill="#64748b" font-weight="normal" text-anchor="start">Finalizados hoje</text><rect x="924" y="138" width="210" height="62" rx="14" fill="#ffffff" stroke="#eef0f4" stroke-width="1" filter="url(#cardShadow)"/><rect x="924" y="152" width="4" height="34" rx="2" fill="#6366f1"/><text x="944" y="170" font-size="22" fill="#0f172a" font-weight="bold" text-anchor="start">92%</text><text x="944" y="189" font-size="11.5" fill="#64748b" font-weight="normal" text-anchor="start">No prazo</text><rect x="1146" y="138" width="210" height="62" rx="14" fill="#ffffff" stroke="#eef0f4" stroke-width="1" filter="url(#cardShadow)"/><rect x="1146" y="152" width="4" height="34" rx="2" fill="#8b5cf6"/><text x="1166" y="170" font-size="22" fill="#0f172a" font-weight="bold" text-anchor="start">3 / 4</text><text x="1166" y="189" font-size="11.5" fill="#64748b" font-weight="normal" text-anchor="start">Passadeiras</text><text x="258" y="228" font-size="12" fill="#94a3b8" font-weight="normal" text-anchor="start">Parte 1 e Parte 2 permanecem separadas na Passadoria — unem-se apenas no Corte.</text><rect x="258" y="244" width="266" height="686" rx="16" fill="#f1f3f7"/><rect x="258" y="244" width="266" height="52" rx="16" fill="#fff8ee"/><rect x="258" y="280" width="266" height="16" rx="0" fill="#fff8ee"/><circle cx="278" cy="270" r="5" fill="#f59e0b"/><text x="292" y="268" font-size="12.5" fill="#b45309" font-weight="bold" text-anchor="start">Aguardando</text><text x="292" y="284" font-size="11" fill="#b45309" font-weight="bold" text-anchor="start">Kits</text><rect x="484" y="259" width="26" height="22" rx="11" fill="#ffffffcc"/><text x="497" y="274" font-size="12" fill="#b45309" font-weight="bold" text-anchor="middle">2</text><rect x="268" y="310" width="246" height="184" rx="16" fill="#ffffff" stroke="#eef0f4" stroke-width="1" filter="url(#cardShadow)"/><rect x="268" y="310" width="246" height="40" rx="16" fill="url(#g_kit)"/><rect x="268" y="334" width="246" height="16" rx="0" fill="url(#g_kit)"/><text x="284" y="335" font-size="13" fill="#ffffff" font-weight="bold" text-anchor="start" letter-spacing="0.4">KIT-1031</text><rect x="464.2" y="321" width="33.8" height="18" rx="9" fill="#ffffff33"/><text x="481.1" y="334" font-size="10" fill="#ffffff" font-weight="bold" text-anchor="middle" letter-spacing="0.5">KIT</text><text x="284" y="378" font-size="15.5" fill="#0f172a" font-weight="bold" text-anchor="start">Malharia F</text><rect x="414.0" y="364" width="84.0" height="20" rx="10" fill="#fff8ee"/><circle cx="426.0" cy="374" r="3" fill="#f59e0b"/><text x="435.0" y="377.5" font-size="10" fill="#b45309" font-weight="bold" text-anchor="start">Aguardando</text><text x="284" y="397" font-size="11.5" fill="#64748b" font-weight="normal" text-anchor="start">Blusa Tricô · BT12 · 80 pç</text><rect x="284" y="408" width="102.0" height="42" rx="10" fill="#f5f3ff" stroke="#e9e3ff" stroke-width="1"/><text x="296" y="424" font-size="8" fill="#7c3aed" font-weight="bold" text-anchor="start" letter-spacing="0.6">PEDIDO</text><text x="296" y="441" font-size="13" fill="#4c1d95" font-weight="bold" text-anchor="start">16/06</text><rect x="396.0" y="408" width="102.0" height="42" rx="10" fill="#fff1f2" stroke="#fde0e3" stroke-width="1"/><text x="408.0" y="424" font-size="8" fill="#e11d48" font-weight="bold" text-anchor="start" letter-spacing="0.6">ENTREGA</text><text x="408.0" y="441" font-size="13" fill="#be123c" font-weight="bold" text-anchor="start">23/06</text><text x="284" y="482" font-size="10" fill="#94a3b8" font-weight="normal" text-anchor="start">toque p/ detalhes</text><rect x="428.8" y="466" width="69.2" height="24" rx="8" fill="#10b981"/><text x="463.4" y="482" font-size="11.5" fill="#fff" font-weight="bold" text-anchor="middle">Passar</text><rect x="268" y="508" width="246" height="184" rx="16" fill="#ffffff" stroke="#eef0f4" stroke-width="1" filter="url(#cardShadow)"/><rect x="268" y="508" width="246" height="40" rx="16" fill="url(#g_kit)"/><rect x="268" y="532" width="246" height="16" rx="0" fill="url(#g_kit)"/><text x="284" y="533" font-size="13" fill="#ffffff" font-weight="bold" text-anchor="start" letter-spacing="0.4">KIT-1027</text><rect x="464.2" y="519" width="33.8" height="18" rx="9" fill="#ffffff33"/><text x="481.1" y="532" font-size="10" fill="#ffffff" font-weight="bold" text-anchor="middle" letter-spacing="0.5">KIT</text><text x="284" y="576" font-size="15.5" fill="#0f172a" font-weight="bold" text-anchor="start">Loja M</text><rect x="414.0" y="562" width="84.0" height="20" rx="10" fill="#fff8ee"/><circle cx="426.0" cy="572" r="3" fill="#f59e0b"/><text x="435.0" y="575.5" font-size="10" fill="#b45309" font-weight="bold" text-anchor="start">Aguardando</text><text x="284" y="595" font-size="11.5" fill="#64748b" font-weight="normal" text-anchor="start">Casaco · CA09 · 150 pç</text><rect x="284" y="606" width="102.0" height="42" rx="10" fill="#f5f3ff" stroke="#e9e3ff" stroke-width="1"/><text x="296" y="622" font-size="8" fill="#7c3aed" font-weight="bold" text-anchor="start" letter-spacing="0.6">PEDIDO</text><text x="296" y="639" font-size="13" fill="#4c1d95" font-weight="bold" text-anchor="start">17/06</text><rect x="396.0" y="606" width="102.0" height="42" rx="10" fill="#fff1f2" stroke="#fde0e3" stroke-width="1"/><text x="408.0" y="622" font-size="8" fill="#e11d48" font-weight="bold" text-anchor="start" letter-spacing="0.6">ENTREGA</text><text x="408.0" y="639" font-size="13" fill="#be123c" font-weight="bold" text-anchor="start">24/06</text><text x="284" y="680" font-size="10" fill="#94a3b8" font-weight="normal" text-anchor="start">toque p/ detalhes</text><rect x="428.8" y="664" width="69.2" height="24" rx="8" fill="#10b981"/><text x="463.4" y="680" font-size="11.5" fill="#fff" font-weight="bold" text-anchor="middle">Passar</text><rect x="540" y="244" width="266" height="686" rx="16" fill="#f1f3f7"/><rect x="540" y="244" width="266" height="52" rx="16" fill="#fff8ee"/><rect x="540" y="280" width="266" height="16" rx="0" fill="#fff8ee"/><circle cx="560" cy="270" r="5" fill="#f59e0b"/><text x="574" y="268" font-size="12.5" fill="#b45309" font-weight="bold" text-anchor="start">Aguardando</text><text x="574" y="284" font-size="11" fill="#b45309" font-weight="bold" text-anchor="start">Parte 1</text><rect x="766" y="259" width="26" height="22" rx="11" fill="#ffffffcc"/><text x="779" y="274" font-size="12" fill="#b45309" font-weight="bold" text-anchor="middle">2</text><rect x="550" y="310" width="246" height="184" rx="16" fill="#ffffff" stroke="#eef0f4" stroke-width="1" filter="url(#cardShadow)"/><rect x="550" y="310" width="246" height="40" rx="16" fill="url(#g_p1)"/><rect x="550" y="334" width="246" height="16" rx="0" fill="url(#g_p1)"/><text x="566" y="335" font-size="13" fill="#ffffff" font-weight="bold" text-anchor="start" letter-spacing="0.4">OP-1042</text><rect x="719.8" y="321" width="60.199999999999996" height="18" rx="9" fill="#ffffff33"/><text x="749.9" y="334" font-size="10" fill="#ffffff" font-weight="bold" text-anchor="middle" letter-spacing="0.5">PARTE 1</text><text x="566" y="378" font-size="15.5" fill="#0f172a" font-weight="bold" text-anchor="start">Loja K</text><rect x="696.0" y="364" width="84.0" height="20" rx="10" fill="#fff8ee"/><circle cx="708.0" cy="374" r="3" fill="#f59e0b"/><text x="717.0" y="377.5" font-size="10" fill="#b45309" font-weight="bold" text-anchor="start">Aguardando</text><text x="566" y="397" font-size="11.5" fill="#64748b" font-weight="normal" text-anchor="start">Blusa Tricô · BT12 · 150 pç</text><rect x="566" y="408" width="102.0" height="42" rx="10" fill="#f5f3ff" stroke="#e9e3ff" stroke-width="1"/><text x="578" y="424" font-size="8" fill="#7c3aed" font-weight="bold" text-anchor="start" letter-spacing="0.6">PEDIDO</text><text x="578" y="441" font-size="13" fill="#4c1d95" font-weight="bold" text-anchor="start">14/06</text><rect x="678.0" y="408" width="102.0" height="42" rx="10" fill="#fff1f2" stroke="#fde0e3" stroke-width="1"/><text x="690.0" y="424" font-size="8" fill="#e11d48" font-weight="bold" text-anchor="start" letter-spacing="0.6">ENTREGA</text><text x="690.0" y="441" font-size="13" fill="#be123c" font-weight="bold" text-anchor="start">22/06</text><text x="566" y="482" font-size="10" fill="#94a3b8" font-weight="normal" text-anchor="start">toque p/ detalhes</text><rect x="710.8" y="466" width="69.2" height="24" rx="8" fill="#10b981"/><text x="745.4" y="482" font-size="11.5" fill="#fff" font-weight="bold" text-anchor="middle">Passar</text><rect x="550" y="508" width="246" height="184" rx="16" fill="#ffffff" stroke="#eef0f4" stroke-width="1" filter="url(#cardShadow)"/><rect x="550" y="508" width="246" height="40" rx="16" fill="url(#g_p1)"/><rect x="550" y="532" width="246" height="16" rx="0" fill="url(#g_p1)"/><text x="566" y="533" font-size="13" fill="#ffffff" font-weight="bold" text-anchor="start" letter-spacing="0.4">OP-1050</text><rect x="719.8" y="519" width="60.199999999999996" height="18" rx="9" fill="#ffffff33"/><text x="749.9" y="532" font-size="10" fill="#ffffff" font-weight="bold" text-anchor="middle" letter-spacing="0.5">PARTE 1</text><text x="566" y="576" font-size="15.5" fill="#0f172a" font-weight="bold" text-anchor="start">Loja T</text><rect x="696.0" y="562" width="84.0" height="20" rx="10" fill="#fff8ee"/><circle cx="708.0" cy="572" r="3" fill="#f59e0b"/><text x="717.0" y="575.5" font-size="10" fill="#b45309" font-weight="bold" text-anchor="start">Aguardando</text><text x="566" y="595" font-size="11.5" fill="#64748b" font-weight="normal" text-anchor="start">Gola · GL02 · 80 pç</text><rect x="566" y="606" width="102.0" height="42" rx="10" fill="#f5f3ff" stroke="#e9e3ff" stroke-width="1"/><text x="578" y="622" font-size="8" fill="#7c3aed" font-weight="bold" text-anchor="start" letter-spacing="0.6">PEDIDO</text><text x="578" y="639" font-size="13" fill="#4c1d95" font-weight="bold" text-anchor="start">18/06</text><rect x="678.0" y="606" width="102.0" height="42" rx="10" fill="#fff1f2" stroke="#fde0e3" stroke-width="1"/><text x="690.0" y="622" font-size="8" fill="#e11d48" font-weight="bold" text-anchor="start" letter-spacing="0.6">ENTREGA</text><text x="690.0" y="639" font-size="13" fill="#be123c" font-weight="bold" text-anchor="start">26/06</text><text x="566" y="680" font-size="10" fill="#94a3b8" font-weight="normal" text-anchor="start">toque p/ detalhes</text><rect x="710.8" y="664" width="69.2" height="24" rx="8" fill="#10b981"/><text x="745.4" y="680" font-size="11.5" fill="#fff" font-weight="bold" text-anchor="middle">Passar</text><rect x="822" y="244" width="266" height="686" rx="16" fill="#f1f3f7"/><rect x="822" y="244" width="266" height="52" rx="16" fill="#fff3ea"/><rect x="822" y="280" width="266" height="16" rx="0" fill="#fff3ea"/><circle cx="842" cy="270" r="5" fill="#f97316"/><text x="856" y="268" font-size="12.5" fill="#c2410c" font-weight="bold" text-anchor="start">Aguardando</text><text x="856" y="284" font-size="11" fill="#c2410c" font-weight="bold" text-anchor="start">Parte 2</text><rect x="1048" y="259" width="26" height="22" rx="11" fill="#ffffffcc"/><text x="1061" y="274" font-size="12" fill="#c2410c" font-weight="bold" text-anchor="middle">2</text><rect x="832" y="310" width="246" height="184" rx="16" fill="#ffffff" stroke="#eef0f4" stroke-width="1" filter="url(#cardShadow)"/><rect x="832" y="310" width="246" height="40" rx="16" fill="url(#g_p2)"/><rect x="832" y="334" width="246" height="16" rx="0" fill="url(#g_p2)"/><text x="848" y="335" font-size="13" fill="#ffffff" font-weight="bold" text-anchor="start" letter-spacing="0.4">OP-1042</text><rect x="1001.8" y="321" width="60.199999999999996" height="18" rx="9" fill="#ffffff33"/><text x="1031.9" y="334" font-size="10" fill="#ffffff" font-weight="bold" text-anchor="middle" letter-spacing="0.5">PARTE 2</text><text x="848" y="378" font-size="15.5" fill="#0f172a" font-weight="bold" text-anchor="start">Loja K</text><rect x="978.0" y="364" width="84.0" height="20" rx="10" fill="#fff3ea"/><circle cx="990.0" cy="374" r="3" fill="#f97316"/><text x="999.0" y="377.5" font-size="10" fill="#c2410c" font-weight="bold" text-anchor="start">Aguardando</text><text x="848" y="397" font-size="11.5" fill="#64748b" font-weight="normal" text-anchor="start">Blusa Tricô · BT12 · 150 pç</text><rect x="848" y="408" width="102.0" height="42" rx="10" fill="#f5f3ff" stroke="#e9e3ff" stroke-width="1"/><text x="860" y="424" font-size="8" fill="#7c3aed" font-weight="bold" text-anchor="start" letter-spacing="0.6">PEDIDO</text><text x="860" y="441" font-size="13" fill="#4c1d95" font-weight="bold" text-anchor="start">14/06</text><rect x="960.0" y="408" width="102.0" height="42" rx="10" fill="#fff1f2" stroke="#fde0e3" stroke-width="1"/><text x="972.0" y="424" font-size="8" fill="#e11d48" font-weight="bold" text-anchor="start" letter-spacing="0.6">ENTREGA</text><text x="972.0" y="441" font-size="13" fill="#be123c" font-weight="bold" text-anchor="start">22/06</text><text x="848" y="482" font-size="10" fill="#94a3b8" font-weight="normal" text-anchor="start">toque p/ detalhes</text><rect x="992.8" y="466" width="69.2" height="24" rx="8" fill="#10b981"/><text x="1027.4" y="482" font-size="11.5" fill="#fff" font-weight="bold" text-anchor="middle">Passar</text><rect x="832" y="508" width="246" height="184" rx="16" fill="#ffffff" stroke="#eef0f4" stroke-width="1" filter="url(#cardShadow)"/><rect x="832" y="508" width="246" height="40" rx="16" fill="url(#g_p2)"/><rect x="832" y="532" width="246" height="16" rx="0" fill="url(#g_p2)"/><text x="848" y="533" font-size="13" fill="#ffffff" font-weight="bold" text-anchor="start" letter-spacing="0.4">OP-1033</text><rect x="1001.8" y="519" width="60.199999999999996" height="18" rx="9" fill="#ffffff33"/><text x="1031.9" y="532" font-size="10" fill="#ffffff" font-weight="bold" text-anchor="middle" letter-spacing="0.5">PARTE 2</text><text x="848" y="576" font-size="15.5" fill="#0f172a" font-weight="bold" text-anchor="start">Loja G</text><rect x="978.0" y="562" width="84.0" height="20" rx="10" fill="#fff3ea"/><circle cx="990.0" cy="572" r="3" fill="#f97316"/><text x="999.0" y="575.5" font-size="10" fill="#c2410c" font-weight="bold" text-anchor="start">Aguardando</text><text x="848" y="595" font-size="11.5" fill="#64748b" font-weight="normal" text-anchor="start">Colete · CV03 · 60 pç</text><rect x="848" y="606" width="102.0" height="42" rx="10" fill="#f5f3ff" stroke="#e9e3ff" stroke-width="1"/><text x="860" y="622" font-size="8" fill="#7c3aed" font-weight="bold" text-anchor="start" letter-spacing="0.6">PEDIDO</text><text x="860" y="639" font-size="13" fill="#4c1d95" font-weight="bold" text-anchor="start">18/06</text><rect x="960.0" y="606" width="102.0" height="42" rx="10" fill="#fff1f2" stroke="#fde0e3" stroke-width="1"/><text x="972.0" y="622" font-size="8" fill="#e11d48" font-weight="bold" text-anchor="start" letter-spacing="0.6">ENTREGA</text><text x="972.0" y="639" font-size="13" fill="#be123c" font-weight="bold" text-anchor="start">26/06</text><text x="848" y="680" font-size="10" fill="#94a3b8" font-weight="normal" text-anchor="start">toque p/ detalhes</text><rect x="992.8" y="664" width="69.2" height="24" rx="8" fill="#10b981"/><text x="1027.4" y="680" font-size="11.5" fill="#fff" font-weight="bold" text-anchor="middle">Passar</text><rect x="1104" y="244" width="266" height="686" rx="16" fill="#f1f3f7"/><rect x="1104" y="244" width="266" height="52" rx="16" fill="#edfcf4"/><rect x="1104" y="280" width="266" height="16" rx="0" fill="#edfcf4"/><circle cx="1124" cy="270" r="5" fill="#10b981"/><text x="1138" y="268" font-size="12.5" fill="#047857" font-weight="bold" text-anchor="start">Passando</text><rect x="1330" y="259" width="26" height="22" rx="11" fill="#ffffffcc"/><text x="1343" y="274" font-size="12" fill="#047857" font-weight="bold" text-anchor="middle">3</text><rect x="1114" y="310" width="246" height="184" rx="16" fill="#ffffff" stroke="#eef0f4" stroke-width="1" filter="url(#cardShadow)"/><rect x="1114" y="310" width="246" height="40" rx="16" fill="url(#g_p1)"/><rect x="1114" y="334" width="246" height="16" rx="0" fill="url(#g_p1)"/><text x="1130" y="335" font-size="13" fill="#ffffff" font-weight="bold" text-anchor="start" letter-spacing="0.4">OP-1010</text><rect x="1283.8" y="321" width="60.199999999999996" height="18" rx="9" fill="#ffffff33"/><text x="1313.9" y="334" font-size="10" fill="#ffffff" font-weight="bold" text-anchor="middle" letter-spacing="0.5">PARTE 1</text><text x="1130" y="378" font-size="15.5" fill="#0f172a" font-weight="bold" text-anchor="start">Cliente B</text><rect x="1272.0" y="364" width="72.0" height="20" rx="10" fill="#edfcf4"/><circle cx="1284.0" cy="374" r="3" fill="#10b981"/><text x="1293.0" y="377.5" font-size="10" fill="#047857" font-weight="bold" text-anchor="start">Passando</text><text x="1130" y="397" font-size="11.5" fill="#64748b" font-weight="normal" text-anchor="start">Suéter · SU11 · 120 pç</text><rect x="1130" y="408" width="102.0" height="42" rx="10" fill="#f5f3ff" stroke="#e9e3ff" stroke-width="1"/><text x="1142" y="424" font-size="8" fill="#7c3aed" font-weight="bold" text-anchor="start" letter-spacing="0.6">PEDIDO</text><text x="1142" y="441" font-size="13" fill="#4c1d95" font-weight="bold" text-anchor="start">13/06</text><rect x="1242.0" y="408" width="102.0" height="42" rx="10" fill="#fff1f2" stroke="#fde0e3" stroke-width="1"/><text x="1254.0" y="424" font-size="8" fill="#e11d48" font-weight="bold" text-anchor="start" letter-spacing="0.6">ENTREGA</text><text x="1254.0" y="441" font-size="13" fill="#be123c" font-weight="bold" text-anchor="start">25/06</text><text x="1130" y="482" font-size="10" fill="#94a3b8" font-weight="normal" text-anchor="start">toque p/ detalhes</text><rect x="1253.2" y="466" width="90.8" height="24" rx="8" fill="#3b82f6"/><text x="1298.6" y="482" font-size="11.5" fill="#fff" font-weight="bold" text-anchor="middle">Finalizar</text><rect x="1114" y="508" width="246" height="184" rx="16" fill="#ffffff" stroke="#eef0f4" stroke-width="1" filter="url(#cardShadow)"/><rect x="1114" y="508" width="246" height="40" rx="16" fill="url(#g_kit)"/><rect x="1114" y="532" width="246" height="16" rx="0" fill="url(#g_kit)"/><text x="1130" y="533" font-size="13" fill="#ffffff" font-weight="bold" text-anchor="start" letter-spacing="0.4">KIT-1009</text><rect x="1310.2" y="519" width="33.8" height="18" rx="9" fill="#ffffff33"/><text x="1327.1" y="532" font-size="10" fill="#ffffff" font-weight="bold" text-anchor="middle" letter-spacing="0.5">KIT</text><text x="1130" y="576" font-size="15.5" fill="#0f172a" font-weight="bold" text-anchor="start">Loja V</text><rect x="1272.0" y="562" width="72.0" height="20" rx="10" fill="#edfcf4"/><circle cx="1284.0" cy="572" r="3" fill="#10b981"/><text x="1293.0" y="575.5" font-size="10" fill="#047857" font-weight="bold" text-anchor="start">Passando</text><text x="1130" y="595" font-size="11.5" fill="#64748b" font-weight="normal" text-anchor="start">Touca · TC01 · 90 pç</text><rect x="1130" y="606" width="102.0" height="42" rx="10" fill="#f5f3ff" stroke="#e9e3ff" stroke-width="1"/><text x="1142" y="622" font-size="8" fill="#7c3aed" font-weight="bold" text-anchor="start" letter-spacing="0.6">PEDIDO</text><text x="1142" y="639" font-size="13" fill="#4c1d95" font-weight="bold" text-anchor="start">12/06</text><rect x="1242.0" y="606" width="102.0" height="42" rx="10" fill="#fff1f2" stroke="#fde0e3" stroke-width="1"/><text x="1254.0" y="622" font-size="8" fill="#e11d48" font-weight="bold" text-anchor="start" letter-spacing="0.6">ENTREGA</text><text x="1254.0" y="639" font-size="13" fill="#be123c" font-weight="bold" text-anchor="start">21/06</text><text x="1130" y="680" font-size="10" fill="#94a3b8" font-weight="normal" text-anchor="start">toque p/ detalhes</text><rect x="1253.2" y="664" width="90.8" height="24" rx="8" fill="#3b82f6"/><text x="1298.6" y="680" font-size="11.5" fill="#fff" font-weight="bold" text-anchor="middle">Finalizar</text><rect x="1114" y="706" width="246" height="184" rx="16" fill="#ffffff" stroke="#eef0f4" stroke-width="1" filter="url(#cardShadow)"/><rect x="1114" y="706" width="246" height="40" rx="16" fill="url(#g_p2)"/><rect x="1114" y="730" width="246" height="16" rx="0" fill="url(#g_p2)"/><text x="1130" y="731" font-size="13" fill="#ffffff" font-weight="bold" text-anchor="start" letter-spacing="0.4">OP-1015</text><rect x="1283.8" y="717" width="60.199999999999996" height="18" rx="9" fill="#ffffff33"/><text x="1313.9" y="730" font-size="10" fill="#ffffff" font-weight="bold" text-anchor="middle" letter-spacing="0.5">PARTE 2</text><text x="1130" y="774" font-size="15.5" fill="#0f172a" font-weight="bold" text-anchor="start">Loja W</text><rect x="1272.0" y="760" width="72.0" height="20" rx="10" fill="#edfcf4"/><circle cx="1284.0" cy="770" r="3" fill="#10b981"/><text x="1293.0" y="773.5" font-size="10" fill="#047857" font-weight="bold" text-anchor="start">Passando</text><text x="1130" y="793" font-size="11.5" fill="#64748b" font-weight="normal" text-anchor="start">Cardigã · CG04 · 100 pç</text><rect x="1130" y="804" width="102.0" height="42" rx="10" fill="#f5f3ff" stroke="#e9e3ff" stroke-width="1"/><text x="1142" y="820" font-size="8" fill="#7c3aed" font-weight="bold" text-anchor="start" letter-spacing="0.6">PEDIDO</text><text x="1142" y="837" font-size="13" fill="#4c1d95" font-weight="bold" text-anchor="start">15/06</text><rect x="1242.0" y="804" width="102.0" height="42" rx="10" fill="#fff1f2" stroke="#fde0e3" stroke-width="1"/><text x="1254.0" y="820" font-size="8" fill="#e11d48" font-weight="bold" text-anchor="start" letter-spacing="0.6">ENTREGA</text><text x="1254.0" y="837" font-size="13" fill="#be123c" font-weight="bold" text-anchor="start">27/06</text><text x="1130" y="878" font-size="10" fill="#94a3b8" font-weight="normal" text-anchor="start">toque p/ detalhes</text><rect x="1253.2" y="862" width="90.8" height="24" rx="8" fill="#3b82f6"/><text x="1298.6" y="878" font-size="11.5" fill="#fff" font-weight="bold" text-anchor="middle">Finalizar</text><rect x="1386" y="244" width="266" height="686" rx="16" fill="#f1f3f7"/><rect x="1386" y="244" width="266" height="52" rx="16" fill="#eef4ff"/><rect x="1386" y="280" width="266" height="16" rx="0" fill="#eef4ff"/><circle cx="1406" cy="270" r="5" fill="#3b82f6"/><text x="1420" y="268" font-size="12.5" fill="#1d4ed8" font-weight="bold" text-anchor="start">Finalizados</text><text x="1420" y="284" font-size="11" fill="#1d4ed8" font-weight="bold" text-anchor="start">Kits</text><rect x="1612" y="259" width="26" height="22" rx="11" fill="#ffffffcc"/><text x="1625" y="274" font-size="12" fill="#1d4ed8" font-weight="bold" text-anchor="middle">2</text><rect x="1396" y="310" width="246" height="184" rx="16" fill="#ffffff" stroke="#eef0f4" stroke-width="1" filter="url(#cardShadow)"/><rect x="1396" y="310" width="246" height="40" rx="16" fill="url(#g_kit)"/><rect x="1396" y="334" width="246" height="16" rx="0" fill="url(#g_kit)"/><text x="1412" y="335" font-size="13" fill="#ffffff" font-weight="bold" text-anchor="start" letter-spacing="0.4">KIT-0995</text><rect x="1592.2" y="321" width="33.8" height="18" rx="9" fill="#ffffff33"/><text x="1609.1" y="334" font-size="10" fill="#ffffff" font-weight="bold" text-anchor="middle" letter-spacing="0.5">KIT</text><text x="1412" y="378" font-size="15.5" fill="#0f172a" font-weight="bold" text-anchor="start">Cliente B</text><rect x="1566.0" y="364" width="60.0" height="20" rx="10" fill="#eef4ff"/><circle cx="1578.0" cy="374" r="3" fill="#3b82f6"/><text x="1587.0" y="377.5" font-size="10" fill="#1d4ed8" font-weight="bold" text-anchor="start">Pronto</text><text x="1412" y="397" font-size="11.5" fill="#64748b" font-weight="normal" text-anchor="start">Cachecol · CC07 · 120 pç</text><rect x="1412" y="408" width="102.0" height="42" rx="10" fill="#f5f3ff" stroke="#e9e3ff" stroke-width="1"/><text x="1424" y="424" font-size="8" fill="#7c3aed" font-weight="bold" text-anchor="start" letter-spacing="0.6">PEDIDO</text><text x="1424" y="441" font-size="13" fill="#4c1d95" font-weight="bold" text-anchor="start">15/06</text><rect x="1524.0" y="408" width="102.0" height="42" rx="10" fill="#fff1f2" stroke="#fde0e3" stroke-width="1"/><text x="1536.0" y="424" font-size="8" fill="#e11d48" font-weight="bold" text-anchor="start" letter-spacing="0.6">ENTREGA</text><text x="1536.0" y="441" font-size="13" fill="#be123c" font-weight="bold" text-anchor="start">25/06</text><text x="1412" y="482" font-size="10" fill="#94a3b8" font-weight="normal" text-anchor="start">toque p/ detalhes</text><rect x="1542.4" y="466" width="83.6" height="24" rx="8" fill="#6d28d9"/><text x="1584.2" y="482" font-size="11.5" fill="#fff" font-weight="bold" text-anchor="middle">Enviar ▶</text><rect x="1396" y="508" width="246" height="184" rx="16" fill="#ffffff" stroke="#eef0f4" stroke-width="1" filter="url(#cardShadow)"/><rect x="1396" y="508" width="246" height="40" rx="16" fill="url(#g_kit)"/><rect x="1396" y="532" width="246" height="16" rx="0" fill="url(#g_kit)"/><text x="1412" y="533" font-size="13" fill="#ffffff" font-weight="bold" text-anchor="start" letter-spacing="0.4">KIT-0996</text><rect x="1592.2" y="519" width="33.8" height="18" rx="9" fill="#ffffff33"/><text x="1609.1" y="532" font-size="10" fill="#ffffff" font-weight="bold" text-anchor="middle" letter-spacing="0.5">KIT</text><text x="1412" y="576" font-size="15.5" fill="#0f172a" font-weight="bold" text-anchor="start">Loja N</text><rect x="1566.0" y="562" width="60.0" height="20" rx="10" fill="#eef4ff"/><circle cx="1578.0" cy="572" r="3" fill="#3b82f6"/><text x="1587.0" y="575.5" font-size="10" fill="#1d4ed8" font-weight="bold" text-anchor="start">Pronto</text><text x="1412" y="595" font-size="11.5" fill="#64748b" font-weight="normal" text-anchor="start">Luva · LV02 · 60 pç</text><rect x="1412" y="606" width="102.0" height="42" rx="10" fill="#f5f3ff" stroke="#e9e3ff" stroke-width="1"/><text x="1424" y="622" font-size="8" fill="#7c3aed" font-weight="bold" text-anchor="start" letter-spacing="0.6">PEDIDO</text><text x="1424" y="639" font-size="13" fill="#4c1d95" font-weight="bold" text-anchor="start">14/06</text><rect x="1524.0" y="606" width="102.0" height="42" rx="10" fill="#fff1f2" stroke="#fde0e3" stroke-width="1"/><text x="1536.0" y="622" font-size="8" fill="#e11d48" font-weight="bold" text-anchor="start" letter-spacing="0.6">ENTREGA</text><text x="1536.0" y="639" font-size="13" fill="#be123c" font-weight="bold" text-anchor="start">24/06</text><text x="1412" y="680" font-size="10" fill="#94a3b8" font-weight="normal" text-anchor="start">toque p/ detalhes</text><rect x="1542.4" y="664" width="83.6" height="24" rx="8" fill="#6d28d9"/><text x="1584.2" y="680" font-size="11.5" fill="#fff" font-weight="bold" text-anchor="middle">Enviar ▶</text><rect x="1668" y="244" width="266" height="686" rx="16" fill="#f1f3f7"/><rect x="1668" y="244" width="266" height="52" rx="16" fill="#eef4ff"/><rect x="1668" y="280" width="266" height="16" rx="0" fill="#eef4ff"/><circle cx="1688" cy="270" r="5" fill="#3b82f6"/><text x="1702" y="268" font-size="12.5" fill="#1d4ed8" font-weight="bold" text-anchor="start">Finalizados</text><text x="1702" y="284" font-size="11" fill="#1d4ed8" font-weight="bold" text-anchor="start">Parte 1</text><rect x="1894" y="259" width="26" height="22" rx="11" fill="#ffffffcc"/><text x="1907" y="274" font-size="12" fill="#1d4ed8" font-weight="bold" text-anchor="middle">1</text><rect x="1678" y="310" width="246" height="184" rx="16" fill="#ffffff" stroke="#eef0f4" stroke-width="1" filter="url(#cardShadow)"/><rect x="1678" y="310" width="246" height="40" rx="16" fill="url(#g_p1)"/><rect x="1678" y="334" width="246" height="16" rx="0" fill="url(#g_p1)"/><text x="1694" y="335" font-size="13" fill="#ffffff" font-weight="bold" text-anchor="start" letter-spacing="0.4">OP-1002</text><rect x="1847.8" y="321" width="60.199999999999996" height="18" rx="9" fill="#ffffff33"/><text x="1877.9" y="334" font-size="10" fill="#ffffff" font-weight="bold" text-anchor="middle" letter-spacing="0.5">PARTE 1</text><text x="1694" y="378" font-size="15.5" fill="#0f172a" font-weight="bold" text-anchor="start">Loja A</text><rect x="1848.0" y="364" width="60.0" height="20" rx="10" fill="#eef4ff"/><circle cx="1860.0" cy="374" r="3" fill="#3b82f6"/><text x="1869.0" y="377.5" font-size="10" fill="#1d4ed8" font-weight="bold" text-anchor="start">Pronto</text><text x="1694" y="397" font-size="11.5" fill="#64748b" font-weight="normal" text-anchor="start">Blusa · BT12 · 60 pç</text><rect x="1694" y="408" width="102.0" height="42" rx="10" fill="#f5f3ff" stroke="#e9e3ff" stroke-width="1"/><text x="1706" y="424" font-size="8" fill="#7c3aed" font-weight="bold" text-anchor="start" letter-spacing="0.6">PEDIDO</text><text x="1706" y="441" font-size="13" fill="#4c1d95" font-weight="bold" text-anchor="start">11/06</text><rect x="1806.0" y="408" width="102.0" height="42" rx="10" fill="#fff1f2" stroke="#fde0e3" stroke-width="1"/><text x="1818.0" y="424" font-size="8" fill="#e11d48" font-weight="bold" text-anchor="start" letter-spacing="0.6">ENTREGA</text><text x="1818.0" y="441" font-size="13" fill="#be123c" font-weight="bold" text-anchor="start">22/06</text><text x="1694" y="482" font-size="10" fill="#94a3b8" font-weight="normal" text-anchor="start">toque p/ detalhes</text><rect x="1824.4" y="466" width="83.6" height="24" rx="8" fill="#6d28d9"/><text x="1866.2" y="482" font-size="11.5" fill="#fff" font-weight="bold" text-anchor="middle">Enviar ▶</text><rect x="1950" y="244" width="266" height="686" rx="16" fill="#f1f3f7"/><rect x="1950" y="244" width="266" height="52" rx="16" fill="#eef4ff"/><rect x="1950" y="280" width="266" height="16" rx="0" fill="#eef4ff"/><circle cx="1970" cy="270" r="5" fill="#3b82f6"/><text x="1984" y="268" font-size="12.5" fill="#1d4ed8" font-weight="bold" text-anchor="start">Finalizados</text><text x="1984" y="284" font-size="11" fill="#1d4ed8" font-weight="bold" text-anchor="start">Parte 2</text><rect x="2176" y="259" width="26" height="22" rx="11" fill="#ffffffcc"/><text x="2189" y="274" font-size="12" fill="#1d4ed8" font-weight="bold" text-anchor="middle">1</text><rect x="1960" y="310" width="246" height="184" rx="16" fill="#ffffff" stroke="#eef0f4" stroke-width="1" filter="url(#cardShadow)"/><rect x="1960" y="310" width="246" height="40" rx="16" fill="url(#g_p2)"/><rect x="1960" y="334" width="246" height="16" rx="0" fill="url(#g_p2)"/><text x="1976" y="335" font-size="13" fill="#ffffff" font-weight="bold" text-anchor="start" letter-spacing="0.4">OP-1002</text><rect x="2129.8" y="321" width="60.199999999999996" height="18" rx="9" fill="#ffffff33"/><text x="2159.9" y="334" font-size="10" fill="#ffffff" font-weight="bold" text-anchor="middle" letter-spacing="0.5">PARTE 2</text><text x="1976" y="378" font-size="15.5" fill="#0f172a" font-weight="bold" text-anchor="start">Loja A</text><rect x="2130.0" y="364" width="60.0" height="20" rx="10" fill="#eef4ff"/><circle cx="2142.0" cy="374" r="3" fill="#3b82f6"/><text x="2151.0" y="377.5" font-size="10" fill="#1d4ed8" font-weight="bold" text-anchor="start">Pronto</text><text x="1976" y="397" font-size="11.5" fill="#64748b" font-weight="normal" text-anchor="start">Blusa · BT12 · 60 pç</text><rect x="1976" y="408" width="102.0" height="42" rx="10" fill="#f5f3ff" stroke="#e9e3ff" stroke-width="1"/><text x="1988" y="424" font-size="8" fill="#7c3aed" font-weight="bold" text-anchor="start" letter-spacing="0.6">PEDIDO</text><text x="1988" y="441" font-size="13" fill="#4c1d95" font-weight="bold" text-anchor="start">11/06</text><rect x="2088.0" y="408" width="102.0" height="42" rx="10" fill="#fff1f2" stroke="#fde0e3" stroke-width="1"/><text x="2100.0" y="424" font-size="8" fill="#e11d48" font-weight="bold" text-anchor="start" letter-spacing="0.6">ENTREGA</text><text x="2100.0" y="441" font-size="13" fill="#be123c" font-weight="bold" text-anchor="start">22/06</text><text x="1976" y="482" font-size="10" fill="#94a3b8" font-weight="normal" text-anchor="start">toque p/ detalhes</text><rect x="2106.4" y="466" width="83.6" height="24" rx="8" fill="#6d28d9"/><text x="2148.2" y="482" font-size="11.5" fill="#fff" font-weight="bold" text-anchor="middle">Enviar ▶</text></svg>