<svg xmlns="http://www.w3.org/2000/svg" width="1120" height="760" viewBox="0 0 1120 760" font-family="Segoe UI, Arial, sans-serif"><rect x="0" y="0" width="1120" height="760" rx="0" fill="#f4f4f7"/><rect x="0" y="0" width="1120" height="54" rx="0" fill="#4c1d95"/><text x="20" y="33" font-size="17" fill="#fff" font-weight="bold" text-anchor="start">🧶 BIG TRICOT</text><rect x="176" y="16" width="128" height="22" rx="11" fill="#ffffff22"/><text x="188" y="31" font-size="12" fill="#fff" font-weight="normal" text-anchor="start">Rolagem de Fase</text><text x="1096" y="33" font-size="13" fill="#fff" font-weight="normal" text-anchor="end">Carla · Operador Passadoria ▾</text><rect x="0" y="54" width="1120" height="706" rx="0" fill="#e9e7f0"/><rect x="60" y="110" width="160" height="560" rx="12" fill="#ffffff"/><rect x="235" y="110" width="160" height="560" rx="12" fill="#ffffff"/><rect x="410" y="110" width="160" height="560" rx="12" fill="#ffffff"/><rect x="585" y="110" width="160" height="560" rx="12" fill="#ffffff"/><rect x="760" y="110" width="160" height="560" rx="12" fill="#ffffff"/><rect x="935" y="110" width="160" height="560" rx="12" fill="#ffffff"/><rect x="0" y="54" width="1120" height="706" rx="0" fill="#1b153099"/><rect x="300" y="120" width="520" height="540" rx="16" fill="#ffffff"/><rect x="300" y="120" width="520" height="56" rx="16" fill="#4c1d95"/><rect x="300" y="160" width="520" height="16" rx="0" fill="#4c1d95"/><text x="322" y="155" font-size="18" fill="#fff" font-weight="bold" text-anchor="start">Pedido #1042</text><rect x="470" y="138" width="72" height="22" rx="11" fill="#ffffff33"/><text x="506" y="153" font-size="12" fill="#fff" font-weight="normal" text-anchor="middle">Parte 1</text><text x="798" y="155" font-size="18" fill="#fff" font-weight="normal" text-anchor="end">✕</text><text x="322" y="202" font-size="13.5" fill="#1f2430" font-weight="normal" text-anchor="start">Cliente: Loja K</text><rect x="670" y="190" width="129.6" height="18" rx="9.0" fill="#dcfce7"/><text x="676" y="202.5" font-size="10" fill="#15803d" font-weight="normal" text-anchor="start">Passadoria · Passando</text><rect x="322" y="220" width="228" height="72" rx="12" fill="#f3effe" stroke="#c4b5fd" stroke-width="1"/><text x="338" y="244" font-size="11" fill="#5b21b6" font-weight="normal" text-anchor="start">📅 Data do pedido (lançado)</text><text x="338" y="272" font-size="20" fill="#3b0764" font-weight="bold" text-anchor="start">14/06/2026</text><text x="338" y="288" font-size="9" fill="#7c6fb0" font-weight="normal" text-anchor="start">origem: tela Criar Pedido</text><rect x="570" y="220" width="228" height="72" rx="12" fill="#fef2f2" stroke="#fecaca" stroke-width="1"/><text x="586" y="244" font-size="11" fill="#b91c1c" font-weight="normal" text-anchor="start">🚚 Data de entrega</text><text x="586" y="272" font-size="20" fill="#b91c1c" font-weight="bold" text-anchor="start">22/06/2026</text><text x="586" y="288" font-size="9" fill="#dc2626" font-weight="normal" text-anchor="start">faltam 3 dias</text><text x="322" y="332" font-size="12" fill="#7a8194" font-weight="normal" text-anchor="start">Tipo</text><text x="450" y="332" font-size="12.5" fill="#1f2430" font-weight="bold" text-anchor="start">Parte 1 + Parte 2</text><rect x="322" y="342" width="476" height="1" rx="0" fill="#f0f0f5"/><text x="322" y="366" font-size="12" fill="#7a8194" font-weight="normal" text-anchor="start">Produto</text><text x="450" y="366" font-size="12.5" fill="#1f2430" font-weight="bold" text-anchor="start">Blusa Tricô · BT12 · 150 pç</text><rect x="322" y="376" width="476" height="1" rx="0" fill="#f0f0f5"/><text x="322" y="400" font-size="12" fill="#7a8194" font-weight="normal" text-anchor="start">Origem</text><text x="450" y="400" font-size="12.5" fill="#1f2430" font-weight="bold" text-anchor="start">Tecelagem · Máquina 3</text><rect x="322" y="410" width="476" height="1" rx="0" fill="#f0f0f5"/><text x="322" y="434" font-size="12" fill="#7a8194" font-weight="normal" text-anchor="start">Responsável</text><text x="450" y="434" font-size="12.5" fill="#1f2430" font-weight="bold" text-anchor="start">—</text><rect x="322" y="444" width="476" height="1" rx="0" fill="#f0f0f5"/><text x="322" y="468" font-size="12" fill="#7a8194" font-weight="normal" text-anchor="start">Romaneio</text><text x="450" y="468" font-size="12.5" fill="#1f2430" font-weight="bold" text-anchor="start">—</text><rect x="322" y="478" width="476" height="1" rx="0" fill="#f0f0f5"/><text x="322" y="504" font-size="12.5" fill="#1f2430" font-weight="bold" text-anchor="start">Histórico</text><text x="330" y="526" font-size="11" fill="#55556a" font-weight="normal" text-anchor="start">✅ Criação · 14/06 09:12</text><text x="330" y="548" font-size="11" fill="#55556a" font-weight="normal" text-anchor="start">✅ Tecelagem · 18/06 → 19/06 (Máq 3)</text><text x="330" y="570" font-size="11" fill="#55556a" font-weight="normal" text-anchor="start">🟡 Passadoria · desde 19/06 08:10</text><rect x="322" y="608" width="120" height="38" rx="9" fill="#fff" stroke="#cbd5e1" stroke-width="1"/><text x="382" y="633" font-size="13" fill="#475569" font-weight="normal" text-anchor="middle">Fechar</text><rect x="550" y="608" width="118" height="38" rx="9" fill="#2563eb"/><text x="609" y="633" font-size="12.5" fill="#fff" font-weight="bold" text-anchor="middle">✓ Finalizar</text><rect x="680" y="608" width="118" height="38" rx="9" fill="#6d28d9"/><text x="739" y="633" font-size="12" fill="#fff" font-weight="bold" text-anchor="middle">🔒 Enviar ▶</text></svg>