<svg xmlns="http://www.w3.org/2000/svg" width="2400" height="980" viewBox="0 0 2400 980" font-family="Inter, Segoe UI, Helvetica, Arial, sans-serif"><defs><linearGradient id="g_brand" x1="0" y1="0" x2="1" y2="0"><stop offset="0" stop-color="#4f46e5"/><stop offset="1" stop-color="#7c3aed"/></linearGradient><linearGradient id="g_cos" x1="0" y1="0" x2="1" y2="0"><stop offset="0" stop-color="#db2777"/><stop offset="1" stop-color="#9333ea"/></linearGradient><linearGradient id="g_rev" x1="0" y1="0" x2="1" y2="0"><stop offset="0" stop-color="#0d9488"/><stop offset="1" stop-color="#0891b2"/></linearGradient><filter id="cardShadow" x="-30%" y="-30%" width="160%" height="160%"><feDropShadow dx="0" dy="2" stdDeviation="5" flood-color="#0f172a" flood-opacity="0.10"/></filter><filter id="modalShadow" x="-30%" y="-30%" width="160%" height="160%"><feDropShadow dx="0" dy="16" stdDeviation="28" flood-color="#1e1b4b" flood-opacity="0.28"/></filter></defs><rect x="0" y="0" width="2400" height="980" rx="0" fill="#f6f7f9"/><rect x="0" y="0" width="2400" height="60" rx="0" fill="url(#g_brand)"/><text x="28" y="38" font-size="18" fill="#fff" font-weight="bold" text-anchor="start" letter-spacing="0.5">BIG TRICOT</text><circle cx="150" cy="30" r="3" fill="#c7d2fe"/><text x="168" y="38" font-size="13" fill="#e0e7ff" font-weight="normal" text-anchor="start">Rolagem de Fase</text><rect x="1930" y="16" width="250" height="28" rx="14" fill="#ffffff26"/><text x="1948" y="34" font-size="12" fill="#e0e7ff" font-weight="normal" text-anchor="start">🔎  Buscar OP, cliente, romaneio…</text><text x="2200" y="38" font-size="13" fill="#fff" font-weight="normal" text-anchor="end">Marta Costura</text><circle cx="2224" cy="30" r="15" fill="#f472b6"/><text x="2224" y="35.25" font-size="12.0" fill="#fff" font-weight="bold" text-anchor="middle">MC</text><rect x="0" y="60" width="230" height="920" rx="0" fill="#0f1629"/><text x="26" y="98" font-size="15" fill="#fff" font-weight="bold" text-anchor="start">Big Tricot</text><text x="26" y="118" font-size="10.5" fill="#5b6478" font-weight="normal" text-anchor="start" letter-spacing="1">Produção</text><text x="34" y="153" font-size="13" fill="#7b8499" font-weight="normal" text-anchor="start">◧</text><text x="58" y="153" font-size="13.5" fill="#aeb6c7" font-weight="normal" text-anchor="start">Visão geral</text><rect x="14" y="172" width="202" height="38" rx="10" fill="#6366f11f"/><rect x="14" y="172" width="3" height="38" rx="2" fill="#f472b6"/><text x="34" y="197" font-size="13" fill="#fbcfe8" font-weight="normal" text-anchor="start">🧵</text><text x="58" y="197" font-size="13.5" fill="#fff" font-weight="bold" text-anchor="start">Costura</text><text x="34" y="241" font-size="13" fill="#7b8499" font-weight="normal" text-anchor="start">🔎</text><text x="58" y="241" font-size="13.5" fill="#aeb6c7" font-weight="normal" text-anchor="start">Revisão</text><text x="34" y="285" font-size="13" fill="#7b8499" font-weight="normal" text-anchor="start">📋</text><text x="58" y="285" font-size="13.5" fill="#aeb6c7" font-weight="normal" text-anchor="start">Romaneios</text><text x="34" y="329" font-size="13" fill="#7b8499" font-weight="normal" text-anchor="start">👥</text><text x="58" y="329" font-size="13.5" fill="#aeb6c7" font-weight="normal" text-anchor="start">Costureiras</text><text x="258" y="96" font-size="24" fill="#0f172a" font-weight="bold" text-anchor="start">Costura</text><text x="258" y="118" font-size="12" fill="#94a3b8" font-weight="normal" text-anchor="start">Produção  ›  Costura</text><text x="258" y="150" font-size="12" fill="#475569" font-weight="normal" text-anchor="start">Cada costureira é uma coluna. No retorno, o funcionário confere: OK → Revisão; com defeito → Voltou com problemas.</text><rect x="1558" y="86" width="220" height="40" rx="10" fill="url(#g_cos)"/><text x="1668" y="111" font-size="13.5" fill="#fff" font-weight="bold" text-anchor="middle">＋  Nova costureira</text><rect x="258" y="170" width="236" height="60" rx="14" fill="#ffffff" stroke="#eef0f4" stroke-width="1" filter="url(#cardShadow)"/><rect x="258" y="182" width="4" height="32" rx="2" fill="#9333ea"/><text x="278" y="206" font-size="22" fill="#0f172a" font-weight="bold" text-anchor="start">5</text><text x="278" y="223" font-size="11.5" fill="#64748b" font-weight="normal" text-anchor="start">Em costura</text><rect x="508" y="170" width="236" height="60" rx="14" fill="#ffffff" stroke="#eef0f4" stroke-width="1" filter="url(#cardShadow)"/><rect x="508" y="182" width="4" height="32" rx="2" fill="#f59e0b"/><text x="528" y="206" font-size="22" fill="#0f172a" font-weight="bold" text-anchor="start">3</text><text x="528" y="223" font-size="11.5" fill="#64748b" font-weight="normal" text-anchor="start">Conferir retorno</text><rect x="758" y="170" width="236" height="60" rx="14" fill="#ffffff" stroke="#eef0f4" stroke-width="1" filter="url(#cardShadow)"/><rect x="758" y="182" width="4" height="32" rx="2" fill="#ef4444"/><text x="778" y="206" font-size="22" fill="#0f172a" font-weight="bold" text-anchor="start">2</text><text x="778" y="223" font-size="11.5" fill="#64748b" font-weight="normal" text-anchor="start">Voltou c/ problema</text><rect x="1008" y="170" width="236" height="60" rx="14" fill="#ffffff" stroke="#eef0f4" stroke-width="1" filter="url(#cardShadow)"/><rect x="1008" y="182" width="4" height="32" rx="2" fill="#10b981"/><text x="1028" y="206" font-size="22" fill="#0f172a" font-weight="bold" text-anchor="start">6</text><text x="1028" y="223" font-size="11.5" fill="#64748b" font-weight="normal" text-anchor="start">OK p/ Revisão hoje</text><rect x="258" y="250" width="290" height="700" rx="16" fill="#f1f3f7"/><rect x="258" y="250" width="290" height="56" rx="16" fill="#ec4899"/><rect x="258" y="290" width="290" height="16" rx="0" fill="#ec4899"/><circle cx="286" cy="278" r="16" fill="#ffffff33"/><text x="286" y="283.6" font-size="12.8" fill="#fff" font-weight="bold" text-anchor="middle">SI</text><text x="310" y="275" font-size="14" fill="#fff" font-weight="bold" text-anchor="start">Silvia</text><text x="310" y="293" font-size="10" fill="#ffffffcc" font-weight="normal" text-anchor="start">210 pç · 2 OP</text><rect x="510" y="268" width="26" height="22" rx="11" fill="#ffffff33"/><text x="523" y="283" font-size="12" fill="#fff" font-weight="bold" text-anchor="middle">2</text><rect x="267" y="316" width="272" height="170" rx="14" fill="#ffffff" stroke="#eef0f4" stroke-width="1" filter="url(#cardShadow)"/><rect x="267" y="316" width="272" height="6" rx="14" fill="#ec4899"/><rect x="267" y="319" width="272" height="3" rx="0" fill="#ec4899"/><text x="281" y="346" font-size="12.5" fill="#0f172a" font-weight="bold" text-anchor="start" letter-spacing="0.3">OP-1009</text><rect x="496.2" y="333" width="28.799999999999997" height="17" rx="8" fill="#cffafe"/><text x="510.6" y="345" font-size="9" fill="#0e7490" font-weight="bold" text-anchor="middle">KIT</text><text x="281" y="366" font-size="13" fill="#0f172a" font-weight="bold" text-anchor="start">Loja V</text><text x="281" y="384" font-size="10.5" fill="#64748b" font-weight="normal" text-anchor="start">Touca · TC01 · 90 pç</text><rect x="281" y="396" width="50.0" height="17" rx="8" fill="#f1f5f9"/><text x="290" y="408" font-size="9" fill="#475569" font-weight="bold" text-anchor="start">📋 R-214</text><text x="525" y="408" font-size="9.5" fill="#94a3b8" font-weight="normal" text-anchor="end">entrega 21/06</text><rect x="281" y="420" width="128" height="18" rx="9" fill="#fff7ed"/><circle cx="291" cy="429" r="3" fill="#f59e0b"/><text x="300" y="433" font-size="9.5" fill="#b45309" font-weight="bold" text-anchor="start">Conferir retorno</text><rect x="281" y="452" width="118.0" height="27" rx="8" fill="#10b981"/><text x="340.0" y="469.28" font-size="9.5" fill="#fff" font-weight="bold" text-anchor="middle">✓ OK p/ Revisão</text><rect x="407.0" y="452" width="118.0" height="27" rx="8" fill="#ef4444"/><text x="466.0" y="469.28" font-size="9.5" fill="#fff" font-weight="bold" text-anchor="middle">⚠ Problema</text><rect x="267" y="498" width="272" height="170" rx="14" fill="#ffffff" stroke="#eef0f4" stroke-width="1" filter="url(#cardShadow)"/><rect x="267" y="498" width="272" height="6" rx="14" fill="#ec4899"/><rect x="267" y="501" width="272" height="3" rx="0" fill="#ec4899"/><text x="281" y="528" font-size="12.5" fill="#0f172a" font-weight="bold" text-anchor="start" letter-spacing="0.3">OP-0995</text><text x="281" y="548" font-size="13" fill="#0f172a" font-weight="bold" text-anchor="start">Cliente B</text><text x="281" y="566" font-size="10.5" fill="#64748b" font-weight="normal" text-anchor="start">Cachecol · CC07 · 120 pç</text><rect x="281" y="578" width="50.0" height="17" rx="8" fill="#f1f5f9"/><text x="290" y="590" font-size="9" fill="#475569" font-weight="bold" text-anchor="start">📋 R-218</text><text x="525" y="590" font-size="9.5" fill="#94a3b8" font-weight="normal" text-anchor="end">entrega 25/06</text><rect x="281" y="602" width="92" height="18" rx="9" fill="#eef2ff"/><circle cx="291" cy="611" r="3" fill="#6366f1"/><text x="300" y="615" font-size="9.5" fill="#4338ca" font-weight="bold" text-anchor="start">Em costura</text><rect x="281" y="634" width="244" height="27" rx="8" fill="#475569"/><text x="403.0" y="651.28" font-size="10.5" fill="#fff" font-weight="bold" text-anchor="middle">📥 Recebi o retorno</text><rect x="560" y="250" width="290" height="700" rx="16" fill="#f1f3f7"/><rect x="560" y="250" width="290" height="56" rx="16" fill="#8b5cf6"/><rect x="560" y="290" width="290" height="16" rx="0" fill="#8b5cf6"/><circle cx="588" cy="278" r="16" fill="#ffffff33"/><text x="588" y="283.6" font-size="12.8" fill="#fff" font-weight="bold" text-anchor="middle">AN</text><text x="612" y="275" font-size="14" fill="#fff" font-weight="bold" text-anchor="start">Angélica</text><text x="612" y="293" font-size="10" fill="#ffffffcc" font-weight="normal" text-anchor="start">90 pç · 1 OP</text><rect x="812" y="268" width="26" height="22" rx="11" fill="#ffffff33"/><text x="825" y="283" font-size="12" fill="#fff" font-weight="bold" text-anchor="middle">1</text><rect x="569" y="316" width="272" height="170" rx="14" fill="#ffffff" stroke="#eef0f4" stroke-width="1" filter="url(#cardShadow)"/><rect x="569" y="316" width="272" height="6" rx="14" fill="#8b5cf6"/><rect x="569" y="319" width="272" height="3" rx="0" fill="#8b5cf6"/><text x="583" y="346" font-size="12.5" fill="#0f172a" font-weight="bold" text-anchor="start" letter-spacing="0.3">OP-0990</text><rect x="787.0" y="333" width="40.0" height="17" rx="8" fill="#ede9fe"/><text x="807.0" y="345" font-size="9" fill="#6d28d9" font-weight="bold" text-anchor="middle">P1+P2</text><text x="583" y="366" font-size="13" fill="#0f172a" font-weight="bold" text-anchor="start">Atacado D</text><text x="583" y="384" font-size="10.5" fill="#64748b" font-weight="normal" text-anchor="start">Cardigã · CG04 · 90 pç</text><rect x="583" y="396" width="50.0" height="17" rx="8" fill="#f1f5f9"/><text x="592" y="408" font-size="9" fill="#475569" font-weight="bold" text-anchor="start">📋 R-221</text><text x="827" y="408" font-size="9.5" fill="#94a3b8" font-weight="normal" text-anchor="end">entrega 24/06</text><rect x="583" y="420" width="92" height="18" rx="9" fill="#eef2ff"/><circle cx="593" cy="429" r="3" fill="#6366f1"/><text x="602" y="433" font-size="9.5" fill="#4338ca" font-weight="bold" text-anchor="start">Em costura</text><rect x="583" y="452" width="244" height="27" rx="8" fill="#475569"/><text x="705.0" y="469.28" font-size="10.5" fill="#fff" font-weight="bold" text-anchor="middle">📥 Recebi o retorno</text><rect x="862" y="250" width="290" height="700" rx="16" fill="#f1f3f7"/><rect x="862" y="250" width="290" height="56" rx="16" fill="#10b981"/><rect x="862" y="290" width="290" height="16" rx="0" fill="#10b981"/><circle cx="890" cy="278" r="16" fill="#ffffff33"/><text x="890" y="283.6" font-size="12.8" fill="#fff" font-weight="bold" text-anchor="middle">BE</text><text x="914" y="275" font-size="14" fill="#fff" font-weight="bold" text-anchor="start">Bene</text><text x="914" y="293" font-size="10" fill="#ffffffcc" font-weight="normal" text-anchor="start">260 pç · 2 OP</text><rect x="1114" y="268" width="26" height="22" rx="11" fill="#ffffff33"/><text x="1127" y="283" font-size="12" fill="#fff" font-weight="bold" text-anchor="middle">2</text><rect x="871" y="316" width="272" height="170" rx="14" fill="#ffffff" stroke="#eef0f4" stroke-width="1" filter="url(#cardShadow)"/><rect x="871" y="316" width="272" height="6" rx="14" fill="#10b981"/><rect x="871" y="319" width="272" height="3" rx="0" fill="#10b981"/><text x="885" y="346" font-size="12.5" fill="#0f172a" font-weight="bold" text-anchor="start" letter-spacing="0.3">OP-0988</text><text x="885" y="366" font-size="13" fill="#0f172a" font-weight="bold" text-anchor="start">Loja E</text><text x="885" y="384" font-size="10.5" fill="#64748b" font-weight="normal" text-anchor="start">Blusa · BT12 · 60 pç</text><rect x="885" y="396" width="50.0" height="17" rx="8" fill="#f1f5f9"/><text x="894" y="408" font-size="9" fill="#475569" font-weight="bold" text-anchor="start">📋 R-219</text><text x="1129" y="408" font-size="9.5" fill="#94a3b8" font-weight="normal" text-anchor="end">entrega 23/06</text><rect x="885" y="420" width="128" height="18" rx="9" fill="#fff7ed"/><circle cx="895" cy="429" r="3" fill="#f59e0b"/><text x="904" y="433" font-size="9.5" fill="#b45309" font-weight="bold" text-anchor="start">Conferir retorno</text><rect x="885" y="452" width="118.0" height="27" rx="8" fill="#10b981"/><text x="944.0" y="469.28" font-size="9.5" fill="#fff" font-weight="bold" text-anchor="middle">✓ OK p/ Revisão</text><rect x="1011.0" y="452" width="118.0" height="27" rx="8" fill="#ef4444"/><text x="1070.0" y="469.28" font-size="9.5" fill="#fff" font-weight="bold" text-anchor="middle">⚠ Problema</text><rect x="871" y="498" width="272" height="170" rx="14" fill="#ffffff" stroke="#eef0f4" stroke-width="1" filter="url(#cardShadow)"/><rect x="871" y="498" width="272" height="6" rx="14" fill="#10b981"/><rect x="871" y="501" width="272" height="3" rx="0" fill="#10b981"/><text x="885" y="528" font-size="12.5" fill="#0f172a" font-weight="bold" text-anchor="start" letter-spacing="0.3">OP-1015</text><rect x="1089.0" y="515" width="40.0" height="17" rx="8" fill="#ede9fe"/><text x="1109.0" y="527" font-size="9" fill="#6d28d9" font-weight="bold" text-anchor="middle">P1+P2</text><text x="885" y="548" font-size="13" fill="#0f172a" font-weight="bold" text-anchor="start">Loja W</text><text x="885" y="566" font-size="10.5" fill="#64748b" font-weight="normal" text-anchor="start">Cardigã · CG04 · 200 pç</text><rect x="885" y="578" width="50.0" height="17" rx="8" fill="#f1f5f9"/><text x="894" y="590" font-size="9" fill="#475569" font-weight="bold" text-anchor="start">📋 R-222</text><text x="1129" y="590" font-size="9.5" fill="#94a3b8" font-weight="normal" text-anchor="end">entrega 27/06</text><rect x="885" y="602" width="92" height="18" rx="9" fill="#eef2ff"/><circle cx="895" cy="611" r="3" fill="#6366f1"/><text x="904" y="615" font-size="9.5" fill="#4338ca" font-weight="bold" text-anchor="start">Em costura</text><rect x="885" y="634" width="244" height="27" rx="8" fill="#475569"/><text x="1007.0" y="651.28" font-size="10.5" fill="#fff" font-weight="bold" text-anchor="middle">📥 Recebi o retorno</text><rect x="1164" y="250" width="290" height="700" rx="16" fill="#f1f3f7"/><rect x="1164" y="250" width="290" height="56" rx="16" fill="#f59e0b"/><rect x="1164" y="290" width="290" height="16" rx="0" fill="#f59e0b"/><circle cx="1192" cy="278" r="16" fill="#ffffff33"/><text x="1192" y="283.6" font-size="12.8" fill="#fff" font-weight="bold" text-anchor="middle">NI</text><text x="1216" y="275" font-size="14" fill="#fff" font-weight="bold" text-anchor="start">Nice</text><text x="1216" y="293" font-size="10" fill="#ffffffcc" font-weight="normal" text-anchor="start">60 pç · 1 OP</text><rect x="1416" y="268" width="26" height="22" rx="11" fill="#ffffff33"/><text x="1429" y="283" font-size="12" fill="#fff" font-weight="bold" text-anchor="middle">1</text><rect x="1173" y="316" width="272" height="170" rx="14" fill="#ffffff" stroke="#eef0f4" stroke-width="1" filter="url(#cardShadow)"/><rect x="1173" y="316" width="272" height="6" rx="14" fill="#f59e0b"/><rect x="1173" y="319" width="272" height="3" rx="0" fill="#f59e0b"/><text x="1187" y="346" font-size="12.5" fill="#0f172a" font-weight="bold" text-anchor="start" letter-spacing="0.3">OP-1031</text><rect x="1402.2" y="333" width="28.799999999999997" height="17" rx="8" fill="#cffafe"/><text x="1416.6" y="345" font-size="9" fill="#0e7490" font-weight="bold" text-anchor="middle">KIT</text><text x="1187" y="366" font-size="13" fill="#0f172a" font-weight="bold" text-anchor="start">Malharia F</text><text x="1187" y="384" font-size="10.5" fill="#64748b" font-weight="normal" text-anchor="start">Cachecol · CC07 · 60 pç</text><rect x="1187" y="396" width="50.0" height="17" rx="8" fill="#f1f5f9"/><text x="1196" y="408" font-size="9" fill="#475569" font-weight="bold" text-anchor="start">📋 R-220</text><text x="1431" y="408" font-size="9.5" fill="#94a3b8" font-weight="normal" text-anchor="end">entrega 23/06</text><rect x="1187" y="420" width="92" height="18" rx="9" fill="#eef2ff"/><circle cx="1197" cy="429" r="3" fill="#6366f1"/><text x="1206" y="433" font-size="9.5" fill="#4338ca" font-weight="bold" text-anchor="start">Em costura</text><rect x="1187" y="452" width="244" height="27" rx="8" fill="#475569"/><text x="1309.0" y="469.28" font-size="10.5" fill="#fff" font-weight="bold" text-anchor="middle">📥 Recebi o retorno</text><rect x="1466" y="250" width="290" height="700" rx="16" fill="#f1f3f7"/><rect x="1466" y="250" width="290" height="56" rx="16" fill="#3b82f6"/><rect x="1466" y="290" width="290" height="16" rx="0" fill="#3b82f6"/><circle cx="1494" cy="278" r="16" fill="#ffffff33"/><text x="1494" y="283.6" font-size="12.8" fill="#fff" font-weight="bold" text-anchor="middle">CR</text><text x="1518" y="275" font-size="14" fill="#fff" font-weight="bold" text-anchor="start">Cris</text><text x="1518" y="293" font-size="10" fill="#ffffffcc" font-weight="normal" text-anchor="start">300 pç · 1 OP</text><rect x="1718" y="268" width="26" height="22" rx="11" fill="#ffffff33"/><text x="1731" y="283" font-size="12" fill="#fff" font-weight="bold" text-anchor="middle">1</text><rect x="1475" y="316" width="272" height="170" rx="14" fill="#ffffff" stroke="#eef0f4" stroke-width="1" filter="url(#cardShadow)"/><rect x="1475" y="316" width="272" height="6" rx="14" fill="#3b82f6"/><rect x="1475" y="319" width="272" height="3" rx="0" fill="#3b82f6"/><text x="1489" y="346" font-size="12.5" fill="#0f172a" font-weight="bold" text-anchor="start" letter-spacing="0.3">OP-1042</text><rect x="1693.0" y="333" width="40.0" height="17" rx="8" fill="#ede9fe"/><text x="1713.0" y="345" font-size="9" fill="#6d28d9" font-weight="bold" text-anchor="middle">P1+P2</text><text x="1489" y="366" font-size="13" fill="#0f172a" font-weight="bold" text-anchor="start">Loja K</text><text x="1489" y="384" font-size="10.5" fill="#64748b" font-weight="normal" text-anchor="start">Blusa · BT12 · 300 pç</text><rect x="1489" y="396" width="50.0" height="17" rx="8" fill="#f1f5f9"/><text x="1498" y="408" font-size="9" fill="#475569" font-weight="bold" text-anchor="start">📋 R-223</text><text x="1733" y="408" font-size="9.5" fill="#94a3b8" font-weight="normal" text-anchor="end">entrega 22/06</text><rect x="1489" y="420" width="128" height="18" rx="9" fill="#fff7ed"/><circle cx="1499" cy="429" r="3" fill="#f59e0b"/><text x="1508" y="433" font-size="9.5" fill="#b45309" font-weight="bold" text-anchor="start">Conferir retorno</text><rect x="1489" y="452" width="118.0" height="27" rx="8" fill="#10b981"/><text x="1548.0" y="469.28" font-size="9.5" fill="#fff" font-weight="bold" text-anchor="middle">✓ OK p/ Revisão</text><rect x="1615.0" y="452" width="118.0" height="27" rx="8" fill="#ef4444"/><text x="1674.0" y="469.28" font-size="9.5" fill="#fff" font-weight="bold" text-anchor="middle">⚠ Problema</text><rect x="1768" y="250" width="290" height="700" rx="16" fill="#fff5f5" stroke="#fecaca" stroke-width="1.5"/><rect x="1768" y="250" width="290" height="56" rx="16" fill="#ef4444"/><rect x="1768" y="290" width="290" height="16" rx="0" fill="#ef4444"/><text x="1790" y="276" font-size="13.5" fill="#fff" font-weight="bold" text-anchor="start">⚠ Voltou com problemas</text><text x="1790" y="294" font-size="10" fill="#fee2e2" font-weight="normal" text-anchor="start">defeito na conferência</text><rect x="2020" y="268" width="26" height="22" rx="11" fill="#ffffff33"/><text x="2033" y="283" font-size="12" fill="#fff" font-weight="bold" text-anchor="middle">2</text><rect x="1777" y="316" width="272" height="170" rx="14" fill="#ffffff" stroke="#eef0f4" stroke-width="1" filter="url(#cardShadow)"/><rect x="1777" y="316" width="272" height="6" rx="14" fill="#ef4444"/><rect x="1777" y="319" width="272" height="3" rx="0" fill="#ef4444"/><text x="1791" y="346" font-size="12.5" fill="#0f172a" font-weight="bold" text-anchor="start" letter-spacing="0.3">OP-0980</text><text x="1791" y="366" font-size="13" fill="#0f172a" font-weight="bold" text-anchor="start">Loja A</text><text x="1791" y="384" font-size="10.5" fill="#64748b" font-weight="normal" text-anchor="start">Suéter · SU11 · 45 pç</text><rect x="1791" y="394" width="244" height="40" rx="8" fill="#fef2f2" stroke="#fecaca" stroke-width="1"/><text x="1801" y="411" font-size="8.5" fill="#dc2626" font-weight="bold" text-anchor="start" letter-spacing="0.4">⚠ DEFEITO</text><text x="1801" y="427" font-size="10" fill="#b91c1c" font-weight="normal" text-anchor="start">Costura torta na manga (Cris)</text><rect x="1791" y="452" width="244" height="27" rx="8" fill="#db2777"/><text x="1913.0" y="469.28" font-size="10.5" fill="#fff" font-weight="bold" text-anchor="middle">↩ Reenviar p/ costureira</text><rect x="1777" y="498" width="272" height="170" rx="14" fill="#ffffff" stroke="#eef0f4" stroke-width="1" filter="url(#cardShadow)"/><rect x="1777" y="498" width="272" height="6" rx="14" fill="#ef4444"/><rect x="1777" y="501" width="272" height="3" rx="0" fill="#ef4444"/><text x="1791" y="528" font-size="12.5" fill="#0f172a" font-weight="bold" text-anchor="start" letter-spacing="0.3">OP-0970</text><rect x="2006.2" y="515" width="28.799999999999997" height="17" rx="8" fill="#cffafe"/><text x="2020.6" y="527" font-size="9" fill="#0e7490" font-weight="bold" text-anchor="middle">KIT</text><text x="1791" y="548" font-size="13" fill="#0f172a" font-weight="bold" text-anchor="start">Loja H</text><text x="1791" y="566" font-size="10.5" fill="#64748b" font-weight="normal" text-anchor="start">Gorro · GR02 · 30 pç</text><rect x="1791" y="576" width="244" height="40" rx="8" fill="#fef2f2" stroke="#fecaca" stroke-width="1"/><text x="1801" y="593" font-size="8.5" fill="#dc2626" font-weight="bold" text-anchor="start" letter-spacing="0.4">⚠ DEFEITO</text><text x="1801" y="609" font-size="10" fill="#b91c1c" font-weight="normal" text-anchor="start">Falha no fechamento (Nice)</text><rect x="1791" y="634" width="244" height="27" rx="8" fill="#db2777"/><text x="1913.0" y="651.28" font-size="10.5" fill="#fff" font-weight="bold" text-anchor="middle">↩ Reenviar p/ costureira</text><rect x="2070" y="250" width="290" height="700" rx="16" fill="#f8f7fb" stroke="#d8b4fe" stroke-width="2" stroke-dasharray="7 6"/><circle cx="2215.0" cy="550.0" r="30" fill="#f3e8ff"/><text x="2215.0" y="560.0" font-size="28" fill="#9333ea" font-weight="normal" text-anchor="middle">＋</text><text x="2215.0" y="612.0" font-size="13.5" fill="#7c3aed" font-weight="bold" text-anchor="middle">Cadastrar nova</text><text x="2215.0" y="631.0" font-size="13.5" fill="#7c3aed" font-weight="bold" text-anchor="middle">costureira</text><rect x="2137.0" y="650.0" width="156" height="36" rx="10" fill="url(#g_cos)"/><text x="2215.0" y="673.0" font-size="12" fill="#fff" font-weight="bold" text-anchor="middle">＋  Nova costureira</text><text x="258" y="968" font-size="11.5" fill="#94a3b8" font-weight="normal" text-anchor="start">Conferência no retorno: ✓ OK envia para a Revisão · ⚠ Problema move para 'Voltou com problemas' (reenviar à costureira).</text></svg>