<svg xmlns="http://www.w3.org/2000/svg" width="2560" height="980" viewBox="0 0 2560 980" font-family="Inter, Segoe UI, Helvetica, Arial, sans-serif"><defs><linearGradient id="g_p12" x1="0" y1="0" x2="1" y2="0"><stop offset="0" stop-color="#4f46e5"/><stop offset="1" stop-color="#a855f7"/></linearGradient><linearGradient id="g_kit" x1="0" y1="0" x2="1" y2="0"><stop offset="0" stop-color="#0891b2"/><stop offset="1" stop-color="#06b6d4"/></linearGradient><linearGradient id="g_uni" x1="0" y1="0" x2="1" y2="0"><stop offset="0" stop-color="#475569"/><stop offset="1" stop-color="#64748b"/></linearGradient><linearGradient id="g_brand" x1="0" y1="0" x2="1" y2="0"><stop offset="0" stop-color="#4f46e5"/><stop offset="1" stop-color="#7c3aed"/></linearGradient><linearGradient id="g_tr" x1="0" y1="0" x2="1" y2="0"><stop offset="0" stop-color="#1d4ed8"/><stop offset="1" stop-color="#0891b2"/></linearGradient><filter id="cardShadow" x="-30%" y="-30%" width="160%" height="160%"><feDropShadow dx="0" dy="2" stdDeviation="5" flood-color="#0f172a" flood-opacity="0.10"/></filter><filter id="modalShadow" x="-30%" y="-30%" width="160%" height="160%"><feDropShadow dx="0" dy="16" stdDeviation="28" flood-color="#1e1b4b" flood-opacity="0.28"/></filter></defs><rect x="0" y="0" width="2560" height="980" rx="0" fill="#f6f7f9"/><rect x="0" y="0" width="2560" height="60" rx="0" fill="url(#g_brand)"/><text x="28" y="38" font-size="18" fill="#fff" font-weight="bold" text-anchor="start" letter-spacing="0.5">BIG TRICOT</text><circle cx="150" cy="30" r="3" fill="#c7d2fe"/><text x="168" y="38" font-size="13" fill="#e0e7ff" font-weight="normal" text-anchor="start">Rolagem de Fase</text><rect x="2090" y="16" width="250" height="28" rx="14" fill="#ffffff26"/><text x="2108" y="34" font-size="12" fill="#e0e7ff" font-weight="normal" text-anchor="start">🔎  Buscar OP, NF, rastreio…</text><text x="2360" y="38" font-size="13" fill="#fff" font-weight="normal" text-anchor="end">Léo Logística</text><circle cx="2384" cy="30" r="15" fill="#38bdf8"/><text x="2384" y="35.25" font-size="11.700000000000001" fill="#fff" font-weight="bold" text-anchor="middle">LL</text><rect x="0" y="60" width="230" height="920" rx="0" fill="#0f1629"/><text x="26" y="98" font-size="15" fill="#fff" font-weight="bold" text-anchor="start">Big Tricot</text><text x="26" y="118" font-size="10.5" fill="#5b6478" font-weight="normal" text-anchor="start" letter-spacing="1">Produção</text><text x="34" y="153" font-size="13" fill="#7b8499" font-weight="normal" text-anchor="start">◧</text><text x="58" y="153" font-size="13.5" fill="#aeb6c7" font-weight="normal" text-anchor="start">Visão geral</text><text x="34" y="197" font-size="13" fill="#7b8499" font-weight="normal" text-anchor="start">📦</text><text x="58" y="197" font-size="13.5" fill="#aeb6c7" font-weight="normal" text-anchor="start">Expedição</text><text x="34" y="241" font-size="13" fill="#7b8499" font-weight="normal" text-anchor="start">🧾</text><text x="58" y="241" font-size="13.5" fill="#aeb6c7" font-weight="normal" text-anchor="start">Fiscal</text><rect x="14" y="260" width="202" height="38" rx="10" fill="#6366f11f"/><rect x="14" y="260" width="3" height="38" rx="2" fill="#38bdf8"/><text x="34" y="285" font-size="13" fill="#bae6fd" font-weight="normal" text-anchor="start">🚚</text><text x="58" y="285" font-size="13.5" fill="#fff" font-weight="bold" text-anchor="start">Transporte</text><text x="34" y="329" font-size="13" fill="#7b8499" font-weight="normal" text-anchor="start">📋</text><text x="58" y="329" font-size="13.5" fill="#aeb6c7" font-weight="normal" text-anchor="start">Romaneios</text><text x="258" y="96" font-size="24" fill="#0f172a" font-weight="bold" text-anchor="start">Transporte</text><text x="258" y="118" font-size="12" fill="#94a3b8" font-weight="normal" text-anchor="start">Produção  ›  Transporte</text><text x="258" y="150" font-size="12" fill="#475569" font-weight="normal" text-anchor="start">Pedidos com NF emitida entram em 'A serem enviados'. Atribua a transportadora (cada uma é uma coluna) e acompanhe até a entrega.</text><rect x="1638" y="86" width="250" height="40" rx="10" fill="url(#g_tr)"/><text x="1763" y="111" font-size="13.5" fill="#fff" font-weight="bold" text-anchor="middle">＋  Nova transportadora</text><rect x="258" y="170" width="236" height="60" rx="14" fill="#ffffff" stroke="#eef0f4" stroke-width="1" filter="url(#cardShadow)"/><rect x="258" y="182" width="4" height="32" rx="2" fill="#f59e0b"/><text x="278" y="206" font-size="22" fill="#0f172a" font-weight="bold" text-anchor="start">3</text><text x="278" y="223" font-size="11.5" fill="#64748b" font-weight="normal" text-anchor="start">A enviar</text><rect x="508" y="170" width="236" height="60" rx="14" fill="#ffffff" stroke="#eef0f4" stroke-width="1" filter="url(#cardShadow)"/><rect x="508" y="182" width="4" height="32" rx="2" fill="#3b82f6"/><text x="528" y="206" font-size="22" fill="#0f172a" font-weight="bold" text-anchor="start">3</text><text x="528" y="223" font-size="11.5" fill="#64748b" font-weight="normal" text-anchor="start">Em rota</text><rect x="758" y="170" width="236" height="60" rx="14" fill="#ffffff" stroke="#eef0f4" stroke-width="1" filter="url(#cardShadow)"/><rect x="758" y="182" width="4" height="32" rx="2" fill="#10b981"/><text x="778" y="206" font-size="22" fill="#0f172a" font-weight="bold" text-anchor="start">9</text><text x="778" y="223" font-size="11.5" fill="#64748b" font-weight="normal" text-anchor="start">Entregues hoje</text><rect x="1008" y="170" width="236" height="60" rx="14" fill="#ffffff" stroke="#eef0f4" stroke-width="1" filter="url(#cardShadow)"/><rect x="1008" y="182" width="4" height="32" rx="2" fill="#0891b2"/><text x="1028" y="206" font-size="22" fill="#0f172a" font-weight="bold" text-anchor="start">6</text><text x="1028" y="223" font-size="11.5" fill="#64748b" font-weight="normal" text-anchor="start">Transportadoras</text><rect x="258" y="250" width="272" height="700" rx="16" fill="#fffaf0" stroke="#fcd9a3" stroke-width="1.5"/><rect x="258" y="250" width="272" height="56" rx="16" fill="#f59e0b"/><rect x="258" y="290" width="272" height="16" rx="0" fill="#f59e0b"/><text x="278" y="276" font-size="12" fill="#fff" font-weight="bold" text-anchor="start">Pedidos a serem enviados</text><text x="278" y="294" font-size="10" fill="#fff7e6" font-weight="normal" text-anchor="start">NF emitida (do Fiscal)</text><rect x="492" y="268" width="26" height="22" rx="11" fill="#ffffff33"/><text x="505" y="283" font-size="12" fill="#fff" font-weight="bold" text-anchor="middle">3</text><rect x="268" y="316" width="252" height="158" rx="14" fill="#ffffff" stroke="#eef0f4" stroke-width="1" filter="url(#cardShadow)"/><rect x="268" y="316" width="252" height="32" rx="14" fill="url(#g_uni)"/><rect x="268" y="334" width="252" height="14" rx="0" fill="url(#g_uni)"/><text x="280" y="337" font-size="12" fill="#fff" font-weight="bold" text-anchor="start" letter-spacing="0.3">OP-0988</text><rect x="466.0" y="324" width="42.0" height="16" rx="8" fill="#ffffff33"/><text x="487.0" y="336" font-size="8.5" fill="#fff" font-weight="bold" text-anchor="middle">ÚNICO</text><text x="280" y="370" font-size="13" fill="#0f172a" font-weight="bold" text-anchor="start">Loja E</text><text x="280" y="388" font-size="10.5" fill="#64748b" font-weight="normal" text-anchor="start">NF 123463 · 2 vol · 18 kg</text><rect x="280" y="398" width="116.8" height="18" rx="9" fill="#fff7ed"/><circle cx="290" cy="407" r="3" fill="#f59e0b"/><text x="299" y="411" font-size="9.5" fill="#b45309" font-weight="bold" text-anchor="start">Aguardando envio</text><text x="280" y="432" font-size="9.5" fill="#94a3b8" font-weight="normal" text-anchor="start">Frete cotado: R$ 180</text><rect x="280" y="442" width="228" height="26" rx="8" fill="#0d9488"/><text x="394.0" y="458.64" font-size="9.5" fill="#fff" font-weight="bold" text-anchor="middle">🚚 Atribuir transportadora ▾</text><rect x="268" y="486" width="252" height="158" rx="14" fill="#ffffff" stroke="#eef0f4" stroke-width="1" filter="url(#cardShadow)"/><rect x="268" y="486" width="252" height="32" rx="14" fill="url(#g_p12)"/><rect x="268" y="504" width="252" height="14" rx="0" fill="url(#g_p12)"/><text x="280" y="507" font-size="12" fill="#fff" font-weight="bold" text-anchor="start" letter-spacing="0.3">OP-1015</text><rect x="466.0" y="494" width="42.0" height="16" rx="8" fill="#ffffff33"/><text x="487.0" y="506" font-size="8.5" fill="#fff" font-weight="bold" text-anchor="middle">P1+P2</text><text x="280" y="540" font-size="13" fill="#0f172a" font-weight="bold" text-anchor="start">Loja W</text><text x="280" y="558" font-size="10.5" fill="#64748b" font-weight="normal" text-anchor="start">NF 123464 · 5 vol · 41 kg</text><rect x="280" y="568" width="116.8" height="18" rx="9" fill="#fff7ed"/><circle cx="290" cy="577" r="3" fill="#f59e0b"/><text x="299" y="581" font-size="9.5" fill="#b45309" font-weight="bold" text-anchor="start">Aguardando envio</text><text x="280" y="602" font-size="9.5" fill="#94a3b8" font-weight="normal" text-anchor="start">Frete cotado: R$ 420</text><rect x="280" y="612" width="228" height="26" rx="8" fill="#0d9488"/><text x="394.0" y="628.64" font-size="9.5" fill="#fff" font-weight="bold" text-anchor="middle">🚚 Atribuir transportadora ▾</text><rect x="268" y="656" width="252" height="158" rx="14" fill="#ffffff" stroke="#eef0f4" stroke-width="1" filter="url(#cardShadow)"/><rect x="268" y="656" width="252" height="32" rx="14" fill="url(#g_kit)"/><rect x="268" y="674" width="252" height="14" rx="0" fill="url(#g_kit)"/><text x="280" y="677" font-size="12" fill="#fff" font-weight="bold" text-anchor="start" letter-spacing="0.3">OP-1031</text><rect x="478.0" y="664" width="30.0" height="16" rx="8" fill="#ffffff33"/><text x="493.0" y="676" font-size="8.5" fill="#fff" font-weight="bold" text-anchor="middle">KIT</text><text x="280" y="710" font-size="13" fill="#0f172a" font-weight="bold" text-anchor="start">Malharia F</text><text x="280" y="728" font-size="10.5" fill="#64748b" font-weight="normal" text-anchor="start">NF 123465 · 1 vol · 6 kg</text><rect x="280" y="738" width="116.8" height="18" rx="9" fill="#fff7ed"/><circle cx="290" cy="747" r="3" fill="#f59e0b"/><text x="299" y="751" font-size="9.5" fill="#b45309" font-weight="bold" text-anchor="start">Aguardando envio</text><text x="280" y="772" font-size="9.5" fill="#94a3b8" font-weight="normal" text-anchor="start">Frete cotado: R$ 90</text><rect x="280" y="782" width="228" height="26" rx="8" fill="#0d9488"/><text x="394.0" y="798.64" font-size="9.5" fill="#fff" font-weight="bold" text-anchor="middle">🚚 Atribuir transportadora ▾</text><rect x="542" y="250" width="272" height="700" rx="16" fill="#f1f3f7"/><rect x="542" y="250" width="272" height="56" rx="16" fill="#dc2626"/><rect x="542" y="290" width="272" height="16" rx="0" fill="#dc2626"/><circle cx="568" cy="278" r="15" fill="#ffffff33"/><text x="568" y="283.25" font-size="11.700000000000001" fill="#fff" font-weight="bold" text-anchor="middle">BP</text><text x="592" y="276" font-size="12.5" fill="#fff" font-weight="bold" text-anchor="start">Braspress</text><text x="592" y="294" font-size="10" fill="#ffffffcc" font-weight="normal" text-anchor="start">1 envio(s)</text><rect x="778" y="268" width="24" height="22" rx="11" fill="#ffffff33"/><text x="790" y="283" font-size="12" fill="#fff" font-weight="bold" text-anchor="middle">1</text><rect x="552" y="316" width="252" height="158" rx="14" fill="#ffffff" stroke="#eef0f4" stroke-width="1" filter="url(#cardShadow)"/><rect x="552" y="316" width="252" height="32" rx="14" fill="url(#g_uni)"/><rect x="552" y="334" width="252" height="14" rx="0" fill="url(#g_uni)"/><text x="564" y="337" font-size="12" fill="#fff" font-weight="bold" text-anchor="start" letter-spacing="0.3">OP-0978</text><rect x="750.0" y="324" width="42.0" height="16" rx="8" fill="#ffffff33"/><text x="771.0" y="336" font-size="8.5" fill="#fff" font-weight="bold" text-anchor="middle">ÚNICO</text><text x="564" y="370" font-size="13" fill="#0f172a" font-weight="bold" text-anchor="start">Loja P</text><text x="564" y="388" font-size="10.5" fill="#64748b" font-weight="normal" text-anchor="start">NF 123460 · 3 vol</text><rect x="564" y="398" width="64.6" height="18" rx="9" fill="#eff6ff"/><circle cx="574" cy="407" r="3" fill="#3b82f6"/><text x="583" y="411" font-size="9.5" fill="#1d4ed8" font-weight="bold" text-anchor="start">Em rota</text><text x="564" y="432" font-size="9.5" fill="#94a3b8" font-weight="normal" text-anchor="start">Rastreio BR9981-PR</text><rect x="564" y="442" width="228" height="26" rx="8" fill="#10b981"/><text x="678.0" y="458.64" font-size="10" fill="#fff" font-weight="bold" text-anchor="middle">✓ Confirmar entrega</text><rect x="826" y="250" width="272" height="700" rx="16" fill="#f1f3f7"/><rect x="826" y="250" width="272" height="56" rx="16" fill="#2563eb"/><rect x="826" y="290" width="272" height="16" rx="0" fill="#2563eb"/><circle cx="852" cy="278" r="15" fill="#ffffff33"/><text x="852" y="283.25" font-size="11.700000000000001" fill="#fff" font-weight="bold" text-anchor="middle">TL</text><text x="876" y="276" font-size="12.5" fill="#fff" font-weight="bold" text-anchor="start">Translovato</text><text x="876" y="294" font-size="10" fill="#ffffffcc" font-weight="normal" text-anchor="start">1 envio(s)</text><rect x="1062" y="268" width="24" height="22" rx="11" fill="#ffffff33"/><text x="1074" y="283" font-size="12" fill="#fff" font-weight="bold" text-anchor="middle">1</text><rect x="836" y="316" width="252" height="158" rx="14" fill="#ffffff" stroke="#eef0f4" stroke-width="1" filter="url(#cardShadow)"/><rect x="836" y="316" width="252" height="32" rx="14" fill="url(#g_kit)"/><rect x="836" y="334" width="252" height="14" rx="0" fill="url(#g_kit)"/><text x="848" y="337" font-size="12" fill="#fff" font-weight="bold" text-anchor="start" letter-spacing="0.3">OP-0970</text><rect x="1046.0" y="324" width="30.0" height="16" rx="8" fill="#ffffff33"/><text x="1061.0" y="336" font-size="8.5" fill="#fff" font-weight="bold" text-anchor="middle">KIT</text><text x="848" y="370" font-size="13" fill="#0f172a" font-weight="bold" text-anchor="start">Loja H</text><text x="848" y="388" font-size="10.5" fill="#64748b" font-weight="normal" text-anchor="start">NF 123457 · 1 vol</text><rect x="848" y="398" width="122.6" height="18" rx="9" fill="#fff7ed"/><circle cx="858" cy="407" r="3" fill="#f59e0b"/><text x="867" y="411" font-size="9.5" fill="#b45309" font-weight="bold" text-anchor="start">Aguardando coleta</text><text x="848" y="432" font-size="9.5" fill="#94a3b8" font-weight="normal" text-anchor="start">Coleta agendada 19/06</text><rect x="848" y="442" width="228" height="26" rx="8" fill="#3b82f6"/><text x="962.0" y="458.64" font-size="10" fill="#fff" font-weight="bold" text-anchor="middle">📤 Despachar</text><rect x="1110" y="250" width="272" height="700" rx="16" fill="#f1f3f7"/><rect x="1110" y="250" width="272" height="56" rx="16" fill="#7c3aed"/><rect x="1110" y="290" width="272" height="16" rx="0" fill="#7c3aed"/><circle cx="1136" cy="278" r="15" fill="#ffffff33"/><text x="1136" y="283.25" font-size="11.700000000000001" fill="#fff" font-weight="bold" text-anchor="middle">JL</text><text x="1160" y="276" font-size="12.5" fill="#fff" font-weight="bold" text-anchor="start">Jadlog</text><text x="1160" y="294" font-size="10" fill="#ffffffcc" font-weight="normal" text-anchor="start">1 envio(s)</text><rect x="1346" y="268" width="24" height="22" rx="11" fill="#ffffff33"/><text x="1358" y="283" font-size="12" fill="#fff" font-weight="bold" text-anchor="middle">1</text><rect x="1120" y="316" width="252" height="158" rx="14" fill="#ffffff" stroke="#eef0f4" stroke-width="1" filter="url(#cardShadow)"/><rect x="1120" y="316" width="252" height="32" rx="14" fill="url(#g_kit)"/><rect x="1120" y="334" width="252" height="14" rx="0" fill="url(#g_kit)"/><text x="1132" y="337" font-size="12" fill="#fff" font-weight="bold" text-anchor="start" letter-spacing="0.3">OP-0985</text><rect x="1330.0" y="324" width="30.0" height="16" rx="8" fill="#ffffff33"/><text x="1345.0" y="336" font-size="8.5" fill="#fff" font-weight="bold" text-anchor="middle">KIT</text><text x="1132" y="370" font-size="13" fill="#0f172a" font-weight="bold" text-anchor="start">Loja N</text><text x="1132" y="388" font-size="10.5" fill="#64748b" font-weight="normal" text-anchor="start">NF 123461 · 2 vol</text><rect x="1132" y="398" width="64.6" height="18" rx="9" fill="#eff6ff"/><circle cx="1142" cy="407" r="3" fill="#3b82f6"/><text x="1151" y="411" font-size="9.5" fill="#1d4ed8" font-weight="bold" text-anchor="start">Em rota</text><text x="1132" y="432" font-size="9.5" fill="#94a3b8" font-weight="normal" text-anchor="start">Rastreio JL55321</text><rect x="1132" y="442" width="228" height="26" rx="8" fill="#10b981"/><text x="1246.0" y="458.64" font-size="10" fill="#fff" font-weight="bold" text-anchor="middle">✓ Confirmar entrega</text><rect x="1394" y="250" width="272" height="700" rx="16" fill="#f1f3f7"/><rect x="1394" y="250" width="272" height="56" rx="16" fill="#ea580c"/><rect x="1394" y="290" width="272" height="16" rx="0" fill="#ea580c"/><circle cx="1420" cy="278" r="15" fill="#ffffff33"/><text x="1420" y="283.25" font-size="11.700000000000001" fill="#fff" font-weight="bold" text-anchor="middle">CO</text><text x="1444" y="276" font-size="12.5" fill="#fff" font-weight="bold" text-anchor="start">Correios</text><text x="1444" y="294" font-size="10" fill="#ffffffcc" font-weight="normal" text-anchor="start">1 envio(s)</text><rect x="1630" y="268" width="24" height="22" rx="11" fill="#ffffff33"/><text x="1642" y="283" font-size="12" fill="#fff" font-weight="bold" text-anchor="middle">1</text><rect x="1404" y="316" width="252" height="158" rx="14" fill="#ffffff" stroke="#eef0f4" stroke-width="1" filter="url(#cardShadow)"/><rect x="1404" y="316" width="252" height="32" rx="14" fill="url(#g_uni)"/><rect x="1404" y="334" width="252" height="14" rx="0" fill="url(#g_uni)"/><text x="1416" y="337" font-size="12" fill="#fff" font-weight="bold" text-anchor="start" letter-spacing="0.3">OP-0995</text><rect x="1602.0" y="324" width="42.0" height="16" rx="8" fill="#ffffff33"/><text x="1623.0" y="336" font-size="8.5" fill="#fff" font-weight="bold" text-anchor="middle">ÚNICO</text><text x="1416" y="370" font-size="13" fill="#0f172a" font-weight="bold" text-anchor="start">Cliente B</text><text x="1416" y="388" font-size="10.5" fill="#64748b" font-weight="normal" text-anchor="start">NF 123458 · 1 vol</text><rect x="1416" y="398" width="70.4" height="18" rx="9" fill="#ecfdf5"/><circle cx="1426" cy="407" r="3" fill="#10b981"/><text x="1435" y="411" font-size="9.5" fill="#047857" font-weight="bold" text-anchor="start">Entregue</text><text x="1416" y="432" font-size="9.5" fill="#94a3b8" font-weight="normal" text-anchor="start">Entregue 18/06</text><rect x="1416" y="442" width="228" height="26" rx="8" fill="#64748b"/><text x="1530.0" y="458.64" font-size="10" fill="#fff" font-weight="bold" text-anchor="middle">📄 Ver comprovante</text><rect x="1678" y="250" width="272" height="700" rx="16" fill="#f1f3f7"/><rect x="1678" y="250" width="272" height="56" rx="16" fill="#0d9488"/><rect x="1678" y="290" width="272" height="16" rx="0" fill="#0d9488"/><circle cx="1704" cy="278" r="15" fill="#ffffff33"/><text x="1704" y="283.25" font-size="11.700000000000001" fill="#fff" font-weight="bold" text-anchor="middle">CR</text><text x="1728" y="276" font-size="11" fill="#fff" font-weight="bold" text-anchor="start">Cliente retirou</text><text x="1728" y="294" font-size="10" fill="#ffffffcc" font-weight="normal" text-anchor="start">1 envio(s)</text><rect x="1914" y="268" width="24" height="22" rx="11" fill="#ffffff33"/><text x="1926" y="283" font-size="12" fill="#fff" font-weight="bold" text-anchor="middle">1</text><rect x="1688" y="316" width="252" height="158" rx="14" fill="#ffffff" stroke="#eef0f4" stroke-width="1" filter="url(#cardShadow)"/><rect x="1688" y="316" width="252" height="32" rx="14" fill="url(#g_p12)"/><rect x="1688" y="334" width="252" height="14" rx="0" fill="url(#g_p12)"/><text x="1700" y="337" font-size="12" fill="#fff" font-weight="bold" text-anchor="start" letter-spacing="0.3">OP-0990</text><rect x="1886.0" y="324" width="42.0" height="16" rx="8" fill="#ffffff33"/><text x="1907.0" y="336" font-size="8.5" fill="#fff" font-weight="bold" text-anchor="middle">P1+P2</text><text x="1700" y="370" font-size="13" fill="#0f172a" font-weight="bold" text-anchor="start">Atacado D</text><text x="1700" y="388" font-size="10.5" fill="#64748b" font-weight="normal" text-anchor="start">NF 123459 · 4 vol</text><rect x="1700" y="398" width="70.4" height="18" rx="9" fill="#ecfdf5"/><circle cx="1710" cy="407" r="3" fill="#10b981"/><text x="1719" y="411" font-size="9.5" fill="#047857" font-weight="bold" text-anchor="start">Entregue</text><text x="1700" y="432" font-size="9.5" fill="#94a3b8" font-weight="normal" text-anchor="start">Retirado 18/06</text><rect x="1700" y="442" width="228" height="26" rx="8" fill="#64748b"/><text x="1814.0" y="458.64" font-size="10" fill="#fff" font-weight="bold" text-anchor="middle">📄 Ver comprovante</text><rect x="1962" y="250" width="272" height="700" rx="16" fill="#f1f3f7"/><rect x="1962" y="250" width="272" height="56" rx="16" fill="#475569"/><rect x="1962" y="290" width="272" height="16" rx="0" fill="#475569"/><circle cx="1988" cy="278" r="15" fill="#ffffff33"/><text x="1988" y="283.25" font-size="11.700000000000001" fill="#fff" font-weight="bold" text-anchor="middle">TI</text><text x="2012" y="276" font-size="11" fill="#fff" font-weight="bold" text-anchor="start">Transporte interno</text><text x="2012" y="294" font-size="10" fill="#ffffffcc" font-weight="normal" text-anchor="start">1 envio(s)</text><rect x="2198" y="268" width="24" height="22" rx="11" fill="#ffffff33"/><text x="2210" y="283" font-size="12" fill="#fff" font-weight="bold" text-anchor="middle">1</text><rect x="1972" y="316" width="252" height="158" rx="14" fill="#ffffff" stroke="#eef0f4" stroke-width="1" filter="url(#cardShadow)"/><rect x="1972" y="316" width="252" height="32" rx="14" fill="url(#g_kit)"/><rect x="1972" y="334" width="252" height="14" rx="0" fill="url(#g_kit)"/><text x="1984" y="337" font-size="12" fill="#fff" font-weight="bold" text-anchor="start" letter-spacing="0.3">OP-1009</text><rect x="2182.0" y="324" width="30.0" height="16" rx="8" fill="#ffffff33"/><text x="2197.0" y="336" font-size="8.5" fill="#fff" font-weight="bold" text-anchor="middle">KIT</text><text x="1984" y="370" font-size="13" fill="#0f172a" font-weight="bold" text-anchor="start">Loja V</text><text x="1984" y="388" font-size="10.5" fill="#64748b" font-weight="normal" text-anchor="start">NF 123462 · 2 vol</text><rect x="1984" y="398" width="64.6" height="18" rx="9" fill="#eff6ff"/><circle cx="1994" cy="407" r="3" fill="#3b82f6"/><text x="2003" y="411" font-size="9.5" fill="#1d4ed8" font-weight="bold" text-anchor="start">Em rota</text><text x="1984" y="432" font-size="9.5" fill="#94a3b8" font-weight="normal" text-anchor="start">Motorista: Carlos</text><rect x="1984" y="442" width="228" height="26" rx="8" fill="#10b981"/><text x="2098.0" y="458.64" font-size="10" fill="#fff" font-weight="bold" text-anchor="middle">✓ Confirmar entrega</text><rect x="2246" y="250" width="272" height="700" rx="16" fill="#eff8ff" stroke="#7dd3fc" stroke-width="2" stroke-dasharray="7 6"/><circle cx="2382.0" cy="550.0" r="30" fill="#e0f2fe"/><text x="2382.0" y="560.0" font-size="28" fill="#0284c7" font-weight="normal" text-anchor="middle">＋</text><text x="2382.0" y="612.0" font-size="13" fill="#0369a1" font-weight="bold" text-anchor="middle">Cadastrar nova</text><text x="2382.0" y="631.0" font-size="13" fill="#0369a1" font-weight="bold" text-anchor="middle">transportadora</text><rect x="2304.0" y="650.0" width="156" height="36" rx="10" fill="url(#g_tr)"/><text x="2382.0" y="673.0" font-size="12" fill="#fff" font-weight="bold" text-anchor="middle">＋  Nova transp.</text><text x="258" y="968" font-size="11.5" fill="#94a3b8" font-weight="normal" text-anchor="start">Atribuir transportadora → o card vai para a coluna dela. Inclui Correios, Cliente retirou e Transporte interno. 'Nova transportadora' cria mais colunas.</text></svg>