<svg xmlns="http://www.w3.org/2000/svg" width="1180" height="820" viewBox="0 0 1180 820" font-family="Inter, Segoe UI, Helvetica, Arial, sans-serif"><defs><linearGradient id="g_p12" x1="0" y1="0" x2="1" y2="0"><stop offset="0" stop-color="#4f46e5"/><stop offset="1" stop-color="#a855f7"/></linearGradient><linearGradient id="g_kit" x1="0" y1="0" x2="1" y2="0"><stop offset="0" stop-color="#0891b2"/><stop offset="1" stop-color="#06b6d4"/></linearGradient><linearGradient id="g_uni" x1="0" y1="0" x2="1" y2="0"><stop offset="0" stop-color="#475569"/><stop offset="1" stop-color="#64748b"/></linearGradient><linearGradient id="g_brand" x1="0" y1="0" x2="1" y2="0"><stop offset="0" stop-color="#4f46e5"/><stop offset="1" stop-color="#7c3aed"/></linearGradient><linearGradient id="g_tr" x1="0" y1="0" x2="1" y2="0"><stop offset="0" stop-color="#1d4ed8"/><stop offset="1" stop-color="#0891b2"/></linearGradient><filter id="cardShadow" x="-30%" y="-30%" width="160%" height="160%"><feDropShadow dx="0" dy="2" stdDeviation="5" flood-color="#0f172a" flood-opacity="0.10"/></filter><filter id="modalShadow" x="-30%" y="-30%" width="160%" height="160%"><feDropShadow dx="0" dy="16" stdDeviation="28" flood-color="#1e1b4b" flood-opacity="0.28"/></filter></defs><rect x="0" y="0" width="1180" height="820" rx="0" fill="#f6f7f9"/><rect x="0" y="0" width="1180" height="60" rx="0" fill="url(#g_brand)"/><text x="28" y="38" font-size="18" fill="#fff" font-weight="bold" text-anchor="start" letter-spacing="0.5">BIG TRICOT</text><text x="168" y="38" font-size="13" fill="#e0e7ff" font-weight="normal" text-anchor="start">Rolagem de Fase</text><text x="1152" y="38" font-size="13" fill="#fff" font-weight="normal" text-anchor="end">Léo Logística</text><rect x="0" y="60" width="1180" height="760" rx="0" fill="#eceef3"/><rect x="310.0" y="110" width="560" height="560" rx="22" fill="#ffffff" filter="url(#modalShadow)"/><rect x="310.0" y="110" width="560" height="80" rx="22" fill="url(#g_tr)"/><rect x="310.0" y="158" width="560" height="32" rx="0" fill="url(#g_tr)"/><text x="338.0" y="148" font-size="19" fill="#fff" font-weight="bold" text-anchor="start">Cadastrar Transportadora</text><text x="338.0" y="170" font-size="11.5" fill="#cffafe" font-weight="normal" text-anchor="start">Vira uma nova coluna no quadro do Transporte</text><circle cx="830.0" cy="144" r="15" fill="#ffffff2e"/><text x="830.0" y="149" font-size="15" fill="#fff" font-weight="normal" text-anchor="middle">✕</text><text x="338.0" y="218" font-size="9.5" fill="#94a3b8" font-weight="bold" text-anchor="start" letter-spacing="0.6">NOME</text><rect x="338.0" y="226" width="504" height="44" rx="10" fill="#ffffff" stroke="#e2e8f0" stroke-width="1"/><text x="352.0" y="253" font-size="13" fill="#94d3c9" font-weight="normal" text-anchor="start">Ex.: Rodonaves</text><text x="338.0" y="290" font-size="9.5" fill="#94a3b8" font-weight="bold" text-anchor="start" letter-spacing="0.6">TIPO</text><rect x="338.0" y="298" width="244.0" height="44" rx="10" fill="#ffffff" stroke="#e2e8f0" stroke-width="1"/><text x="352.0" y="325" font-size="13" fill="#0f172a" font-weight="bold" text-anchor="start">Transportadora  ▾</text><text x="598.0" y="290" font-size="9.5" fill="#94a3b8" font-weight="bold" text-anchor="start" letter-spacing="0.6">SITE DE RASTREIO</text><rect x="598.0" y="298" width="244.0" height="44" rx="10" fill="#ffffff" stroke="#e2e8f0" stroke-width="1"/><text x="612.0" y="325" font-size="13" fill="#94d3c9" font-weight="normal" text-anchor="start">opcional</text><text x="338.0" y="362" font-size="9.5" fill="#94a3b8" font-weight="bold" text-anchor="start" letter-spacing="0.6">CONTATO / TELEFONE</text><rect x="338.0" y="370" width="504" height="44" rx="10" fill="#ffffff" stroke="#e2e8f0" stroke-width="1"/><text x="352.0" y="397" font-size="13" fill="#94d3c9" font-weight="normal" text-anchor="start">(00) 00000-0000</text><text x="338.0" y="434" font-size="9.5" fill="#94a3b8" font-weight="bold" text-anchor="start" letter-spacing="0.6">COR DA COLUNA</text><circle cx="354.0" cy="464" r="15" fill="#dc2626"/><circle cx="398.0" cy="464" r="15" fill="#2563eb"/><circle cx="398.0" cy="464" r="19" fill="none" stroke="#0f172a" stroke-width="2"/><circle cx="442.0" cy="464" r="15" fill="#7c3aed"/><circle cx="486.0" cy="464" r="15" fill="#ea580c"/><circle cx="530.0" cy="464" r="15" fill="#0d9488"/><circle cx="574.0" cy="464" r="15" fill="#475569"/><circle cx="618.0" cy="464" r="15" fill="#db2777"/><text x="338.0" y="506" font-size="10" fill="#94a3b8" font-weight="normal" text-anchor="start">Tipos: Transportadora · Correios · Cliente retira · Transporte interno</text><rect x="310.0" y="594" width="560" height="76" rx="22" fill="#fafbfc"/><rect x="310.0" y="594" width="560" height="30" rx="0" fill="#fafbfc"/><rect x="338.0" y="606" width="130" height="44" rx="10" fill="#ffffff" stroke="#e2e8f0" stroke-width="1"/><text x="403.0" y="634" font-size="13" fill="#475569" font-weight="bold" text-anchor="middle">Cancelar</text><rect x="572.0" y="606" width="270" height="44" rx="10" fill="url(#g_tr)"/><text x="707.0" y="634" font-size="12.5" fill="#fff" font-weight="bold" text-anchor="middle">💾  Salvar transportadora</text></svg>