<svg xmlns="http://www.w3.org/2000/svg" width="1640" height="940" viewBox="0 0 1640 940" font-family="Inter, Segoe UI, Helvetica, Arial, sans-serif"><defs><linearGradient id="g_est" x1="0" y1="0" x2="1" y2="0"><stop offset="0" stop-color="#d97706"/><stop offset="1" stop-color="#f59e0b"/></linearGradient><linearGradient id="g_kit" x1="0" y1="0" x2="1" y2="0"><stop offset="0" stop-color="#0891b2"/><stop offset="1" stop-color="#06b6d4"/></linearGradient><linearGradient id="g_pe" x1="0" y1="0" x2="1" y2="0"><stop offset="0" stop-color="#059669"/><stop offset="1" stop-color="#10b981"/></linearGradient><linearGradient id="g_pv" x1="0" y1="0" x2="1" y2="0"><stop offset="0" stop-color="#2563eb"/><stop offset="1" stop-color="#3b82f6"/></linearGradient><linearGradient id="g_uni" x1="0" y1="0" x2="1" y2="0"><stop offset="0" stop-color="#475569"/><stop offset="1" stop-color="#64748b"/></linearGradient><linearGradient id="g_brand" x1="0" y1="0" x2="1" y2="0"><stop offset="0" stop-color="#4f46e5"/><stop offset="1" stop-color="#7c3aed"/></linearGradient><filter id="cardShadow" x="-30%" y="-30%" width="160%" height="160%"><feDropShadow dx="0" dy="2" stdDeviation="5" flood-color="#0f172a" flood-opacity="0.10"/></filter><filter id="ph" x="-20%" y="-20%" width="140%" height="140%"><feDropShadow dx="0" dy="10" stdDeviation="22" flood-color="#0f172a" flood-opacity="0.22"/></filter></defs><rect x="0" y="0" width="1640" height="940" rx="0" fill="#f6f7f9"/><rect x="0" y="0" width="1640" height="60" rx="0" fill="url(#g_brand)"/><text x="28" y="38" font-size="18" fill="#fff" font-weight="bold" text-anchor="start" letter-spacing="0.5">BIG TRICOT</text><circle cx="150" cy="30" r="3" fill="#c7d2fe"/><text x="168" y="38" font-size="13" fill="#e0e7ff" font-weight="normal" text-anchor="start">Rolagem de Fase</text><rect x="1170" y="16" width="250" height="28" rx="14" fill="#ffffff26"/><text x="1188" y="34" font-size="12" fill="#e0e7ff" font-weight="normal" text-anchor="start">🔎  Buscar produto, kit, cor…</text><text x="1440" y="38" font-size="13" fill="#fff" font-weight="normal" text-anchor="end">Rê Estoque</text><circle cx="1464" cy="30" r="15" fill="#fbbf24"/><text x="1464" y="35.25" font-size="11.700000000000001" fill="#fff" font-weight="bold" text-anchor="middle">RE</text><rect x="0" y="60" width="230" height="880" rx="0" fill="#0f1629"/><text x="26" y="98" font-size="15" fill="#fff" font-weight="bold" text-anchor="start">Big Tricot</text><text x="26" y="118" font-size="10.5" fill="#5b6478" font-weight="normal" text-anchor="start" letter-spacing="1">Produção</text><text x="34" y="153" font-size="13" fill="#7b8499" font-weight="normal" text-anchor="start">◧</text><text x="58" y="153" font-size="13.5" fill="#aeb6c7" font-weight="normal" text-anchor="start">Visão geral</text><text x="34" y="197" font-size="13" fill="#7b8499" font-weight="normal" text-anchor="start">🏭</text><text x="58" y="197" font-size="13.5" fill="#aeb6c7" font-weight="normal" text-anchor="start">Produção</text><rect x="14" y="216" width="202" height="38" rx="10" fill="#6366f11f"/><rect x="14" y="216" width="3" height="38" rx="2" fill="#fbbf24"/><text x="34" y="241" font-size="13" fill="#fde68a" font-weight="normal" text-anchor="start">🗃️</text><text x="58" y="241" font-size="13.5" fill="#fff" font-weight="bold" text-anchor="start">Estoque</text><text x="34" y="285" font-size="13" fill="#7b8499" font-weight="normal" text-anchor="start">🔎</text><text x="58" y="285" font-size="13.5" fill="#aeb6c7" font-weight="normal" text-anchor="start">Revisão</text><text x="34" y="329" font-size="13" fill="#7b8499" font-weight="normal" text-anchor="start">📦</text><text x="58" y="329" font-size="13.5" fill="#aeb6c7" font-weight="normal" text-anchor="start">Expedição</text><text x="258" y="96" font-size="24" fill="#0f172a" font-weight="bold" text-anchor="start">Estoque</text><text x="258" y="118" font-size="12" fill="#94a3b8" font-weight="normal" text-anchor="start">Produção  ›  Estoque</text><text x="258" y="150" font-size="12" fill="#475569" font-weight="normal" text-anchor="start">Dar entrada avisa os representantes no WhatsApp. Separar (vendas / pronta entrega) envia o item à Revisão p/ unir com o P1+P2.</text><rect x="258" y="170" width="250" height="60" rx="14" fill="#ffffff" stroke="#eef0f4" stroke-width="1" filter="url(#cardShadow)"/><rect x="258" y="182" width="4" height="32" rx="2" fill="#f59e0b"/><text x="278" y="206" font-size="22" fill="#0f172a" font-weight="bold" text-anchor="start">3</text><text x="278" y="223" font-size="11.5" fill="#64748b" font-weight="normal" text-anchor="start">Para dar entrada</text><rect x="522" y="170" width="250" height="60" rx="14" fill="#ffffff" stroke="#eef0f4" stroke-width="1" filter="url(#cardShadow)"/><rect x="522" y="182" width="4" height="32" rx="2" fill="#10b981"/><text x="542" y="206" font-size="22" fill="#0f172a" font-weight="bold" text-anchor="start">7</text><text x="542" y="223" font-size="11.5" fill="#64748b" font-weight="normal" text-anchor="start">Avisados hoje</text><rect x="786" y="170" width="250" height="60" rx="14" fill="#ffffff" stroke="#eef0f4" stroke-width="1" filter="url(#cardShadow)"/><rect x="786" y="182" width="4" height="32" rx="2" fill="#2563eb"/><text x="806" y="206" font-size="22" fill="#0f172a" font-weight="bold" text-anchor="start">2</text><text x="806" y="223" font-size="11.5" fill="#64748b" font-weight="normal" text-anchor="start">A separar (vendas)</text><rect x="1050" y="170" width="250" height="60" rx="14" fill="#ffffff" stroke="#eef0f4" stroke-width="1" filter="url(#cardShadow)"/><rect x="1050" y="182" width="4" height="32" rx="2" fill="#059669"/><text x="1070" y="206" font-size="22" fill="#0f172a" font-weight="bold" text-anchor="start">1</text><text x="1070" y="223" font-size="11.5" fill="#64748b" font-weight="normal" text-anchor="start">PE p/ unir</text><rect x="258" y="250" width="430" height="660" rx="16" fill="#f1f3f7"/><rect x="258" y="250" width="430" height="52" rx="16" fill="#fff7ed"/><rect x="258" y="286" width="430" height="16" rx="0" fill="#fff7ed"/><circle cx="278" cy="276" r="5" fill="#f59e0b"/><text x="292" y="274" font-size="12.5" fill="#b45309" font-weight="bold" text-anchor="start">Entrada no Estoque</text><text x="292" y="290" font-size="10" fill="#b45309" font-weight="normal" text-anchor="start">dar entrada → avisa WhatsApp</text><rect x="648" y="265" width="26" height="22" rx="11" fill="#ffffffcc"/><text x="661" y="280" font-size="12" fill="#b45309" font-weight="bold" text-anchor="middle">3</text><rect x="272" y="314" width="402" height="210" rx="14" fill="#ffffff" stroke="#eef0f4" stroke-width="1" filter="url(#cardShadow)"/><rect x="272" y="314" width="402" height="34" rx="14" fill="url(#g_kit)"/><rect x="272" y="334" width="402" height="14" rx="0" fill="url(#g_kit)"/><text x="286" y="336" font-size="12.5" fill="#fff" font-weight="bold" text-anchor="start" letter-spacing="0.3">KIT-0996</text><rect x="630.6" y="322" width="29.4" height="17" rx="8" fill="#ffffff33"/><text x="645.3" y="334" font-size="8.5" fill="#fff" font-weight="bold" text-anchor="middle">KIT</text><text x="286" y="372" font-size="14.5" fill="#0f172a" font-weight="bold" text-anchor="start">Cachecol CC07</text><rect x="286.0" y="386" width="182.0" height="34" rx="8" fill="#f8fafc" stroke="#eef0f4" stroke-width="1"/><text x="296.0" y="400" font-size="7.5" fill="#94a3b8" font-weight="bold" text-anchor="start" letter-spacing="0.4">KIT</text><text x="296.0" y="414" font-size="11.5" fill="#0f172a" font-weight="bold" text-anchor="start">KIT-0996</text><rect x="478.0" y="386" width="182.0" height="34" rx="8" fill="#f8fafc" stroke="#eef0f4" stroke-width="1"/><text x="488.0" y="400" font-size="7.5" fill="#94a3b8" font-weight="bold" text-anchor="start" letter-spacing="0.4">TAMANHO</text><text x="488.0" y="414" font-size="11.5" fill="#0f172a" font-weight="bold" text-anchor="start">Único</text><rect x="286.0" y="426" width="182.0" height="34" rx="8" fill="#f8fafc" stroke="#eef0f4" stroke-width="1"/><text x="296.0" y="440" font-size="7.5" fill="#94a3b8" font-weight="bold" text-anchor="start" letter-spacing="0.4">COR</text><text x="296.0" y="454" font-size="11.5" fill="#0f172a" font-weight="bold" text-anchor="start">Cinza mescla</text><rect x="478.0" y="426" width="182.0" height="34" rx="8" fill="#f8fafc" stroke="#eef0f4" stroke-width="1"/><text x="488.0" y="440" font-size="7.5" fill="#94a3b8" font-weight="bold" text-anchor="start" letter-spacing="0.4">QTD</text><text x="488.0" y="454" font-size="11.5" fill="#0f172a" font-weight="bold" text-anchor="start">120 pç</text><rect x="286" y="474" width="374" height="30" rx="8" fill="#ecfdf5" stroke="#a7f3d0" stroke-width="1"/><text x="296" y="493" font-size="10" fill="#047857" font-weight="bold" text-anchor="start">📲 Ao dar entrada, avisa os representantes no WhatsApp</text><rect x="286" y="486" width="374" height="30" rx="8" fill="#10b981"/><text x="473.0" y="505.2" font-size="11" fill="#fff" font-weight="bold" text-anchor="middle">📥 Dar entrada no estoque  →  📲 avisar</text><rect x="272" y="536" width="402" height="210" rx="14" fill="#ffffff" stroke="#eef0f4" stroke-width="1" filter="url(#cardShadow)"/><rect x="272" y="536" width="402" height="34" rx="14" fill="url(#g_est)"/><rect x="272" y="556" width="402" height="14" rx="0" fill="url(#g_est)"/><text x="286" y="558" font-size="12.5" fill="#fff" font-weight="bold" text-anchor="start" letter-spacing="0.3">EST-2001</text><rect x="607.4" y="544" width="52.6" height="17" rx="8" fill="#ffffff33"/><text x="633.7" y="556" font-size="8.5" fill="#fff" font-weight="bold" text-anchor="middle">ESTOQUE</text><text x="286" y="594" font-size="14.5" fill="#0f172a" font-weight="bold" text-anchor="start">Touca TC01</text><rect x="286.0" y="608" width="182.0" height="34" rx="8" fill="#f8fafc" stroke="#eef0f4" stroke-width="1"/><text x="296.0" y="622" font-size="7.5" fill="#94a3b8" font-weight="bold" text-anchor="start" letter-spacing="0.4">KIT</text><text x="296.0" y="636" font-size="11.5" fill="#0f172a" font-weight="bold" text-anchor="start">—</text><rect x="478.0" y="608" width="182.0" height="34" rx="8" fill="#f8fafc" stroke="#eef0f4" stroke-width="1"/><text x="488.0" y="622" font-size="7.5" fill="#94a3b8" font-weight="bold" text-anchor="start" letter-spacing="0.4">TAMANHO</text><text x="488.0" y="636" font-size="11.5" fill="#0f172a" font-weight="bold" text-anchor="start">Único</text><rect x="286.0" y="648" width="182.0" height="34" rx="8" fill="#f8fafc" stroke="#eef0f4" stroke-width="1"/><text x="296.0" y="662" font-size="7.5" fill="#94a3b8" font-weight="bold" text-anchor="start" letter-spacing="0.4">COR</text><text x="296.0" y="676" font-size="11.5" fill="#0f172a" font-weight="bold" text-anchor="start">Preto</text><rect x="478.0" y="648" width="182.0" height="34" rx="8" fill="#f8fafc" stroke="#eef0f4" stroke-width="1"/><text x="488.0" y="662" font-size="7.5" fill="#94a3b8" font-weight="bold" text-anchor="start" letter-spacing="0.4">QTD</text><text x="488.0" y="676" font-size="11.5" fill="#0f172a" font-weight="bold" text-anchor="start">200 pç</text><rect x="286" y="696" width="374" height="30" rx="8" fill="#ecfdf5" stroke="#a7f3d0" stroke-width="1"/><text x="296" y="715" font-size="10" fill="#047857" font-weight="bold" text-anchor="start">📲 Ao dar entrada, avisa os representantes no WhatsApp</text><rect x="286" y="708" width="374" height="30" rx="8" fill="#10b981"/><text x="473.0" y="727.2" font-size="11" fill="#fff" font-weight="bold" text-anchor="middle">📥 Dar entrada no estoque  →  📲 avisar</text><rect x="272" y="758" width="402" height="210" rx="14" fill="#ffffff" stroke="#eef0f4" stroke-width="1" filter="url(#cardShadow)"/><rect x="272" y="758" width="402" height="34" rx="14" fill="url(#g_kit)"/><rect x="272" y="778" width="402" height="14" rx="0" fill="url(#g_kit)"/><text x="286" y="780" font-size="12.5" fill="#fff" font-weight="bold" text-anchor="start" letter-spacing="0.3">KIT-0985</text><rect x="630.6" y="766" width="29.4" height="17" rx="8" fill="#ffffff33"/><text x="645.3" y="778" font-size="8.5" fill="#fff" font-weight="bold" text-anchor="middle">KIT</text><text x="286" y="816" font-size="14.5" fill="#0f172a" font-weight="bold" text-anchor="start">Luva LV02</text><rect x="286.0" y="830" width="182.0" height="34" rx="8" fill="#f8fafc" stroke="#eef0f4" stroke-width="1"/><text x="296.0" y="844" font-size="7.5" fill="#94a3b8" font-weight="bold" text-anchor="start" letter-spacing="0.4">KIT</text><text x="296.0" y="858" font-size="11.5" fill="#0f172a" font-weight="bold" text-anchor="start">KIT-0985</text><rect x="478.0" y="830" width="182.0" height="34" rx="8" fill="#f8fafc" stroke="#eef0f4" stroke-width="1"/><text x="488.0" y="844" font-size="7.5" fill="#94a3b8" font-weight="bold" text-anchor="start" letter-spacing="0.4">TAMANHO</text><text x="488.0" y="858" font-size="11.5" fill="#0f172a" font-weight="bold" text-anchor="start">M</text><rect x="286.0" y="870" width="182.0" height="34" rx="8" fill="#f8fafc" stroke="#eef0f4" stroke-width="1"/><text x="296.0" y="884" font-size="7.5" fill="#94a3b8" font-weight="bold" text-anchor="start" letter-spacing="0.4">COR</text><text x="296.0" y="898" font-size="11.5" fill="#0f172a" font-weight="bold" text-anchor="start">Bege</text><rect x="478.0" y="870" width="182.0" height="34" rx="8" fill="#f8fafc" stroke="#eef0f4" stroke-width="1"/><text x="488.0" y="884" font-size="7.5" fill="#94a3b8" font-weight="bold" text-anchor="start" letter-spacing="0.4">QTD</text><text x="488.0" y="898" font-size="11.5" fill="#0f172a" font-weight="bold" text-anchor="start">60 pç</text><rect x="286" y="918" width="374" height="30" rx="8" fill="#ecfdf5" stroke="#a7f3d0" stroke-width="1"/><text x="296" y="937" font-size="10" fill="#047857" font-weight="bold" text-anchor="start">📲 Ao dar entrada, avisa os representantes no WhatsApp</text><rect x="286" y="930" width="374" height="30" rx="8" fill="#f1f5f9" stroke="#e2e8f0" stroke-width="1"/><text x="473.0" y="950" font-size="10.5" fill="#475569" font-weight="bold" text-anchor="middle">✓ Em estoque · representantes avisados 09:12</text><rect x="706" y="250" width="430" height="660" rx="16" fill="#f1f3f7"/><rect x="706" y="250" width="430" height="52" rx="16" fill="#eff6ff"/><rect x="706" y="286" width="430" height="16" rx="0" fill="#eff6ff"/><circle cx="726" cy="276" r="5" fill="#3b82f6"/><text x="740" y="274" font-size="12.5" fill="#1d4ed8" font-weight="bold" text-anchor="start">Pedido de Vendas — Separar</text><text x="740" y="290" font-size="10" fill="#1d4ed8" font-weight="normal" text-anchor="start">separar do estoque → Revisão</text><rect x="1096" y="265" width="26" height="22" rx="11" fill="#ffffffcc"/><text x="1109" y="280" font-size="12" fill="#1d4ed8" font-weight="bold" text-anchor="middle">2</text><rect x="720" y="314" width="402" height="178" rx="14" fill="#ffffff" stroke="#eef0f4" stroke-width="1" filter="url(#cardShadow)"/><rect x="720" y="314" width="402" height="34" rx="14" fill="url(#g_pv)"/><rect x="720" y="334" width="402" height="14" rx="0" fill="url(#g_pv)"/><text x="734" y="336" font-size="12.5" fill="#fff" font-weight="bold" text-anchor="start" letter-spacing="0.3">PV-3050</text><rect x="1026.4" y="322" width="81.6" height="17" rx="8" fill="#ffffff33"/><text x="1067.2" y="334" font-size="8.5" fill="#fff" font-weight="bold" text-anchor="middle">PEDIDO VENDA</text><text x="734" y="372" font-size="14" fill="#0f172a" font-weight="bold" text-anchor="start">Loja K</text><text x="734" y="390" font-size="11" fill="#64748b" font-weight="normal" text-anchor="start">Blusa BT12 · 30 pç</text><rect x="734" y="400" width="374" height="42" rx="8" fill="#eef2ff" stroke="#c7d2fe" stroke-width="1"/><text x="744" y="417" font-size="8" fill="#4338ca" font-weight="bold" text-anchor="start" letter-spacing="0.4">🔗 UNE NA REVISÃO</text><text x="744" y="434" font-size="10.5" fill="#4338ca" font-weight="bold" text-anchor="start">vai se juntar ao card OP-1042 (P1+P2)</text><rect x="734" y="454" width="374" height="30" rx="8" fill="#2563eb"/><text x="921.0" y="473.2" font-size="11" fill="#fff" font-weight="bold" text-anchor="middle">✂️ Separar  →  Revisão</text><rect x="720" y="504" width="402" height="178" rx="14" fill="#ffffff" stroke="#eef0f4" stroke-width="1" filter="url(#cardShadow)"/><rect x="720" y="504" width="402" height="34" rx="14" fill="url(#g_pv)"/><rect x="720" y="524" width="402" height="14" rx="0" fill="url(#g_pv)"/><text x="734" y="526" font-size="12.5" fill="#fff" font-weight="bold" text-anchor="start" letter-spacing="0.3">PV-3051</text><rect x="1026.4" y="512" width="81.6" height="17" rx="8" fill="#ffffff33"/><text x="1067.2" y="524" font-size="8.5" fill="#fff" font-weight="bold" text-anchor="middle">PEDIDO VENDA</text><text x="734" y="562" font-size="14" fill="#0f172a" font-weight="bold" text-anchor="start">Cliente B</text><text x="734" y="580" font-size="11" fill="#64748b" font-weight="normal" text-anchor="start">Cachecol CC07 · 20 pç</text><rect x="734" y="590" width="374" height="42" rx="8" fill="#eef2ff" stroke="#c7d2fe" stroke-width="1"/><text x="744" y="607" font-size="8" fill="#4338ca" font-weight="bold" text-anchor="start" letter-spacing="0.4">🔗 UNE NA REVISÃO</text><text x="744" y="624" font-size="10.5" fill="#4338ca" font-weight="bold" text-anchor="start">vai se juntar ao card OP-0995 (P1+P2)</text><rect x="734" y="644" width="374" height="30" rx="8" fill="#2563eb"/><text x="921.0" y="663.2" font-size="11" fill="#fff" font-weight="bold" text-anchor="middle">✂️ Separar  →  Revisão</text><rect x="1154" y="250" width="430" height="660" rx="16" fill="#f1f3f7"/><rect x="1154" y="250" width="430" height="52" rx="16" fill="#ecfdf5"/><rect x="1154" y="286" width="430" height="16" rx="0" fill="#ecfdf5"/><circle cx="1174" cy="276" r="5" fill="#10b981"/><text x="1188" y="274" font-size="12.5" fill="#047857" font-weight="bold" text-anchor="start">Pronta Entrega + Estoque (juntos)</text><text x="1188" y="290" font-size="10" fill="#047857" font-weight="normal" text-anchor="start">separar p/ unir na Revisão</text><rect x="1544" y="265" width="26" height="22" rx="11" fill="#ffffffcc"/><text x="1557" y="280" font-size="12" fill="#047857" font-weight="bold" text-anchor="middle">1</text><rect x="1168" y="314" width="402" height="178" rx="14" fill="#ffffff" stroke="#eef0f4" stroke-width="1" filter="url(#cardShadow)"/><rect x="1168" y="314" width="402" height="34" rx="14" fill="url(#g_pe)"/><rect x="1168" y="334" width="402" height="14" rx="0" fill="url(#g_pe)"/><text x="1182" y="336" font-size="12.5" fill="#fff" font-weight="bold" text-anchor="start" letter-spacing="0.3">OP-0990</text><rect x="1462.8" y="322" width="93.2" height="17" rx="8" fill="#ffffff33"/><text x="1509.4" y="334" font-size="8.5" fill="#fff" font-weight="bold" text-anchor="middle">PRONTA ENTREGA</text><text x="1182" y="372" font-size="14" fill="#0f172a" font-weight="bold" text-anchor="start">Atacado D</text><text x="1182" y="390" font-size="11" fill="#64748b" font-weight="normal" text-anchor="start">Echarpe EC09 (PE) · 40 pç</text><rect x="1182" y="400" width="374" height="42" rx="8" fill="#eef2ff" stroke="#c7d2fe" stroke-width="1"/><text x="1192" y="417" font-size="8" fill="#4338ca" font-weight="bold" text-anchor="start" letter-spacing="0.4">🔗 UNE NA REVISÃO</text><text x="1192" y="434" font-size="10.5" fill="#4338ca" font-weight="bold" text-anchor="start">vai se juntar ao card OP-0990 (P1+P2)</text><rect x="1182" y="454" width="374" height="30" rx="8" fill="#2563eb"/><text x="1369.0" y="473.2" font-size="11" fill="#fff" font-weight="bold" text-anchor="middle">✂️ Separar  →  Revisão</text><text x="258" y="928" font-size="11.5" fill="#94a3b8" font-weight="normal" text-anchor="start">As colunas e os nomes são configuráveis. Separar move o item para a Revisão, onde ele se reúne ao pedido P1+P2 para seguirem juntos.</text></svg>