<svg xmlns="http://www.w3.org/2000/svg" width="860" height="1180" viewBox="0 0 860 1180" font-family="Inter, Segoe UI, Helvetica, Arial, sans-serif"><defs><filter id="paper" x="-12%" y="-5%" width="124%" height="110%"><feDropShadow dx="0" dy="8" stdDeviation="20" flood-color="#0f172a" flood-opacity="0.18"/></filter></defs><rect x="0" y="0" width="860" height="1180" rx="0" fill="#e5e7eb"/><text x="430.0" y="26" font-size="12.5" fill="#0f172a" font-weight="bold" text-anchor="middle">Romaneio (modelo fiel ao da Big Tricot) — 2 vias na mesma página</text><rect x="40" y="44" width="780" height="1110" rx="4" fill="#ffffff" filter="url(#paper)"/><text x="74.0" y="112.0" font-size="30" fill="#111827" font-weight="bold" text-anchor="start" font-family="Georgia, 'Times New Roman', 'Playfair Display', serif">B</text><text x="99.2" y="112.0" font-size="30" fill="#111827" font-weight="bold" text-anchor="start" font-family="Georgia, 'Times New Roman', 'Playfair Display', serif">G</text><text x="95.6" y="102.1" font-size="4.050000000000001" fill="#111827" font-weight="bold" text-anchor="middle" font-family="Inter, 'Segoe UI', Helvetica, Arial, sans-serif" letter-spacing="1.5" transform="rotate(90 95.6 102.1)">TRICOT</text><circle cx="95.6" cy="90.1" r="1.7999999999999998" fill="#111827"/><text x="97.7" y="119.8" font-size="4.65" fill="#111827" font-weight="normal" text-anchor="middle" font-family="Inter, 'Segoe UI', Helvetica, Arial, sans-serif" letter-spacing="0.6">BIG TRICOT HOME DECOR</text><text x="786" y="90" font-size="17" fill="#111827" font-weight="bold" text-anchor="end">ROMANEIO Nº ROM-0135</text><text x="786" y="110" font-size="11" fill="#6b7280" font-weight="normal" text-anchor="end">Emitido em 18/06/2026</text><line x1="74" y1="126" x2="786" y2="126" stroke="#111827" stroke-width="1.5"/><text x="74" y="154" font-size="11.5" fill="#111827" font-weight="bold" text-anchor="start">Cliente:</text><text x="224" y="154" font-size="11.5" fill="#374151" font-weight="normal" text-anchor="start">IRENE GOBBI MENEGAZZO E CIA</text><text x="224" y="170" font-size="11.5" fill="#374151" font-weight="normal" text-anchor="start">LTDA</text><text x="465.6" y="154" font-size="11.5" fill="#111827" font-weight="bold" text-anchor="start">Pedido:</text><text x="555.6" y="154" font-size="11.5" fill="#374151" font-weight="normal" text-anchor="start">#3758</text><text x="74" y="192" font-size="11.5" fill="#111827" font-weight="bold" text-anchor="start">Costureira:</text><text x="224" y="192" font-size="11.5" fill="#374151" font-weight="normal" text-anchor="start">SILVIA</text><text x="465.6" y="192" font-size="11.5" fill="#111827" font-weight="bold" text-anchor="start">Volumes:</text><text x="555.6" y="192" font-size="11.5" fill="#374151" font-weight="normal" text-anchor="start">1</text><text x="74" y="214" font-size="11.5" fill="#111827" font-weight="bold" text-anchor="start">Data Saída:</text><text x="224" y="214" font-size="11.5" fill="#374151" font-weight="normal" text-anchor="start">19/06/2026</text><text x="465.6" y="214" font-size="11.5" fill="#111827" font-weight="bold" text-anchor="start">Data Retorno:</text><text x="555.6" y="214" font-size="11.5" fill="#374151" font-weight="normal" text-anchor="start">19/06/2026</text><rect x="74" y="236" width="712" height="34" rx="0" fill="#eceff3" stroke="#c7cdd6" stroke-width="1"/><line x1="456" y1="236" x2="456" y2="236" stroke="#c7cdd6" stroke-width="1"/><text x="90" y="258" font-size="12.5" fill="#111827" font-weight="bold" text-anchor="start">Serviço</text><text x="511" y="258" font-size="11.5" fill="#111827" font-weight="bold" text-anchor="middle">Qtd</text><text x="621" y="258" font-size="11.5" fill="#111827" font-weight="bold" text-anchor="middle">Vl Unit.</text><text x="731" y="258" font-size="11.5" fill="#111827" font-weight="bold" text-anchor="middle">Vl Total</text><line x1="456" y1="236" x2="456" y2="270" stroke="#c7cdd6" stroke-width="1"/><line x1="566" y1="236" x2="566" y2="270" stroke="#c7cdd6" stroke-width="1"/><line x1="676" y1="236" x2="676" y2="270" stroke="#c7cdd6" stroke-width="1"/><rect x="74" y="270" width="712" height="46" rx="0" fill="#ffffff" stroke="#c7cdd6" stroke-width="1"/><line x1="456" y1="270" x2="456" y2="316" stroke="#c7cdd6" stroke-width="1"/><line x1="566" y1="270" x2="566" y2="316" stroke="#c7cdd6" stroke-width="1"/><line x1="676" y1="270" x2="676" y2="316" stroke="#c7cdd6" stroke-width="1"/><text x="90" y="299" font-size="14" fill="#111827" font-weight="bold" text-anchor="start">CAPAS TRICÔ</text><text x="511" y="299" font-size="13" fill="#111827" font-weight="bold" text-anchor="middle">2</text><text x="621" y="299" font-size="12.5" fill="#111827" font-weight="normal" text-anchor="middle">R$ 5,00</text><text x="731" y="299" font-size="13" fill="#111827" font-weight="bold" text-anchor="middle">R$ 10,00</text><rect x="74" y="316" width="712" height="52" rx="0" fill="#eceff3" stroke="#c7cdd6" stroke-width="1"/><line x1="456" y1="316" x2="456" y2="368" stroke="#c7cdd6" stroke-width="1"/><line x1="566" y1="316" x2="566" y2="368" stroke="#c7cdd6" stroke-width="1"/><line x1="676" y1="316" x2="676" y2="368" stroke="#c7cdd6" stroke-width="1"/><text x="90" y="348" font-size="15" fill="#111827" font-weight="bold" text-anchor="start">TOTAL GERAL</text><text x="511" y="348" font-size="13" fill="#111827" font-weight="bold" text-anchor="middle">2 pç</text><text x="731" y="340" font-size="12.5" fill="#111827" font-weight="bold" text-anchor="middle">R$</text><text x="731" y="356" font-size="13" fill="#111827" font-weight="bold" text-anchor="middle">10,00</text><line x1="74" y1="432" x2="414.0" y2="432" stroke="#9ca3af" stroke-width="1"/><text x="244.0" y="450" font-size="12" fill="#111827" font-weight="bold" text-anchor="middle">Conferido na IDA</text><text x="244.0" y="466" font-size="10.5" fill="#9ca3af" font-weight="normal" text-anchor="middle">Assinatura / Data</text><line x1="446.0" y1="432" x2="786" y2="432" stroke="#9ca3af" stroke-width="1"/><text x="616.0" y="450" font-size="12" fill="#111827" font-weight="bold" text-anchor="middle">Conferido no RETORNO</text><text x="616.0" y="466" font-size="10.5" fill="#9ca3af" font-weight="normal" text-anchor="middle">Assinatura / Data</text><line x1="64" y1="506" x2="796" y2="506" stroke="#9ca3af" stroke-width="1.2" stroke-dasharray="7 5"/><rect x="344.0" y="495" width="172" height="22" rx="0" fill="#ffffff"/><text x="430.0" y="511" font-size="11.5" fill="#6b7280" font-weight="bold" text-anchor="middle" letter-spacing="1">✂  C O R T A R   A Q U I  ✂</text><text x="74.0" y="580.0" font-size="30" fill="#111827" font-weight="bold" text-anchor="start" font-family="Georgia, 'Times New Roman', 'Playfair Display', serif">B</text><text x="99.2" y="580.0" font-size="30" fill="#111827" font-weight="bold" text-anchor="start" font-family="Georgia, 'Times New Roman', 'Playfair Display', serif">G</text><text x="95.6" y="570.1" font-size="4.050000000000001" fill="#111827" font-weight="bold" text-anchor="middle" font-family="Inter, 'Segoe UI', Helvetica, Arial, sans-serif" letter-spacing="1.5" transform="rotate(90 95.6 570.1)">TRICOT</text><circle cx="95.6" cy="558.1" r="1.7999999999999998" fill="#111827"/><text x="97.7" y="587.8" font-size="4.65" fill="#111827" font-weight="normal" text-anchor="middle" font-family="Inter, 'Segoe UI', Helvetica, Arial, sans-serif" letter-spacing="0.6">BIG TRICOT HOME DECOR</text><text x="786" y="558" font-size="17" fill="#111827" font-weight="bold" text-anchor="end">ROMANEIO Nº ROM-0135</text><text x="786" y="578" font-size="11" fill="#6b7280" font-weight="normal" text-anchor="end">Emitido em 18/06/2026</text><line x1="74" y1="594" x2="786" y2="594" stroke="#111827" stroke-width="1.5"/><text x="74" y="622" font-size="11.5" fill="#111827" font-weight="bold" text-anchor="start">Cliente:</text><text x="224" y="622" font-size="11.5" fill="#374151" font-weight="normal" text-anchor="start">IRENE GOBBI MENEGAZZO E CIA</text><text x="224" y="638" font-size="11.5" fill="#374151" font-weight="normal" text-anchor="start">LTDA</text><text x="465.6" y="622" font-size="11.5" fill="#111827" font-weight="bold" text-anchor="start">Pedido:</text><text x="555.6" y="622" font-size="11.5" fill="#374151" font-weight="normal" text-anchor="start">#3758</text><text x="74" y="660" font-size="11.5" fill="#111827" font-weight="bold" text-anchor="start">Costureira:</text><text x="224" y="660" font-size="11.5" fill="#374151" font-weight="normal" text-anchor="start">SILVIA</text><text x="465.6" y="660" font-size="11.5" fill="#111827" font-weight="bold" text-anchor="start">Volumes:</text><text x="555.6" y="660" font-size="11.5" fill="#374151" font-weight="normal" text-anchor="start">1</text><text x="74" y="682" font-size="11.5" fill="#111827" font-weight="bold" text-anchor="start">Data Saída:</text><text x="224" y="682" font-size="11.5" fill="#374151" font-weight="normal" text-anchor="start">19/06/2026</text><text x="465.6" y="682" font-size="11.5" fill="#111827" font-weight="bold" text-anchor="start">Data Retorno:</text><text x="555.6" y="682" font-size="11.5" fill="#374151" font-weight="normal" text-anchor="start">19/06/2026</text><rect x="74" y="704" width="712" height="34" rx="0" fill="#eceff3" stroke="#c7cdd6" stroke-width="1"/><line x1="456" y1="704" x2="456" y2="704" stroke="#c7cdd6" stroke-width="1"/><text x="90" y="726" font-size="12.5" fill="#111827" font-weight="bold" text-anchor="start">Serviço</text><text x="511" y="726" font-size="11.5" fill="#111827" font-weight="bold" text-anchor="middle">Qtd</text><text x="621" y="726" font-size="11.5" fill="#111827" font-weight="bold" text-anchor="middle">Vl Unit.</text><text x="731" y="726" font-size="11.5" fill="#111827" font-weight="bold" text-anchor="middle">Vl Total</text><line x1="456" y1="704" x2="456" y2="738" stroke="#c7cdd6" stroke-width="1"/><line x1="566" y1="704" x2="566" y2="738" stroke="#c7cdd6" stroke-width="1"/><line x1="676" y1="704" x2="676" y2="738" stroke="#c7cdd6" stroke-width="1"/><rect x="74" y="738" width="712" height="46" rx="0" fill="#ffffff" stroke="#c7cdd6" stroke-width="1"/><line x1="456" y1="738" x2="456" y2="784" stroke="#c7cdd6" stroke-width="1"/><line x1="566" y1="738" x2="566" y2="784" stroke="#c7cdd6" stroke-width="1"/><line x1="676" y1="738" x2="676" y2="784" stroke="#c7cdd6" stroke-width="1"/><text x="90" y="767" font-size="14" fill="#111827" font-weight="bold" text-anchor="start">CAPAS TRICÔ</text><text x="511" y="767" font-size="13" fill="#111827" font-weight="bold" text-anchor="middle">2</text><text x="621" y="767" font-size="12.5" fill="#111827" font-weight="normal" text-anchor="middle">R$ 5,00</text><text x="731" y="767" font-size="13" fill="#111827" font-weight="bold" text-anchor="middle">R$ 10,00</text><rect x="74" y="784" width="712" height="52" rx="0" fill="#eceff3" stroke="#c7cdd6" stroke-width="1"/><line x1="456" y1="784" x2="456" y2="836" stroke="#c7cdd6" stroke-width="1"/><line x1="566" y1="784" x2="566" y2="836" stroke="#c7cdd6" stroke-width="1"/><line x1="676" y1="784" x2="676" y2="836" stroke="#c7cdd6" stroke-width="1"/><text x="90" y="816" font-size="15" fill="#111827" font-weight="bold" text-anchor="start">TOTAL GERAL</text><text x="511" y="816" font-size="13" fill="#111827" font-weight="bold" text-anchor="middle">2 pç</text><text x="731" y="808" font-size="12.5" fill="#111827" font-weight="bold" text-anchor="middle">R$</text><text x="731" y="824" font-size="13" fill="#111827" font-weight="bold" text-anchor="middle">10,00</text><line x1="74" y1="900" x2="414.0" y2="900" stroke="#9ca3af" stroke-width="1"/><text x="244.0" y="918" font-size="12" fill="#111827" font-weight="bold" text-anchor="middle">Conferido na IDA</text><text x="244.0" y="934" font-size="10.5" fill="#9ca3af" font-weight="normal" text-anchor="middle">Assinatura / Data</text><line x1="446.0" y1="900" x2="786" y2="900" stroke="#9ca3af" stroke-width="1"/><text x="616.0" y="918" font-size="12" fill="#111827" font-weight="bold" text-anchor="middle">Conferido no RETORNO</text><text x="616.0" y="934" font-size="10.5" fill="#9ca3af" font-weight="normal" text-anchor="middle">Assinatura / Data</text></svg>