<svg xmlns="http://www.w3.org/2000/svg" width="760" height="1000" viewBox="0 0 760 1000" font-family="Inter, Segoe UI, Helvetica, Arial, sans-serif"><defs><linearGradient id="g_brand" x1="0" y1="0" x2="1" y2="0"><stop offset="0" stop-color="#4f46e5"/><stop offset="1" stop-color="#7c3aed"/></linearGradient><linearGradient id="g_rom" x1="0" y1="0" x2="1" y2="0"><stop offset="0" stop-color="#b45309"/><stop offset="1" stop-color="#d97706"/></linearGradient><linearGradient id="g_ins" x1="0" y1="0" x2="1" y2="0"><stop offset="0" stop-color="#0d9488"/><stop offset="1" stop-color="#0891b2"/></linearGradient><filter id="cardShadow" x="-30%" y="-30%" width="160%" height="160%"><feDropShadow dx="0" dy="2" stdDeviation="5" flood-color="#0f172a" flood-opacity="0.10"/></filter><filter id="ph" x="-20%" y="-20%" width="140%" height="140%"><feDropShadow dx="0" dy="10" stdDeviation="22" flood-color="#0f172a" flood-opacity="0.22"/></filter><filter id="paper" x="-15%" y="-8%" width="130%" height="116%"><feDropShadow dx="0" dy="6" stdDeviation="16" flood-color="#0f172a" flood-opacity="0.18"/></filter></defs><rect x="0" y="0" width="760" height="1000" rx="0" fill="#e9edef"/><rect x="0" y="0" width="760" height="1000" rx="0" fill="#e9edef"/><text x="380.0" y="34" font-size="13.5" fill="#0f172a" font-weight="bold" text-anchor="middle">Relatório mensal automático — enviado todo dia 1º</text><rect x="160.0" y="58" width="440" height="880" rx="38" fill="#0b141a" filter="url(#ph)"/><rect x="172.0" y="70" width="416" height="856" rx="28" fill="#0b141a"/><rect x="172.0" y="70" width="416" height="72" rx="28" fill="#202c33"/><rect x="172.0" y="110" width="416" height="32" rx="0" fill="#202c33"/><text x="192.0" y="100" font-size="22" fill="#aebac1" font-weight="normal" text-anchor="start">‹</text><circle cx="230.0" cy="106" r="18" fill="#25d366"/><text x="230.0" y="112.3" font-size="14.040000000000001" fill="#fff" font-weight="bold" text-anchor="middle">$</text><text x="258.0" y="102" font-size="13.5" fill="#e9edef" font-weight="bold" text-anchor="start">Financeiro Big Tricot</text><text x="258.0" y="120" font-size="10.5" fill="#8696a0" font-weight="normal" text-anchor="start">você, Ana, Bia</text><rect x="172.0" y="142" width="416" height="726" rx="0" fill="#0b141a"/><rect x="330.0" y="156" width="100" height="22" rx="11" fill="#182229"/><text x="380.0" y="171" font-size="10" fill="#8696a0" font-weight="bold" text-anchor="middle">01/07 · 08:00</text><rect x="196.0" y="190" width="368" height="393" rx="14" fill="#005c4b"/><path d="M 196.0 198 l -12 0 l 12 12 z" fill="#005c4b"/><text x="212.0" y="214" font-size="12.5" fill="#e9edef" font-weight="bold" text-anchor="start">📊 Relatório Mensal — Junho/2026</text><text x="212.0" y="245" font-size="12" fill="#e9edef" font-weight="normal" text-anchor="start">Romaneios devolvidos no prazo: *34*</text><text x="212.0" y="266" font-size="12" fill="#e9edef" font-weight="normal" text-anchor="start">Total a pagar (liberado): *R$ 4.820,00*</text><text x="212.0" y="297" font-size="12.5" fill="#e9edef" font-weight="bold" text-anchor="start">Por costureira:</text><text x="212.0" y="318" font-size="12" fill="#e9edef" font-weight="normal" text-anchor="start">• Silvia — R$ 980,00</text><text x="212.0" y="339" font-size="12" fill="#e9edef" font-weight="normal" text-anchor="start">• Angélica — R$ 1.140,00</text><text x="212.0" y="360" font-size="12" fill="#e9edef" font-weight="normal" text-anchor="start">• Bene — R$ 1.260,00</text><text x="212.0" y="381" font-size="12" fill="#e9edef" font-weight="normal" text-anchor="start">• Nice — R$ 740,00</text><text x="212.0" y="402" font-size="12" fill="#e9edef" font-weight="normal" text-anchor="start">• Cris — R$ 700,00</text><text x="212.0" y="433" font-size="12.5" fill="#e9edef" font-weight="bold" text-anchor="start">⚠ Não liberado (não voltou até 31):</text><text x="212.0" y="454" font-size="12" fill="#e9edef" font-weight="normal" text-anchor="start">• R-210 Cris — R$ 135,00</text><text x="212.0" y="475" font-size="12" fill="#e9edef" font-weight="normal" text-anchor="start">• R-205 Nice — R$ 300,00</text><text x="212.0" y="506" font-size="12" fill="#e9edef" font-weight="normal" text-anchor="start">Detalhes completos no sistema. 📎</text><text x="550.0" y="573" font-size="10" fill="#8aa9a0" font-weight="normal" text-anchor="end">08:00 ✓✓</text><rect x="186.0" y="876" width="324" height="38" rx="19" fill="#2a3942"/><text x="206.0" y="900" font-size="12" fill="#8696a0" font-weight="normal" text-anchor="start">Mensagem</text><circle cx="556.0" cy="895" r="19" fill="#25d366"/><text x="556.0" y="900" font-size="14" fill="#0b141a" font-weight="normal" text-anchor="middle">➤</text><text x="380.0" y="984" font-size="10.5" fill="#64748b" font-weight="normal" text-anchor="middle">Valores vêm dos romaneios devolvidos. Vencidos (não voltaram até dia 31) aparecem, mas não entram no total a pagar.</text></svg>